<svg width="157" height="195" viewBox="0 0 157 195" fill="none" xmlns="http://www.w3.org/2000/svg">
<g clip-path="url(#clip0_434_7219)">
<path d="M154.839 122.466L138.225 112.879L122.757 103.966L121.769 95.9737H122.375C129.267 95.9737 134.858 90.3609 134.858 83.4909V66.0689C134.858 53.5861 127.157 42.8769 116.268 38.3867C119.524 35.3558 121.567 31.0227 121.567 26.2406C121.567 17.0581 114.09 9.60437 104.93 9.60437C101.024 9.60437 97.4092 10.9739 94.5804 13.2414C92.8517 5.89994 86.251 0.421875 78.3932 0.421875C70.5353 0.421875 63.9347 5.89994 62.2059 13.2414C59.3546 10.9739 55.7625 9.60437 51.8335 9.60437C42.651 9.60437 35.1973 17.0806 35.1973 26.2406C35.1973 31.0452 37.2403 35.3558 40.4957 38.3867C33.8727 41.1032 28.4395 46.1547 25.2065 52.5084L22.4675 60.501C22.1307 62.2971 21.9287 64.1605 21.9287 66.0689V83.4909C21.9287 90.3609 27.519 95.9513 34.389 95.9737L33.3563 104.281L17.8426 113.239L1.81249 122.488C0.779744 123.095 0.128662 124.195 0.128662 125.385C0.128662 125.856 0.173564 132.951 2.77789 140.831C2.50848 140.898 2.23906 140.966 1.9921 141.1C0.330722 141.931 -0.342811 143.952 0.48788 145.613C0.645037 145.95 3.69839 151.765 11.5114 154.885C11.5114 154.885 11.5563 154.908 11.5787 154.908C14.4525 156.03 17.9324 156.816 22.1981 156.816C31.9194 156.816 37.7567 152.82 40.8998 149.587C44.043 152.82 49.8803 156.816 59.6016 156.816C69.3229 156.816 75.1602 152.82 78.3034 149.587C81.4465 152.82 87.2838 156.816 97.0051 156.816C106.726 156.816 112.564 152.82 115.707 149.587C118.85 152.82 124.687 156.816 134.409 156.816C138.427 156.816 141.773 156.143 144.557 155.11C145.118 155.02 145.657 154.818 146.128 154.459C153.2 151.271 155.984 145.927 156.141 145.613C156.972 143.952 156.298 141.976 154.66 141.123C154.39 140.988 154.121 140.898 153.851 140.853C156.433 132.928 156.501 125.856 156.501 125.407C156.523 124.172 155.894 123.05 154.839 122.466ZM128.122 66.0464V83.4685C128.122 86.6341 125.54 89.2159 122.375 89.2159H121.589V66.0464C121.589 64.183 120.085 62.6787 118.221 62.6787C116.358 62.6787 114.854 64.183 114.854 66.0464V89.2159H97.2521L95.4111 88.1607L95.2315 86.7688H95.8377C102.73 86.7688 108.32 81.156 108.32 74.286V56.8639C108.32 51.8124 107.041 47.0528 104.818 42.8769H104.953C117.727 42.8769 128.122 53.2717 128.122 66.0464ZM115.46 99.723L108.927 95.9513L106.637 94.6266H114.876V95.0532L114.988 95.9513L115.46 99.723ZM104.93 16.3172C110.386 16.3172 114.831 20.7626 114.831 26.2182C114.831 31.6738 110.386 36.1191 104.93 36.1191H104.885C99.4298 36.1191 94.9845 31.6738 94.9845 26.2182C95.0294 20.7401 99.4747 16.3172 104.93 16.3172ZM78.3932 7.1123C83.8488 7.1123 88.2941 11.5576 88.2941 17.0132C88.2941 22.4688 83.8488 26.9142 78.3932 26.9142H78.3483C72.8926 26.9142 68.4473 22.4688 68.4473 17.0132C68.4698 11.5576 72.9151 7.1123 78.3932 7.1123ZM63.9796 38.7234C67.931 35.5803 72.9375 33.6719 78.3707 33.6719H78.4156C83.8488 33.6719 88.8329 35.5803 92.8068 38.7234C93.7722 39.4868 94.6702 40.3399 95.5009 41.2604C96.3091 42.136 97.05 43.0565 97.7011 44.0443C100.148 47.7263 101.585 52.1267 101.585 56.8639V74.286C101.585 77.4516 99.0033 80.0334 95.8377 80.0334H95.0519V56.8639C95.0519 55.0005 93.5476 53.4962 91.6842 53.4962C89.8208 53.4962 88.3165 55.0005 88.3165 56.8639V80.0334H81.3567L80.0545 79.2701C80.0545 79.2701 79.9872 79.2476 79.9423 79.2252C79.83 79.1803 79.7402 79.1354 79.628 79.0905C79.5157 79.0456 79.4259 79.0007 79.3137 78.9782C79.2239 78.9558 79.1116 78.9333 79.0218 78.9109C78.9095 78.8884 78.7973 78.866 78.685 78.8435H78.0564C77.9441 78.8435 77.8319 78.8884 77.7196 78.9109C77.6298 78.9333 77.5176 78.9558 77.4278 78.9782C77.3155 79.0007 77.2257 79.0456 77.1135 79.0905C77.0012 79.1354 76.9114 79.1803 76.8216 79.2252C76.7767 79.2476 76.7542 79.2476 76.7093 79.2701L75.4072 80.0334H68.5371V56.8639C68.5371 55.0005 67.0329 53.4962 65.1695 53.4962C63.306 53.4962 61.8018 55.0005 61.8018 56.8639V80.0334H61.016C57.8504 80.0334 55.2685 77.4516 55.2685 74.286V56.8639C55.2685 52.1267 56.7054 47.7263 59.1526 44.0443C59.8037 43.0565 60.567 42.136 61.3528 41.2604C62.1161 40.3399 63.0142 39.4868 63.9796 38.7234ZM51.8335 16.3172C57.2891 16.3172 61.7345 20.7626 61.7345 26.2182C61.7345 31.6738 57.2891 36.1191 51.8335 36.1191H51.7886C46.333 36.1191 41.8877 31.6738 41.8877 26.2182C41.9326 20.7401 46.3779 16.3172 51.8335 16.3172ZM28.664 83.4685V66.0464C28.664 53.2717 39.0589 42.8769 51.8335 42.8544H51.9907C49.768 47.0303 48.4883 51.79 48.4883 56.8415V74.2635C48.4883 81.156 54.1011 86.7463 60.9711 86.7463H61.5773L61.4201 88.0709L59.4444 89.2159H41.955V66.024C41.955 64.1605 40.4508 62.6563 38.5874 62.6563C36.7239 62.6563 35.2197 64.1605 35.2197 66.024V89.2159H34.4339C31.2459 89.2159 28.664 86.6341 28.664 83.4685ZM50.0374 94.6266L47.7474 95.9513L40.6529 100.037L41.1693 95.9513L41.2815 95.0532C41.304 94.9185 41.2815 94.7838 41.2815 94.6266H50.0374ZM142.244 148.779C141.997 148.868 141.773 148.958 141.526 149.026C139.572 149.654 137.237 150.081 134.476 150.081C122.869 150.081 118.917 142.852 118.783 142.582C118.76 142.537 118.738 142.515 118.715 142.492C118.693 142.47 118.67 142.425 118.648 142.403C118.491 142.156 118.311 141.931 118.132 141.729C118.087 141.684 118.042 141.662 118.019 141.617C117.031 140.719 115.55 140.449 114.27 141.078C114.18 141.123 114.113 141.19 114.023 141.258C113.866 141.347 113.709 141.46 113.552 141.594C113.462 141.684 113.372 141.774 113.282 141.864C113.103 142.066 112.923 142.29 112.788 142.537C112.788 142.56 112.766 142.56 112.766 142.582C112.609 142.896 108.657 150.103 97.05 150.103C87.2164 150.103 82.8834 144.94 81.7159 143.188V106.705C81.7159 104.842 80.2117 103.338 78.3483 103.338C76.4848 103.338 74.9806 104.842 74.9806 106.705V143.188C73.7907 144.962 69.4576 150.126 59.6241 150.126C48.0168 150.126 44.0654 142.896 43.9307 142.627C43.9083 142.582 43.8858 142.56 43.8634 142.537C43.8409 142.492 43.8185 142.47 43.796 142.447C43.6389 142.201 43.4593 141.976 43.2797 141.796C43.2348 141.751 43.1899 141.729 43.145 141.684C42.1571 140.786 40.6753 140.517 39.3956 141.145C39.3058 141.19 39.2385 141.258 39.1487 141.325C38.9915 141.415 38.8343 141.527 38.6772 141.662C38.5874 141.751 38.4976 141.841 38.4078 141.931C38.2282 142.133 38.0486 142.358 37.9138 142.605C37.9138 142.627 37.8914 142.627 37.8914 142.65C37.7342 142.964 33.7828 150.171 22.1756 150.171C19.504 150.171 17.2588 149.789 15.3505 149.183C15.1709 149.115 14.9688 149.071 14.7892 149.003C8.61518 142.088 7.22321 131.604 6.93134 127.36L70.3332 90.7875L78.3483 86.1626L86.4306 90.8324L149.698 127.338C149.384 131.446 148.036 141.662 142.244 148.779Z" fill="#F2F375"/>
<path d="M154.682 159.825C153.043 158.972 151.022 159.646 150.147 161.262C149.99 161.576 146.038 168.783 134.431 168.783C122.824 168.783 118.872 161.554 118.738 161.284C118.715 161.24 118.693 161.217 118.67 161.195C118.648 161.172 118.626 161.127 118.626 161.105C118.468 160.858 118.289 160.633 118.109 160.431C118.064 160.386 118.019 160.364 117.997 160.319C117.009 159.399 115.527 159.129 114.248 159.78C114.158 159.825 114.09 159.892 114.023 159.96C113.866 160.05 113.709 160.162 113.552 160.297C113.462 160.386 113.372 160.476 113.282 160.566C113.103 160.768 112.923 160.993 112.788 161.24C112.788 161.262 112.766 161.262 112.766 161.262C112.609 161.576 108.657 168.783 97.05 168.783C85.4428 168.783 81.4914 161.554 81.3567 161.284C81.3343 161.24 81.3118 161.217 81.2894 161.195C81.2669 161.172 81.2445 161.127 81.222 161.105C81.0648 160.858 80.8852 160.633 80.7056 160.454C80.6607 160.409 80.6158 160.364 80.5709 160.341C79.5831 159.443 78.1013 159.174 76.8216 159.803C76.7318 159.848 76.6644 159.915 76.5971 159.982C76.4399 160.072 76.2828 160.184 76.1256 160.319C76.0358 160.409 75.946 160.499 75.8562 160.588C75.6766 160.791 75.497 161.015 75.3623 161.262C75.3623 161.284 75.3398 161.284 75.3398 161.284C75.1827 161.599 71.2313 168.806 59.6241 168.806C48.0168 168.806 44.0654 161.576 43.9307 161.307C43.9083 161.262 43.8858 161.24 43.8634 161.217C43.8409 161.195 43.8185 161.15 43.8185 161.127C43.6613 160.88 43.4817 160.656 43.3021 160.454C43.2572 160.409 43.2123 160.386 43.1899 160.341C42.202 159.421 40.7202 159.152 39.4405 159.803C39.3507 159.848 39.2834 159.915 39.1936 159.982C39.0364 160.072 38.8792 160.184 38.7445 160.319C38.6547 160.409 38.5649 160.499 38.4751 160.588C38.2955 160.791 38.1159 161.015 37.9812 161.262C37.9812 161.284 37.9588 161.284 37.9588 161.284C37.8016 161.599 33.8502 168.806 22.243 168.806C10.6358 168.806 6.68438 161.576 6.54967 161.307C5.71898 159.646 3.69839 158.972 2.03701 159.803C0.375625 160.633 -0.297908 162.654 0.532782 164.315C0.757293 164.764 6.32516 175.541 22.2654 175.541C31.9868 175.541 37.824 171.545 40.9672 168.312C44.1104 171.545 49.9476 175.541 59.669 175.541C69.3903 175.541 75.2276 171.545 78.3707 168.312C81.5139 171.545 87.3512 175.541 97.0725 175.541C106.794 175.541 112.631 171.545 115.774 168.312C118.917 171.545 124.755 175.541 134.476 175.541C150.416 175.541 155.984 164.787 156.209 164.315C156.994 162.654 156.343 160.656 154.682 159.825Z" fill="#F2F375"/>
<path d="M156.164 183.017C156.994 181.355 156.321 179.38 154.682 178.527C153.043 177.696 151.022 178.325 150.147 179.964C149.99 180.278 146.038 187.485 134.431 187.485C122.824 187.485 118.872 180.255 118.738 179.986C118.715 179.941 118.693 179.919 118.67 179.896C118.648 179.874 118.626 179.851 118.626 179.806C118.468 179.559 118.289 179.335 118.087 179.133C118.042 179.088 118.019 179.065 117.974 179.021C116.987 178.1 115.505 177.831 114.203 178.482C114.113 178.527 114.045 178.594 113.978 178.639C113.821 178.729 113.664 178.841 113.507 178.976C113.417 179.065 113.327 179.155 113.237 179.245C113.058 179.447 112.878 179.672 112.743 179.919H112.721C112.564 180.255 108.612 187.462 97.0051 187.462C85.3979 187.462 81.4465 180.233 81.3118 179.964C81.2893 179.919 81.2669 179.896 81.2444 179.874C81.222 179.851 81.1995 179.829 81.1995 179.784C81.0424 179.537 80.8628 179.312 80.6832 179.11C80.6383 179.065 80.5934 179.043 80.5709 178.998C79.5831 178.078 78.1013 177.808 76.8216 178.459C76.7318 178.504 76.6644 178.572 76.5971 178.616C76.4399 178.706 76.2827 178.818 76.1256 178.953C76.0358 179.043 75.946 179.133 75.8562 179.223C75.6766 179.425 75.497 179.649 75.3622 179.896C75.3622 179.919 75.3398 179.919 75.3398 179.919C75.1826 180.233 71.2312 187.44 59.624 187.44C48.0168 187.44 44.0654 180.21 43.9307 179.941C43.9083 179.896 43.8858 179.874 43.8634 179.851C43.8409 179.829 43.8185 179.806 43.8185 179.761C43.6613 179.514 43.4817 179.29 43.2796 179.088C43.2347 179.043 43.2123 179.021 43.1674 178.976C42.1795 178.055 40.6978 177.786 39.3956 178.437C39.3058 178.482 39.2384 178.549 39.1711 178.594C39.0139 178.684 38.8343 178.796 38.6996 178.931C38.6098 179.021 38.52 179.11 38.4302 179.2C38.2506 179.402 38.071 179.627 37.9363 179.874H37.9138C37.7567 180.21 33.8053 187.417 22.1981 187.417C10.5909 187.417 6.63946 180.188 6.50475 179.919C5.67406 178.257 3.65346 177.584 1.99208 178.414C0.330703 179.245 -0.34283 181.266 0.487861 182.927C0.712372 183.376 6.28024 194.153 22.2205 194.153C31.9418 194.153 37.7791 190.156 40.9223 186.923C44.0654 190.156 49.9027 194.153 59.624 194.153C69.3454 194.153 75.1826 190.156 78.3258 186.923C81.4689 190.156 87.3062 194.153 97.0275 194.153C106.749 194.153 112.586 190.156 115.729 186.923C118.872 190.156 124.71 194.153 134.431 194.153C150.371 194.242 155.939 183.466 156.164 183.017Z" fill="#F2F375"/>
</g>
<defs>
<clipPath id="clip0_434_7219">
<rect width="156.417" height="193.73" fill="white" transform="translate(0.128662 0.421875)"/>
</clipPath>
</defs>
</svg>
