<svg width="763" height="610" viewBox="0 0 763 610" fill="none" xmlns="http://www.w3.org/2000/svg">
<path d="M494.573 530.849C495.487 530.849 496.478 530.62 497.393 530.163C500.442 528.638 501.737 524.827 500.213 521.779L475.061 471.475C473.537 468.426 469.802 467.13 466.677 468.655C463.628 470.179 462.333 473.99 463.857 477.039L489.009 527.343C490.076 529.553 492.286 530.772 494.573 530.772V530.849Z" fill="#F2F375"/>
<path d="M503.186 555.849L528.338 606.153C529.405 608.363 531.615 609.583 533.902 609.583C534.816 609.583 535.807 609.354 536.722 608.897C539.77 607.373 541.066 603.562 539.542 600.513L514.39 550.209C512.865 547.16 509.131 545.865 506.006 547.389C502.957 548.913 501.661 552.724 503.186 555.773V555.849Z" fill="#F2F375"/>
<path d="M409.056 530.849C409.971 530.849 410.961 530.62 411.876 530.163C414.925 528.638 416.221 524.827 414.696 521.779L389.544 471.475C388.02 468.426 384.285 467.13 381.16 468.655C378.111 470.179 376.816 473.99 378.34 477.039L403.492 527.343C404.559 529.553 406.769 530.772 409.056 530.772V530.849Z" fill="#F2F375"/>
<path d="M417.669 555.849L442.821 606.153C443.888 608.363 446.098 609.583 448.385 609.583C449.299 609.583 450.29 609.354 451.205 608.897C454.254 607.373 455.549 603.562 454.025 600.513L428.873 550.209C427.349 547.16 423.614 545.865 420.489 547.389C417.44 548.913 416.145 552.724 417.669 555.773V555.849Z" fill="#F2F375"/>
<path d="M323.464 530.849C324.378 530.849 325.369 530.62 326.284 530.163C329.332 528.638 330.628 524.827 329.104 521.779L303.952 471.475C302.427 468.426 298.693 467.13 295.568 468.655C292.519 470.179 291.223 473.99 292.748 477.039L317.9 527.343C318.967 529.553 321.177 530.772 323.464 530.772V530.849Z" fill="#F2F375"/>
<path d="M332.075 555.849L357.227 606.153C358.294 608.363 360.504 609.583 362.791 609.583C363.706 609.583 364.696 609.354 365.611 608.897C368.66 607.373 369.955 603.562 368.431 600.513L343.279 550.209C341.755 547.16 338.02 545.865 334.895 547.389C331.846 548.913 330.551 552.724 332.075 555.773V555.849Z" fill="#F2F375"/>
<path d="M207.154 477.115L232.306 527.419C233.373 529.629 235.584 530.849 237.87 530.849C238.785 530.849 239.776 530.62 240.69 530.163C243.739 528.638 245.035 524.827 243.51 521.779L218.358 471.475C216.834 468.426 213.099 467.13 209.974 468.655C206.926 470.179 205.63 473.99 207.154 477.039V477.115Z" fill="#F2F375"/>
<path d="M246.559 555.849L271.711 606.153C272.778 608.363 274.988 609.583 277.275 609.583C278.189 609.583 279.18 609.354 280.095 608.897C283.143 607.373 284.439 603.562 282.915 600.513L257.763 550.209C256.238 547.16 252.504 545.865 249.379 547.389C246.33 548.913 245.034 552.724 246.559 555.773V555.849Z" fill="#F2F375"/>
<path d="M762.182 297.016C762.182 354.104 715.766 400.52 658.678 400.52C640.995 400.52 623.694 395.947 608.374 387.411C585.356 410.048 554.03 423.005 521.638 423.005C489.245 423.005 455.633 409.209 432.386 384.896C402.585 417.288 359.903 437.715 312.495 437.715C275.224 437.715 240.926 425.139 213.487 404.026C192.756 414.926 169.433 420.718 145.805 420.718C65.3952 420.642 0 355.247 0 274.837C0 253.267 4.72553 232.612 13.262 214.014C31.1733 174.991 65.9288 144.884 109.145 133.757C111.355 133.147 113.641 132.613 115.928 132.156C148.092 55.1755 224.082 0.984375 312.571 0.984375C373.469 0.984375 429.261 26.4413 468.59 68.7424C484.214 61.0444 501.668 56.9286 519.275 56.9286C582.46 56.9286 633.907 108.376 633.907 171.561C633.907 180.326 632.916 188.939 630.935 197.323C639.852 194.807 649.151 193.512 658.678 193.512C715.766 193.512 762.182 239.929 762.182 296.94V297.016Z" fill="#F2F375"/>
</svg>
