<svg width="162" height="336" viewBox="0 0 162 336" fill="none" xmlns="http://www.w3.org/2000/svg">
<path d="M50.6785 197.134L52.7225 200.935C47.3794 205.92 47.0925 209.542 50.2123 216.714C53.7983 223.993 59.3207 230.125 66.2058 234.428C81.7332 245.401 93.7462 258.849 97.1888 278.644C100.058 295.211 104.146 311.599 107.409 328.13C107.445 330.64 107.086 333.115 106.297 335.517L104.217 335.732C102.962 333.617 101.851 331.393 100.846 329.134C97.1888 319.345 97.1171 309.089 96.364 298.797C95.3599 275.058 83.6696 253.004 64.5921 238.839C59.2849 234.895 54.1928 230.663 49.3517 226.109C44.152 221.555 41.8211 214.526 43.2555 207.784C43.9369 202.585 40.8529 197.6 35.9043 195.879C21.9189 189.604 9.54725 181.32 3.77381 166.187C-0.170778 155.824 1.87323 145.711 5.53094 135.742C5.9254 134.164 6.60674 132.694 7.50323 131.331C12.6671 125.127 11.0892 119.605 7.64667 112.828C2.48285 103.898 -0.170778 93.7142 0.0085213 83.3866C0.151961 74.4216 0.797438 65.4925 2.01667 56.5992C5.3875 39.2789 12.9181 24.3254 30.2025 16.5438C39.5261 12.3482 48.4911 6.89746 58.2449 4.20796C81.8049 -2.31853 105.401 -1.70891 127.777 9.26421C140.292 15.5397 149.759 26.5845 154.063 39.8885C159.011 51.6864 161.557 64.345 161.593 77.1469C161.091 89.16 159.083 101.065 151.947 111.393C150.118 114.011 148.468 116.808 147.034 119.677C146.711 120.86 146.926 122.079 147.608 123.083C156.393 135.599 158.545 151.592 153.381 166.008C150.01 176.228 141.87 184.189 131.578 187.308C120.605 191.253 109.309 191.683 98.157 193.692C96.3998 193.548 94.822 192.508 93.9972 190.966C93.0649 188.671 92.7063 186.161 92.9214 183.687C93.9255 170.562 97.2605 157.688 102.783 145.711C107.014 137.033 110.816 128.14 115.441 119.677C118.633 113.867 121.717 113.043 126.558 114.656C127.921 114.764 128.925 115.911 128.817 117.274C128.817 117.74 128.602 118.206 128.315 118.601C123.044 130.865 117.88 143.129 112.788 155.429C108.234 166.51 103.823 177.626 99.3045 188.779C104.755 190.643 108.556 189.639 110.457 185.515C116.768 171.674 122.578 157.617 129.068 143.846C132.798 135.383 137.316 127.315 142.516 119.677C150.692 108.883 155.927 96.1527 157.648 82.7411C158.904 71.6604 157.505 60.4362 153.56 50.0369C151.194 43.2594 148.433 36.6611 145.241 30.2064C142.587 25.8673 139.611 21.7434 136.312 17.8706C134.77 19.7712 133.838 20.8828 132.941 21.9945C131.399 23.3571 131.256 25.7597 132.618 27.3017C132.977 27.6962 133.371 27.9831 133.838 28.2341C139.288 32.358 143.161 38.239 144.775 44.8731C147.213 53.587 148.935 62.4803 149.867 71.4452C150.226 78.0793 147.679 84.8568 146.317 91.5626C145.886 93.6783 145.062 95.6865 144.38 97.8381C146.245 98.627 148.074 99.4876 149.831 100.492C150.584 101.209 151.194 102.07 151.66 103.002C150.728 103.396 149.723 103.576 148.719 103.576C146.783 103.074 144.847 102.464 142.982 101.711C139.145 107.018 136.85 113.76 128.961 117.418C129.463 116.162 130.036 114.907 130.718 113.724C141.763 98.4118 148.719 81.9163 145.313 62.4803C143.484 52.1168 141.691 41.4664 133.658 33.7924C129.714 30.4215 125.267 27.6603 120.498 25.6163C104.719 17.763 87.6142 20.058 71.0469 20.6318C60.2531 20.9904 49.029 22.2813 39.6337 29.2023C37.4104 30.6726 34.9719 31.7483 32.4258 32.4297C28.1585 33.8282 24.7518 37.1273 23.2457 41.3588C17.8309 53.7304 14.8904 67.0703 14.6393 80.5895C14.6035 90.9171 17.5799 101.03 23.2099 109.672C25.0746 112.612 28.3378 115.589 26.2938 121.29L16.5041 105.871C14.4242 107.377 12.3802 108.847 9.90584 110.604C11.914 113.616 13.7787 116.736 15.4641 119.928C22.3851 134.81 28.9116 149.871 35.976 164.681C39.5261 171.889 43.4348 178.917 47.738 185.731C49.7103 188.133 51.9695 190.285 54.4438 192.114C55.5913 191.863 57.8864 191.396 61.042 190.715C58.8546 187.846 56.8106 184.87 54.91 181.786C49.6386 171.96 44.3672 162.099 39.4902 152.058C35.1871 143.129 31.4218 133.913 27.4055 124.841C25.9711 122.546 26.6883 119.533 28.9833 118.099C29.1985 117.955 29.4495 117.848 29.6646 117.74C32.39 116.127 35.8684 117.023 37.5179 119.677C40.3867 124.733 43.1838 129.897 45.6581 135.168C49.6027 143.524 53.3321 151.951 56.9899 160.414C59.7152 166.115 61.9744 172.032 63.7674 178.057C64.5563 182.467 64.5921 186.986 63.9108 191.432C63.337 193.01 62.0461 194.229 60.4324 194.767C57.205 195.736 53.9418 196.489 50.6068 197.062L50.6785 197.134ZM14.4242 172.427C14.1014 179.599 20.6638 181.105 24.2857 184.834C23.5326 182.037 22.7795 179.24 22.0265 176.407L23.2099 176.12C25.9711 181.033 29.2702 185.659 33.0713 189.855C37.5538 193.943 43.7934 193.297 48.5986 192.436C45.4071 188.85 42.5742 185.013 40.1357 180.89C34.183 168.661 28.8757 156.11 23.2816 143.703C20.5921 137.75 17.8667 131.833 15.1772 125.881L13.6711 125.629C10.8382 132.586 8.00527 139.579 5.17234 146.536L6.21228 146.966C7.28807 143.595 8.36387 140.189 9.54725 136.495C13.3843 138.467 11.1609 140.404 10.4796 142.161C6.92948 151.413 5.24406 160.665 10.0493 170.311C11.0534 163.426 7.0012 156.828 11.1251 150.409C11.6988 151.951 12.0216 153.6 12.1292 155.25C12.9181 160.987 13.8146 166.725 14.6393 172.427L14.5676 172.319L14.4242 172.427ZM152.772 149.046C152.126 147.253 151.552 145.783 151.05 144.312C150.369 143.093 150.01 141.695 150.01 140.296C151.696 133.662 146.568 130.004 144.524 124.41C135.702 133.913 132.403 145.101 127.992 155.716C123.582 166.33 118.669 176.766 113.864 187.559L123.761 186.089C124.012 183.794 124.263 181.499 124.514 179.204H125.518L127.598 184.547L128.996 184.655C129.391 182.683 129.785 180.746 130.287 178.487C131.04 178.917 131.507 179.168 131.973 179.455C133.049 180.208 134.124 180.997 135.164 181.786C135.236 180.352 135.415 178.917 135.415 177.483C135.415 175.905 135.2 174.363 135.093 172.785L136.491 172.678C137.352 174.758 138.212 176.873 139.001 178.774C146.066 177.59 139.503 171.423 143.125 168.625C144.093 170.024 144.918 171.207 145.815 172.498C150.477 165.613 154.959 159.087 148.755 151.162C148.576 150.373 148.576 149.584 148.755 148.795L152.7 149.082L152.772 149.046ZM41.2832 13.2088C36.478 16.221 31.8879 18.9822 27.4413 21.9227C20.7714 26.3335 14.209 31.2104 11.2685 38.9203C7.86183 47.9211 4.27585 56.9578 4.81374 66.9627C4.99304 70.7639 4.63444 74.6009 3.80967 78.3303C2.41113 86.1836 3.30763 94.2521 6.4633 101.568C8.50731 106.946 9.79826 107.198 14.9262 103.54C10.5155 91.0964 9.65483 77.649 12.5236 64.7753C14.6035 56.2765 17.1137 47.8494 20.0542 39.6017C22.8154 31.6766 30.5611 29.5609 37.1593 26.0466C46.5905 21.0262 45.5864 21.9586 41.2832 13.1729V13.2088ZM112.142 8.54701L113.792 8.76217C113.433 10.2324 113.326 11.7385 113.433 13.2447C113.756 15.4321 114.76 17.4403 116.302 19.0181C119.027 20.6676 122.04 21.8869 125.159 22.5682C126.522 22.8192 127.921 22.4248 128.961 21.4924C132.869 16.5438 132.367 15.1452 126.773 12.4557C105.006 1.94879 82.3786 1.0523 59.249 6.71816C52.866 8.26013 52.9377 8.36771 55.5555 14.7149C55.5913 15.5755 55.4479 16.4362 55.1251 17.2251C54.2286 17.0817 53.4039 16.7231 52.6867 16.1493C52.0053 14.8942 52.077 13.2447 51.3599 12.0254C50.7861 11.0572 49.8896 10.34 48.8138 10.0173C47.4511 10.6269 46.4112 11.7744 45.9092 13.1729C46.2678 15.6831 46.8774 18.1575 47.7739 20.5601C50.2482 20.1656 52.2564 19.8429 54.2645 19.556C57.6353 19.0898 59.3207 17.763 57.7071 14.0694C57.3485 12.635 57.1692 11.1289 57.2767 9.65867L58.496 9.40765L60.5041 11.882L63.4446 7.43535L64.9866 13.926L69.0029 6.46714L70.258 7.04089C70.4373 9.58695 70.6166 12.0971 70.8318 15.6473C72.7323 12.5992 74.0233 10.4834 75.9239 7.43535C76.4618 10.3041 76.7845 12.0254 77.1431 13.7467L78.1472 14.0336L82.02 5.9651L83.1317 6.03682C83.4903 8.69045 83.8848 11.3799 84.3151 14.6432C86.1439 11.9537 87.5425 9.87383 89.5865 6.82574C89.9451 10.5552 90.1602 12.9578 90.5188 16.5796C92.9573 13.1012 94.5351 10.842 96.1488 8.54701L97.0453 8.86975V15.6831C99.7348 12.3123 101.707 9.76624 103.715 7.25605L104.827 7.97325C104.719 10.0531 104.576 12.133 104.468 14.2129L105.616 14.679C106.261 13.4957 106.907 12.2764 107.552 11.0931L108.628 11.9537C107.839 13.5674 107.05 15.1811 106.082 17.1534L110.134 18.1575C110.851 14.679 111.461 11.631 112.106 8.61873L112.142 8.54701ZM123.904 118.063C114.366 119.533 93.3159 173.753 97.1888 187.129C103.213 162.673 116.661 141.802 123.904 118.063ZM60.54 183.579L61.3648 183.185C61.042 181.499 60.5758 179.85 60.0379 178.236C53.4756 162.637 46.8774 147.038 40.2074 131.475C39.0599 128.642 37.5897 125.916 35.8684 123.37C34.7209 122.438 33.3582 121.757 31.8879 121.398C31.35 122.725 31.1349 124.159 31.2066 125.594C32.7844 130.757 34.7209 135.814 37.0159 140.691C43.2914 153.098 49.9613 165.291 56.5595 177.519C57.7071 179.634 59.1773 181.571 60.5041 183.615L60.54 183.579ZM101.133 310.057L100.093 310.272L104.468 331.107L104.97 331.035L101.133 310.057Z" fill="white"/>
<path d="M14.4957 172.535C14.3164 170.562 14.173 168.626 13.9937 166.654L15.177 166.367C17.4003 171.028 19.6595 175.69 21.8828 180.388L20.5201 181.213C18.4761 178.308 16.4321 175.368 14.3881 172.463L14.4598 172.57L14.4957 172.535Z" fill="white"/>
</svg>
