<svg width="689" height="959" viewBox="0 0 689 959" fill="none" xmlns="http://www.w3.org/2000/svg">
<path d="M508.926 869.046V870.681V872.316C508.926 872.316 508.926 873.951 507.291 873.951C507.291 873.951 505.656 873.951 505.656 875.586L373.205 952.441C371.57 952.441 369.935 954.076 369.935 954.076C368.299 954.076 366.664 954.076 366.664 952.441L186.792 847.788C183.522 846.153 183.522 842.883 183.522 841.247V417.731L13.4614 319.619C10.191 317.984 10.191 314.714 10.191 313.079V107.044C10.191 105.409 10.191 105.408 10.191 103.773C10.191 103.773 10.191 103.773 10.191 102.138C10.191 100.503 11.8262 100.503 13.4614 98.8677L145.913 22.0134C145.913 22.0134 145.912 22.0134 147.548 22.0134H149.183H150.818H152.453H154.088C154.088 22.0134 154.088 22.0134 155.724 22.0134L221.132 57.9878L320.879 0.755859C320.879 0.755859 320.879 0.755859 322.514 0.755859H324.149H325.784H327.419H329.055C329.055 0.755859 329.055 0.755859 330.69 0.755859L508.926 103.773C510.562 103.773 510.562 105.409 512.197 107.044C512.197 108.679 513.832 108.679 513.832 110.314V228.048L683.893 326.16C685.528 326.16 685.528 327.795 687.163 329.431C687.163 331.066 688.798 331.066 688.798 332.701V537.101C688.798 537.101 688.798 537.101 688.798 538.736V540.371V542.006C688.798 542.006 688.798 543.641 687.163 543.641C687.163 543.641 685.528 543.641 685.528 545.277L553.077 622.131C551.441 622.131 549.806 623.766 549.806 623.766C548.171 623.766 546.536 623.766 546.536 622.131L517.102 605.779L508.926 869.046ZM376.475 528.925V929.548L492.574 862.505V595.968L376.475 528.925ZM149.183 40.0006L33.0838 107.044L181.887 193.709V85.7861C181.887 84.1509 181.887 84.1509 181.887 82.5157C181.887 82.5157 181.887 82.5157 181.887 80.8805C181.887 79.2453 183.522 79.2453 185.157 77.6101L199.874 69.4341L149.183 40.0006ZM492.574 229.684V126.666L376.475 193.709V296.727L492.574 229.684ZM368.299 178.992L484.398 111.949L322.514 18.743L222.767 75.9749L208.05 84.1509L368.299 178.992ZM500.75 244.4L384.651 311.443L541.63 403.014L657.729 335.971L500.75 244.4ZM665.905 349.053L549.806 416.096V602.509L665.905 533.83V349.053ZM533.454 416.096L363.394 317.984C361.759 317.984 361.759 316.349 360.123 314.714C360.123 313.079 358.488 313.079 358.488 311.443V193.709L196.604 100.503V208.426C196.604 211.696 194.968 213.332 193.333 214.967C190.063 216.602 188.428 216.602 185.157 214.967L23.2725 121.76V308.173L193.333 406.285C196.604 407.92 196.604 411.19 196.604 412.826V836.342L360.123 929.548V515.843C360.123 512.573 361.759 510.937 363.394 509.302C365.029 509.302 366.664 507.667 366.664 507.667C366.664 507.667 369.935 507.667 369.935 509.302L500.75 584.521C500.75 584.521 502.386 584.521 502.386 586.157L531.819 602.509V416.096H533.454Z" fill="black"/>
<path d="M499.721 873.649V875.285V876.92C499.721 876.92 499.721 878.555 498.085 878.555C498.085 878.555 496.45 878.555 496.45 880.19L363.999 957.044C362.364 957.044 360.729 958.68 360.729 958.68C359.094 958.68 357.458 958.68 357.458 957.044L177.587 852.392C174.316 850.757 174.316 847.486 174.316 845.851V422.335L4.25562 324.223C0.985229 322.588 0.985291 319.317 0.985291 317.682V111.647C0.985291 110.012 0.985291 110.012 0.985291 108.377C0.985291 108.377 0.985291 108.377 0.985291 106.742C0.985291 105.106 2.62042 105.106 4.25562 103.471L136.707 26.6169C136.707 26.6169 136.707 26.6169 138.342 26.6169H139.977H141.612H143.247H144.883C144.883 26.6169 144.883 26.6169 146.518 26.6169L211.926 62.5913L311.673 5.35938C311.673 5.35938 311.673 5.35938 313.308 5.35938H314.943H316.578H318.214H319.849C319.849 5.35938 319.849 5.35938 321.484 5.35938L499.721 108.377C501.356 108.377 501.356 110.012 502.991 111.647C502.991 113.282 504.626 113.282 504.626 114.918V232.652L674.687 330.764C676.322 330.764 676.322 332.399 677.957 334.034C677.957 335.669 679.592 335.669 679.592 337.304V541.704C679.592 541.704 679.592 541.704 679.592 543.339V544.975V546.61C679.592 546.61 679.592 548.245 677.957 548.245C677.957 548.245 676.322 548.245 676.322 549.88L543.871 626.734C542.236 626.734 540.601 628.37 540.601 628.37C538.965 628.37 537.33 628.37 537.33 626.734L507.897 610.383L499.721 873.649ZM367.27 533.528V934.152L483.369 867.109V600.571L367.27 533.528ZM139.977 44.6041L23.8781 111.647L172.681 198.313V90.3896C172.681 88.7544 172.681 88.7545 172.681 87.1193C172.681 87.1193 172.681 87.1192 172.681 85.4841C172.681 83.8489 174.316 83.8488 175.951 82.2136L190.668 74.0377L139.977 44.6041ZM483.369 234.287V131.27L367.27 198.313V301.33L483.369 234.287ZM359.094 183.596L475.193 116.553L313.308 23.3465L213.561 80.5784L198.844 88.7544L359.094 183.596ZM491.545 249.004L375.446 316.047L532.425 407.618L648.524 340.575L491.545 249.004ZM656.7 353.656L540.601 420.7V607.112L656.7 538.434V353.656ZM524.249 420.7L354.188 322.588C352.553 322.588 352.553 320.953 350.918 319.317C350.918 317.682 349.282 317.682 349.282 316.047V198.313L187.398 105.106V213.029C187.398 216.3 185.763 217.935 184.127 219.57C180.857 221.205 179.222 221.205 175.951 219.57L14.0668 126.364V312.777L184.127 410.888C187.398 412.524 187.398 415.794 187.398 417.429V840.945L350.918 934.152V520.447C350.918 517.176 352.553 515.541 354.188 513.906C355.823 513.906 357.458 512.271 357.458 512.271C357.458 512.271 360.729 512.271 360.729 513.906L491.545 589.125C491.545 589.125 493.18 589.125 493.18 590.76L522.613 607.112V420.7H524.249Z" fill="white"/>
</svg>
