<?xml version="1.0" encoding="UTF-8"?>
<svg width="24" height="24" viewBox="0 0 24 24" fill="none" xmlns="http://www.w3.org/2000/svg">
  <path d="M3 18V12C3 7.02944 7.02944 3 12 3C16.9706 3 21 7.02944 21 12V18" stroke="currentColor" stroke-width="2" stroke-linecap="round"/>
  <path d="M21 19C21 20.1046 20.1046 21 19 21C17.8954 21 17 20.1046 17 19V15C17 13.8954 17.8954 13 19 13C20.1046 13 21 13.8954 21 15V19Z" stroke="currentColor" stroke-width="2"/>
  <path d="M3 19C3 20.1046 3.89543 21 5 21C6.10457 21 7 20.1046 7 19V15C7 13.8954 6.10457 13 5 13C3.89543 13 3 13.8954 3 15V19Z" stroke="currentColor" stroke-width="2"/>
</svg> 