<svg width="230" height="252" viewBox="0 0 230 252" fill="none" xmlns="http://www.w3.org/2000/svg">
<path d="M62.89 52.3414C61.9541 52.5124 61.1091 52.6086 60.2961 52.8224C57.1781 53.6348 54.0708 54.4899 50.9582 55.3237C43.3637 57.3547 35.657 58.1724 27.7844 57.8838C20.0937 57.6005 12.5741 58.8138 5.26846 61.2937C3.87792 61.764 2.61575 62.5711 1.16103 62.8757C0.792008 62.9559 0.417634 63.2391 0.112786 62.8864C-0.122535 62.6138 0.0967413 62.2718 0.193009 61.9511C0.90432 59.6262 2.01675 57.4509 2.80828 55.1634C4.76572 49.4873 8.20462 44.6985 11.6275 39.883C13.3122 37.5153 14.4995 34.8163 16.4248 32.6036C16.5799 32.4219 16.7029 32.2027 16.8794 32.0477C21.4682 28.0125 24.9231 22.9779 28.8647 18.3708C30.7099 16.2169 32.9508 14.544 35.5607 13.3682C38.4434 12.0694 40.9998 10.1881 43.6258 8.47247C48.1718 5.51153 53.1884 4.03641 58.4403 2.9942C67.8104 1.12892 77.2767 0.840306 86.743 1.37477C93.6529 1.76493 100.483 3.01558 106.665 6.47892C107.788 7.10958 108.906 7.79905 109.858 8.64885C110.612 9.32227 111.265 9.35434 112.179 9.17262C114.484 8.71298 116.848 8.54195 119.169 8.83591C120.159 8.95884 120.485 8.62212 120.913 7.9487C122.373 5.65049 124.074 3.52332 125.86 1.47632C127.502 -0.399654 128.684 -0.447756 130.636 1.0915C131.16 1.50304 131.732 1.95199 132.037 2.51853C133.053 4.41053 134.486 5.8429 136.267 7.02942C137.278 7.70284 137.23 8.46713 136.278 9.194C133.214 11.5296 131.005 14.6883 128.347 17.4087C125.341 20.4819 124.453 24.6614 122.41 28.2263C122.079 28.8035 122.218 29.2418 122.64 29.7549C125.983 33.7848 128.636 38.285 131.208 42.8065C132.62 45.2864 133.096 48.1458 133.631 50.9411C134.214 53.9662 135.535 56.7721 136.273 59.7544C136.797 61.8763 137.177 64.0141 137.054 66.2108C136.952 68.0226 137.102 69.8184 137.364 71.6089C137.471 72.3464 137.84 72.8649 138.482 73.3192C150.076 81.582 161.65 89.8609 173.582 97.648C184.674 104.885 194.627 113.559 203.436 123.484C209.939 130.812 215.432 138.914 219.646 147.717C222.678 154.05 224.39 160.966 225.861 167.877C226.203 169.496 226.882 171.035 227.283 172.644C228.085 175.894 228.128 179.256 228.636 182.553C229.315 186.952 229.455 191.383 229.348 195.835C229.257 199.544 228.54 203.087 226.984 206.422C225.122 210.41 224.294 214.739 222.737 218.817C220.737 224.076 217.94 228.806 214.004 232.905C208.228 238.929 201.729 243.926 194.311 247.758C189.043 250.478 183.374 251.424 177.556 251.601C175.149 251.676 172.753 251.04 170.362 250.719C168.159 250.425 165.934 250.067 163.746 250.035C160.302 249.976 157.109 249.1 153.954 247.94C149.445 246.283 144.841 244.738 141.118 241.58C138.572 239.42 136.321 236.914 133.936 234.567C131.989 232.649 129.903 230.885 127.684 229.303C125.336 227.63 123.822 225.385 122.555 222.879C120.143 218.111 117.811 213.312 114.842 208.833C112.725 205.637 111.495 201.997 110.666 198.245C110.254 196.374 109.457 194.643 108.537 192.564C106.858 195.493 103.916 196.695 101.825 198.87C99.6322 201.158 96.9527 202.553 93.792 202.922C91.9682 203.135 90.46 203.916 88.9946 204.99C85.0637 207.876 80.261 208.785 75.8594 210.613C72.5863 211.976 69.1795 212.237 65.7139 212.05C61.2642 211.81 56.884 211.12 52.5466 210.084C47.7653 208.94 42.9519 207.914 38.3738 206.054C38.3311 206.038 38.2776 206.032 38.2348 206.011C34.5392 204.039 30.5494 202.318 27.7309 199.239C24.4578 195.658 20.436 192.628 18.0988 188.325C15.7188 183.953 13.0394 179.87 9.95348 175.974C7.8142 173.27 7.28473 169.801 6.80874 166.428C6.07069 161.18 4.6962 156.012 4.34856 150.72C3.76026 141.859 5.4289 133.404 9.51493 125.462C10.8466 122.869 12.2104 120.277 13.3068 117.584C16.2965 110.267 21.6233 104.633 26.8966 99.059C37.2614 88.1185 46.6154 76.4244 54.841 63.8057C57.2958 60.043 59.7025 56.2323 62.6761 52.8384C62.7617 52.7422 62.7831 52.5926 62.8954 52.336L62.89 52.3414ZM100.723 170.875L100.75 170.907C100.894 169.523 100.45 168.278 99.9531 166.792C98.124 170.202 96.5516 173.467 94.4605 176.439C94.2947 175.862 94.6156 175.456 94.8349 175.023C96.3003 172.158 97.7657 169.293 99.2471 166.434C99.6108 165.734 99.6643 165.082 99.5359 164.264C98.9423 160.549 98.5412 156.803 97.9582 153.083C97.6962 151.426 97.8192 149.732 97.4501 148.07C96.5784 150.191 96.1987 152.473 94.7653 154.323C95.9152 149.764 98.4288 145.429 96.6586 140.48C95.3001 143.949 94.4123 147.626 92.733 151.282C92.4816 150.624 92.61 150.346 92.7223 150.015C93.5887 147.466 94.407 144.9 95.2681 142.345C96.0275 140.101 96.9207 137.877 96.5356 135.435C95.9794 131.891 95.6799 128.321 95.3269 124.644C94.6584 125.611 94.8776 126.798 93.9577 127.578C95.3322 123.527 95.2788 119.422 94.6637 115.221C93.1823 120.117 91.7222 124.959 90.2568 129.801C89.9519 129.529 89.8931 129.304 89.9412 129.101C90.1659 128.187 90.4333 127.284 90.6686 126.37C92.3426 119.812 95.2734 113.543 94.3214 106.424C93.7331 102.02 93.9685 97.5304 94.1663 93.057C94.3482 89.0057 94.8776 85.1095 96.2521 81.3041C97.5731 77.659 99.6001 74.2331 102.322 71.7425C105.595 68.7441 109.623 66.3871 114.415 66.2642C115.212 66.2428 115.425 65.9168 115.538 65.1525C115.768 63.5919 116.163 62.058 116.538 60.2942C117.057 60.9249 116.966 61.4433 116.891 61.9297C116.709 63.0948 116.5 64.2653 116.254 65.4198C116.174 65.7992 115.891 66.168 116.533 66.2642C117.019 66.339 117.394 66.168 117.49 65.6442C117.613 64.9922 117.624 64.3081 117.837 63.6934C118.169 62.7154 118.03 61.5395 119.191 60.492C118.784 62.2931 118.42 63.7415 118.148 65.206C118.046 65.7404 117.773 66.4246 118.806 66.5902C119.779 66.7452 119.731 66.2589 119.848 65.5694C120.057 64.3615 120.18 63.1109 120.79 61.6785C121.169 63.191 120.645 64.2867 120.453 65.4198C120.314 66.2589 120.244 66.8468 121.448 67.1514C122.961 67.5362 123.073 66.7559 123.261 65.7244C123.801 62.7742 124.416 59.8399 124.464 56.6225C125.111 57.1462 124.972 57.654 124.977 58.0922C124.993 60.957 124.336 63.7415 123.774 66.5154C123.539 67.6859 124.127 67.563 124.796 67.7607C125.828 68.06 125.747 67.3545 125.849 66.7452C126.486 62.7849 126.726 58.8031 126.71 54.7946C126.705 53.6669 126.71 52.5391 126.71 51.3419C127.534 51.684 127.266 52.2933 127.272 52.769C127.32 57.5792 127.4 62.3947 126.448 67.1514C126.379 67.4988 126.213 67.9585 126.822 68.2204C128.379 68.8884 128.956 68.5571 129.325 66.8895C129.545 65.9008 129.566 64.912 129.652 63.9233C129.678 63.6133 129.566 63.2178 130.117 63.191C130.443 64.8693 129.962 66.4994 129.807 68.1402C129.775 68.4983 129.652 68.7869 130.101 68.9098C132.021 69.4122 133.722 70.4437 135.754 71.3951C134.882 68.8564 135.085 66.478 135.059 64.121C135.032 62.1061 134.663 60.1339 133.78 58.3434C132.636 56.0239 131.989 53.5653 131.304 51.1014C130.732 49.0491 130.358 46.9059 129.261 45.0513C126.726 40.7756 124.116 36.5373 121.239 32.486C119.41 29.9099 116.955 28.1996 113.746 27.6544C112.393 27.4246 111.061 27.0024 109.746 26.5802C108.237 26.0991 106.692 26.1953 105.194 26.3664C104.296 26.4679 103.306 26.6496 102.51 27.4246C96.4072 33.3679 90.2194 39.2042 82.6677 43.3517C81.8334 43.8113 80.8546 44.1801 80.2449 44.8589C78.0575 47.3174 75.8487 49.7813 73.9234 52.4483C69.8267 58.1243 66.6391 64.3722 62.9221 70.2941C62.751 70.572 62.7563 71.0904 61.7722 70.9836C67.1365 62.539 71.0995 53.4424 78.1912 46.1737C76.8649 46.5692 76.3996 46.8471 75.6295 47.5953C71.0835 52.01 67.2756 56.9859 64.0934 62.4642C60.9914 67.8035 57.8306 73.1107 54.611 78.3805C50.8833 84.4788 45.8774 89.5723 41.2993 95.0024C41.0319 95.3178 40.7003 95.7133 39.9516 95.7293C41.7325 93.6075 43.353 91.63 45.0217 89.6952C48.0755 86.157 51.1507 82.6242 53.5948 78.6371C57.1728 72.8061 60.5636 66.8575 64.1201 61.0104C65.8529 58.1671 67.5002 55.2435 69.7411 52.7422C70.9016 51.4488 72.0729 50.1715 73.2388 48.8834C71.522 49.4392 69.6127 49.8722 68.4735 51.048C66.2594 53.3355 64.0773 55.7085 62.291 58.3915C59.0821 63.2071 55.825 67.9852 52.6215 72.8061C48.0274 79.7167 42.3422 85.7722 37.2079 92.2553C32.5176 98.1825 26.9554 103.356 22.1046 109.16C20.5643 111.004 19.0668 112.854 18.0025 115.013C16.612 117.84 15.2429 120.683 13.8523 123.516C10.8948 129.534 7.74468 135.456 7.32752 142.383C7.14568 145.44 6.80339 148.508 7.29543 151.522C8.24741 157.364 9.37588 163.179 9.79304 169.095C9.93744 171.169 10.5846 173.061 11.8254 174.809C14.8738 179.09 18.1576 183.189 21.0991 187.556C23.5754 191.228 27.3191 193.857 30.0306 197.401C31.6672 199.539 34.5659 199.923 36.6357 201.543C38.0369 202.638 39.7109 203.248 41.3902 203.825C45.6474 205.279 50.0436 206.198 54.4292 207.176C58.2745 208.037 62.152 208.55 66.0722 208.726C68.6928 208.844 71.3455 208.828 73.8538 207.801C79.1004 205.658 84.7374 204.402 89.4278 200.966C90.3638 200.276 91.5136 200.036 92.6849 199.987C95.113 199.891 97.3271 199.063 99.1081 197.47C101.001 195.776 102.996 194.231 104.98 192.66C107.499 190.661 107.457 190.602 106.285 187.673C105.189 184.932 104.093 182.184 102.948 179.32C102.167 180.469 101.702 181.661 100.44 182.767C101.092 180.255 103.873 178.529 101.846 175.91C100.675 178 99.9103 180.351 98.2042 182.147C99.0385 180.036 99.9103 177.957 100.985 175.979C101.969 174.167 101.354 172.559 100.713 170.897L100.723 170.875ZM104.697 177.155L104.67 177.118C105.275 179.582 105.205 182.473 108.74 182.981C107.938 183.74 107.382 182.831 106.703 183.179C106.788 183.424 106.863 183.681 106.965 183.927C108.585 187.796 110.339 191.618 111.767 195.557C112.409 197.326 113.292 198.117 115.131 198.336C116.763 198.528 118.41 198.796 120.041 199.116C117.656 199.827 115.329 198.999 112.997 198.785C112.939 200.549 113.874 201.206 115.308 201.441C116.335 201.612 117.394 201.735 118.346 202.109C118.998 202.366 119.848 201.954 120.517 202.793C118.105 203.103 116.04 202.141 113.805 201.874C114.046 202.483 114.201 202.991 114.441 203.456C114.666 203.889 114.677 204.52 115.377 204.589C116.228 204.669 117.094 204.691 117.912 204.91C118.929 205.177 120.057 204.963 120.998 205.551C119.116 205.925 117.313 205.327 115.335 205.279C115.602 205.845 115.805 206.364 116.083 206.845C118.1 210.367 120.233 213.814 121.998 217.481C122.929 219.415 124.025 221.27 125.079 223.141C125.266 223.477 125.368 223.926 125.892 224.017C127.71 224.327 129.545 224.573 131.331 225.022C132.823 225.396 134.379 225.113 135.85 225.567C132.7 226.176 129.636 225.417 126.325 224.931C127.293 226.502 128.721 227.17 129.812 228.202C130.534 228.886 131.331 229.143 132.294 228.988C134.995 228.56 137.738 228.891 140.444 228.469C141.477 228.309 142.552 228.491 143.621 228.384C139.936 229.629 136.043 229.378 131.951 229.843C132.871 230.57 133.272 231.649 134.24 231.558C138.134 231.206 142.017 230.714 145.905 230.27C145.926 230.409 145.953 230.554 145.974 230.693C142.359 231.735 138.583 231.884 134.561 232.296C135.465 233.162 136.176 233.857 136.904 234.53C137.123 234.733 137.278 234.909 137.722 234.861C140.952 234.541 144.22 234.984 147.451 234.471C147.686 234.434 148.017 234.343 148.296 234.877C144.942 235.481 141.616 235.465 138.166 235.695C140.904 238.918 143.905 241.51 147.67 243.113C153.285 245.508 158.842 248.1 165.126 248.228C167.185 248.271 169.191 248.533 170.945 246.908C171.812 246.106 172.801 245.257 173.999 244.877C174.074 244.973 174.149 245.075 174.229 245.171C172.897 246.245 171.566 247.325 170.293 248.351C173.197 250.147 174.892 247.218 177.459 246.363C176.662 247.651 175.325 247.913 174.849 248.971C177.331 249.773 178.508 247.774 180.187 246.486C180.048 247.94 178.705 248.271 178.235 249.442C180.813 249.324 183.262 249.586 185.428 247.795C188.225 245.481 191.103 243.263 193.573 240.569C192.012 244.054 188.669 245.887 185.877 248.645C187.621 248.132 189.07 247.811 190.488 247.304C195.055 245.674 198.863 242.798 202.719 240.003C205.714 237.833 208.179 235.075 210.923 232.622C215.678 228.373 219.068 223.183 221.229 217.235C222.609 213.44 223.39 209.442 225.021 205.728C226.363 202.676 227.321 199.496 227.535 196.198C227.871 191.024 227.417 185.867 226.534 180.383C226.369 181.479 226.149 182.227 226.16 182.97C226.214 185.76 225.754 188.459 224.999 191.131C223.128 197.732 221.395 204.386 217.271 210.073C217.132 210.265 216.94 210.511 216.966 210.704C217.25 212.825 215.849 214.509 215.49 216.454C215.437 216.738 215.255 217.042 214.907 216.909C214.506 216.754 214.752 216.444 214.838 216.192C215.255 214.872 215.672 213.552 216.089 212.232C215.496 212.606 215.105 213.077 214.699 213.542C212.832 215.669 210.319 217.197 208.532 219.266C206.741 221.345 205.992 224.316 204.548 226.775C204.334 227.138 204.12 227.625 203.35 227.459C204.676 224.979 205.944 222.606 207.366 219.939C203.933 221.836 200.959 223.787 197.74 225.171C194.59 226.524 191.183 227.251 187.525 226.887C187.942 226.144 188.428 226.182 188.91 226.123C189.846 226.011 190.787 225.861 191.712 225.674C196.103 224.781 199.719 222.291 203.489 220.073C210.11 216.171 215.298 210.853 218.475 203.932C221.272 197.839 223.192 191.377 223.871 184.632C224.438 179.01 224.17 173.409 223.331 167.834C222.486 162.244 220.453 156.968 218.673 151.661C215.763 142.992 210.431 135.616 204.74 128.599C200.499 123.367 195.579 118.701 190.429 114.323C188.092 112.34 186.236 109.861 183.802 107.979C178.77 104.088 173.507 100.534 168.175 97.0708C160.04 91.7903 152.184 86.0929 144.295 80.4436C141.161 78.1988 137.797 76.2908 134.684 73.9979C132.834 72.635 130.748 71.6409 128.459 71.1866C125.977 70.6896 123.416 70.4331 121.014 69.6741C114.816 67.718 109.526 70.1177 104.258 72.8168C104.012 72.945 103.777 73.1481 103.611 73.3673C101.745 75.906 99.8675 78.4393 98.8353 81.4751C96.7067 87.7337 95.9205 94.1099 96.4821 100.732C96.8404 105.002 97.4073 109.225 98.1561 113.431C99.1883 119.219 100.333 124.991 101.445 130.769C102.723 137.38 103.943 144.008 105.333 150.598C107.285 159.865 110.564 168.7 114.399 177.337C118.383 186.321 123.111 194.883 129.475 202.43C134.139 207.956 139.498 212.67 146.135 215.765C147.306 216.31 148.467 216.898 149.451 217.732C151.189 219.207 153.125 220.217 155.323 220.842C158.864 221.858 162.324 223.263 165.971 223.777C171.325 224.525 176.678 225.412 182.326 225.423C181.481 226.326 180.561 226.369 179.652 226.411C173.667 226.721 167.8 225.888 162.035 224.375C156.863 223.018 151.563 221.906 147.311 218.272C146.68 217.732 145.825 217.432 145.038 217.085C139.69 214.701 134.968 211.436 130.914 207.208C130.235 206.497 129.63 205.642 128.379 206.267C127.94 206.487 127.421 206.107 126.956 205.786C127.218 205.402 127.507 205.471 127.78 205.471C128.127 205.471 128.555 205.963 128.801 205.471C129.042 204.99 128.459 204.782 128.208 204.488C126.999 203.071 125.63 201.767 124.555 200.255C120.442 194.488 116.795 188.443 113.784 182.013C109.853 173.617 106.692 164.948 104.446 155.948C103.076 150.459 102.274 144.863 101.178 139.32C100.183 134.291 99.2364 129.251 98.2417 124.222C97.6962 121.469 97.541 118.642 96.6105 115.964C96.5035 119.315 96.7923 122.65 97.2255 125.948C98.1133 132.661 98.8139 139.395 99.3648 146.135C100.007 153.986 100.852 161.789 102.729 169.459C102.969 170.437 103.392 170.902 104.205 171.308C105.114 171.768 106.221 171.971 107.013 173.227C105.606 172.644 104.494 172.179 103.365 171.709C103.199 173.168 103.82 173.922 105.146 174.36C106.542 174.82 107.863 175.498 109.222 176.081C107.339 176.23 105.868 175.076 104.018 174.713C104.002 175.648 104.216 176.434 104.708 177.155H104.697ZM79.5069 17.4942C73.8806 19.3168 68.2917 21.1233 62.9328 23.5658C62.6921 23.6727 62.4675 23.7421 62.3338 24.0842C61.3444 26.6496 59.9699 29.028 58.5901 31.3903C54.9907 37.5688 53.0707 44.1748 53.1242 51.3419C53.1295 52.2452 53.2846 52.5659 54.2099 52.3414C56.5898 51.7695 58.9805 51.2404 61.3658 50.6792C63.8687 50.086 66.2327 49.1186 68.5752 48.071C69.5004 47.6595 69.709 46.7135 69.4523 46.0614C69.1902 45.3827 68.5163 46.1897 68.0136 46.2699C66.9012 46.4516 65.9064 47.1624 64.3661 47.1517C66.4091 45.6766 69.0886 45.9438 70.201 43.6243C68.8693 44.1427 67.5323 44.6611 66.2006 45.1849C67.0563 44.0572 68.2703 43.651 69.4416 43.2288C70.3187 42.9134 70.7572 42.4003 70.8856 41.5398C71.2065 39.4234 71.5113 37.3015 71.8429 35.1851C71.9766 34.3459 71.5755 34.1749 70.8749 34.3459C70.0994 34.533 69.356 34.9125 68.4575 34.8323C69.3934 33.3732 71.7092 34.4047 72.4366 32.347C70.1315 32.9991 68.0296 33.5923 65.7781 34.2284C66.0615 33.3465 66.73 33.3572 67.206 33.1968C68.6768 32.6998 70.1903 32.3096 71.6718 31.8446C72.0515 31.7271 72.5489 31.7752 72.6879 31.2086C73.3672 28.4187 74.4582 25.7785 75.9183 23.1649C74.7951 23.1489 74.0089 23.9292 72.9126 23.8223C73.9394 22.3205 76.2338 23.0367 77.1216 21.1446C76.1696 21.3905 75.4797 21.5722 74.7898 21.7486C74.7149 21.6257 74.64 21.5027 74.5652 21.3798C76.6028 20.6102 78.7154 19.9261 79.5069 17.4889V17.4942ZM90.0482 32.005C87.4329 33.5015 84.9032 34.9499 82.2238 36.4785C82.2184 35.6607 82.6409 35.634 82.8977 35.479C84.9621 34.2177 87.0586 32.9991 89.1069 31.7164C89.5455 31.4438 90.1873 31.3369 90.2407 30.5887C90.5135 26.7298 91.6901 23.0848 93.0592 19.3114C91.5724 19.6375 90.2247 19.9368 88.7807 20.2574C89.0214 19.5894 89.4706 19.4878 89.9359 19.3702C90.9895 19.1083 92.0324 18.777 93.0967 18.5739C93.7117 18.4563 93.9791 18.002 93.8829 17.6118C93.7706 17.1522 93.2785 17.4568 92.9202 17.5424C91.5725 17.863 90.2194 18.1463 88.8663 18.4456C89.7166 17.5263 90.8558 17.3446 91.9522 17.0881C94.5995 16.4627 96.0596 14.9448 96.6212 12.1229C96.081 12.203 95.5676 12.2511 95.0595 12.3527C90.5777 13.2559 86.3793 15.0411 82.0847 16.5269C81.6729 16.6712 81.2825 16.8582 81.0525 17.2537C79.17 20.4231 77.3355 23.6085 75.8434 26.9864C73.8271 31.5507 73.1318 36.4517 72.1103 41.2726C71.7092 43.1486 71.1637 44.9978 70.6235 47.0983C77.3997 43.961 83.6785 40.4923 89.4546 36.1524C90.3263 35.5004 90.7488 34.8751 90.0482 33.8756C88.1549 35.0621 86.2563 36.254 84.2508 37.5153C84.2401 36.7403 84.6947 36.6014 85.0262 36.3769C86.4863 35.4042 87.9624 34.4421 89.4278 33.4748C89.9092 33.1541 90.4226 32.8388 90.0482 32.0103V32.005ZM91.5564 34.2711C94.2947 31.866 97.0223 29.4716 99.7445 27.0826L99.5306 26.7619C98.1882 27.4407 96.8511 28.1194 95.5087 28.7928C97.5357 26.3771 101.103 26.0724 102.75 23.2023C100.67 24.0414 98.846 25.399 96.6212 25.88C98.8674 24.4049 101.13 22.9458 103.536 21.786C104.419 21.3584 104.745 20.7759 105.328 19.9154C103.873 20.1452 102.905 21.3103 101.242 21.0859C102.991 20.1826 104.515 19.5359 105.879 18.6487C107.376 17.6706 107.66 15.7679 108.703 14.4211C108.938 14.1164 109.184 13.8171 109.345 13.4751C109.51 13.1223 110.136 12.8604 109.756 12.4008C109.468 12.048 108.927 12.1817 108.526 12.2832C107.633 12.513 106.745 12.5718 105.815 12.3634C106.943 11.9144 108.098 11.4388 109.275 11.3907C112.088 11.2731 114.912 11.3586 117.731 11.3586C118.212 11.3586 118.666 11.4601 119.137 11.5831C119.966 11.8022 119.987 12.2725 119.613 12.8497C117.463 16.1634 116.549 20.0009 115.072 23.5978C114.885 24.0575 114.457 24.5706 114.949 25.383C116.276 22.7267 117.142 20.0223 118.789 17.5317C119.073 18.3494 118.64 18.7502 118.447 19.2099C117.666 21.0378 116.869 22.8549 116.105 24.6882C115.96 25.0356 115.591 25.4631 116.324 25.6876C116.902 25.864 117.062 25.5486 117.249 25.1264C117.886 23.6994 118.538 22.2831 119.196 20.8667C120.089 18.9587 120.993 17.056 122.02 14.87C122.244 16.0726 121.774 16.7674 121.453 17.4782C120.314 20.0276 119.126 22.5556 117.987 25.105C117.821 25.4738 117.34 25.9495 117.918 26.3076C118.875 26.9062 119.886 27.4139 120.881 27.9377C120.897 27.943 121.057 27.7293 121.111 27.601C121.544 26.639 121.972 25.6716 122.523 24.4316C121.886 24.9287 121.512 25.2173 121.041 25.5914C121.426 23.7047 122.26 22.251 123.351 20.8881C126.71 16.6765 130.117 12.5077 134.192 8.94815C134.813 8.40834 134.636 8.13576 134.128 7.66008C133.128 6.71408 132.112 5.7948 131.449 4.52277C131.09 3.83331 130.374 3.33091 129.823 2.74835C130.229 4.59225 131.144 6.05669 131.962 7.62802C129.892 6.51633 129.058 4.31433 127.694 2.56663C125.036 4.05779 123.143 6.36133 121.512 8.91608C121.036 9.65899 120.522 10.0278 119.576 9.97432C117.859 9.87812 116.126 9.81398 114.415 9.96363C109.906 10.3645 105.414 10.915 100.905 11.3532C99.1722 11.5243 97.8085 11.9625 97.2255 13.9026C96.8083 15.2869 95.974 16.5482 95.3109 17.8577C92.6956 22.9725 91.5136 28.4241 91.5671 34.2872L91.5564 34.2711ZM46.3427 52.0742C46.3266 51.9405 46.3106 51.8069 46.2945 51.6787C46.6903 51.5557 47.0807 51.3687 47.4872 51.3152C48.5729 51.1709 49.6639 51.0907 50.7496 50.9571C51.2951 50.8876 51.8353 50.7273 51.7016 50.0058C51.5518 49.1934 51.0544 49.6423 50.6212 49.7332C50.0757 49.8454 49.5088 49.8508 48.7708 49.9149C49.3591 49.0705 50.0864 49.3003 50.6319 49.0384C51.0705 48.8246 51.632 48.9903 51.7444 48.2153C51.8888 47.2586 50.9314 47.7503 50.3859 47.1197C51.7497 47.1197 51.6427 46.3126 51.7871 45.5483C52.2899 42.9401 52.8033 40.3266 53.9799 37.9001C54.7073 36.4036 55.3384 34.859 56.0283 33.3091C55.1137 33.2717 54.4292 33.8916 53.5253 33.6298C54.595 32.3845 56.9214 32.9991 57.3386 30.9414C56.5524 30.6849 55.9534 31.5667 55.0389 31.0162C58.7238 30.3695 59.6704 27.4246 60.9219 24.6454C60.708 24.6026 60.601 24.5438 60.5315 24.5759C55.6165 26.6229 50.6533 28.5523 45.8667 30.8933C45.4923 31.075 45.1447 31.2941 44.9147 31.7057C42.7326 35.6928 40.4703 39.6371 38.8445 43.9022C37.5074 47.4083 36.5341 50.9357 37.2882 54.7572C37.454 55.5963 37.8551 55.7032 38.4327 55.5375C39.1333 55.3344 39.85 55.3772 40.5399 55.2435C44.0857 54.5487 47.5514 53.4745 51.14 52.9934C51.6909 52.9186 51.7016 52.646 51.7069 52.2238C51.7069 51.7481 51.5518 51.4916 51.0437 51.5504C50.6694 51.5931 50.2896 51.6306 49.9153 51.6733C48.7226 51.8069 47.53 51.9405 46.3373 52.0795L46.3427 52.0742ZM64.8956 15.7946C63.3286 14.8807 61.8418 14.063 60.4031 13.1651C57.5846 11.4013 54.9426 9.36503 52.0225 7.75094C51.3807 7.3982 50.8619 7.18441 50.0704 7.50509C47.2091 8.65419 44.7008 10.4019 42.1229 12.032C39.4809 13.6995 36.6678 15.0731 33.769 16.7246C36.1062 17.5851 38.192 18.4296 40.2083 19.4718C43.6044 21.2195 46.8401 23.2932 50.5891 24.3354C53.4825 25.1424 56.178 25.2012 58.9698 23.8223C61.9006 22.3739 64.9972 21.2515 68.035 20.0276C69.2169 19.5519 70.5005 19.3435 71.7681 18.6273C70.6556 18.2532 69.5539 17.4675 68.8265 17.7294C67.3397 18.2639 65.7887 18.2853 64.3019 18.6861C63.6174 18.8678 62.8579 19.1778 61.7027 18.8571C63.8901 17.8577 65.9545 17.8417 67.9494 17.211C65.4037 15.629 62.9863 17.2591 60.2427 17.3179C61.7776 16.2062 63.3125 16.1902 64.8956 15.8V15.7946ZM82.8014 9.52002C80.0096 8.03956 77.8436 6.35064 75.9397 4.35174C75.362 3.74245 74.7523 3.5447 73.9287 3.56608C69.6074 3.67832 65.3021 4.06313 61.0449 4.78466C58.2585 5.26033 55.4132 5.56498 52.5466 6.65529C56.285 9.01228 59.8629 11.3212 63.4997 13.5392C66.1845 15.1747 69.0725 16.4039 72.0408 17.4355C72.8163 17.708 73.565 18.0608 74.4956 17.7187C79.4748 15.8962 84.4861 14.1378 89.8022 12.2458C88.2298 12.0855 87.1495 10.8348 85.8338 11.2463C84.0743 11.7915 82.2773 11.6419 80.5124 11.9839C81.8815 10.9203 83.6411 11.3105 85.283 10.6424C83.0421 9.49865 80.9028 10.589 78.3891 10.6157C79.8492 9.6964 81.1167 9.70174 82.8067 9.52002H82.8014ZM21.4628 29.8564C22.249 29.974 22.9068 30.0168 23.5379 30.1718C27.6293 31.1659 31.5763 32.7479 35.7746 33.3198C37.0849 33.4961 38.5771 33.8329 39.6842 33.1541C43.9841 30.5085 48.3483 28.0072 53.1456 26.1045C49.9902 24.6133 47.0219 26.0778 43.9948 26.3129C45.2089 25.3081 46.8508 25.4417 48.4927 24.6133C45.3051 23.7956 42.8931 25.7571 40.1762 25.8319C41.8288 24.6721 43.8985 24.5332 45.5993 23.7101C44.0109 21.6577 42.262 23.4268 40.2511 23.6406C41.0854 22.7053 42.0534 22.6625 42.7487 22.0319C39.5879 20.5781 36.7373 18.7502 33.4535 17.8684C32.8652 17.708 32.5443 17.7668 32.0844 18.157C29.6509 20.2467 27.6293 22.7213 25.5382 25.1318C24.2065 26.6657 22.8908 28.2103 21.4735 29.8511L21.4628 29.8564ZM31.8276 53.886C32.9882 53.2927 34.3894 53.5012 35.5233 52.8545C33.2289 52.5285 30.9612 53.3355 28.6829 52.7155C30.2499 52.4162 31.8276 52.2078 33.4107 52.1383C34.7264 52.0795 35.919 52.0581 35.7104 50.2035C35.6516 49.7011 35.7693 49.1293 35.9725 48.6643C36.5769 47.2586 36.0099 46.799 34.6568 46.8631C34.6194 46.8631 34.5766 46.7242 34.4911 46.5638C35.3093 46.1202 36.9512 46.7883 36.8336 45.0139C36.3094 44.8161 35.7586 45.1368 35.2719 44.8322C35.3895 44.287 35.8281 44.3885 36.1918 44.3725C36.9405 44.3404 37.3898 43.9877 37.6679 43.2662C39.0424 39.6639 40.6736 36.1845 42.9359 32.6357C39.9623 34.1268 37.4807 35.7837 34.951 37.355C31.972 39.1989 29.0573 40.9573 27.2068 44.2068C25.3189 47.5205 23.4577 50.7808 22.7731 54.5755C22.6662 55.1741 22.2971 55.9009 23.5272 55.8796C27.2121 55.8208 30.8971 55.8582 34.582 55.8368C35.3682 55.8368 36.1169 55.7994 35.9404 54.5968C35.7586 53.3515 34.8708 53.8165 34.3146 53.9181C33.4749 54.0731 32.6834 54.2067 31.8276 53.886ZM27.5544 37.3015C29.1696 36.1578 30.9666 35.2973 32.3946 33.8756C30.3462 34.3887 28.7096 35.9119 26.2602 36.3609C27.7309 35.0087 29.4423 34.704 30.7099 33.5442C30.3515 33.4641 30.1162 33.4267 29.8862 33.3625C27.3245 32.6731 24.8268 31.7698 22.2116 31.2674C20.7782 30.9948 19.7354 31.1659 18.7513 32.4539C17.2431 34.4315 15.8579 36.4891 14.4406 38.5255C13.1517 40.3801 12.0072 42.3362 10.7183 44.3779C13.3336 44.3351 15.7616 44.5008 18.1951 44.597C20.2488 44.6772 22.3934 44.7627 24.2599 43.496C27.9235 41.0161 31.6084 38.5682 35.2772 36.0936C36.0313 35.5859 36.8817 35.1851 37.5395 34.4368C35.1435 34.0092 33.0524 34.2391 31.1431 35.7462C30.1323 36.5426 28.9771 37.2374 27.5544 37.2962V37.3015ZM18.0881 52.8117C18.8101 51.6626 19.7193 51.7374 20.4467 51.5825C21.4735 51.3633 22.1688 51.0426 22.5592 49.931C23.0085 48.6536 23.7198 47.451 24.4204 46.2752C25.0889 45.1475 25.8965 44.1053 26.6399 43.0203C20.1632 47.2533 13.5261 51.1282 7.58958 56.0345C10.9376 51.2832 16.5157 49.327 20.8959 45.4949C18.1897 45.4949 15.7402 45.6392 13.3122 45.4521C11.0231 45.2758 9.57911 45.8476 8.23136 47.9534C5.82467 51.7214 4.77642 56.0345 2.47134 60.011C8.23136 57.98 13.7668 56.2911 19.6498 56.1147C19.976 56.104 20.3023 55.9758 20.6178 55.8742C21.3666 55.639 21.281 54.9496 21.2061 54.4525C21.1152 53.8379 20.5055 54.1372 20.1365 54.1853C19.2968 54.3029 18.4625 54.5113 17.6068 54.6824C17.5907 54.2494 17.7672 54.1906 17.9491 54.1158C18.8315 53.7363 19.7728 53.6295 20.7034 53.4531C21.2435 53.3515 21.7784 53.1057 21.543 52.4162C21.3505 51.8443 20.8264 52.1276 20.452 52.2024C19.7728 52.336 19.1096 52.5391 18.0881 52.8064V52.8117ZM76.8168 3.31488C77.0253 3.66763 77.0735 3.80124 77.1644 3.89745C80.8333 7.94335 85.6199 10.1079 90.6419 11.8663C90.9414 11.9732 91.3157 11.9465 91.6366 11.8931C95.1451 11.3319 98.6428 10.7226 102.151 10.1828C104.077 9.88881 106.018 9.6964 107.949 9.46123C104.916 8.2961 101.729 8.95884 98.6428 8.32282C100.664 7.5906 102.836 8.16248 104.9 7.63336C99.7499 5.74135 94.6102 7.51043 89.4546 7.68681C93.1288 6.50029 96.9474 6.27047 100.766 5.99255C98.1347 4.96103 95.4392 4.50139 92.6421 4.77397C92.3907 4.80069 91.7971 5.1962 92.0645 4.5976C92.4816 3.66228 91.8238 3.93486 91.4655 3.87072C86.6788 3.01558 81.8548 3.33091 76.8168 3.30954V3.31488ZM105.312 23.6887C107.489 23.6513 109.403 23.662 111.19 24.3247C112.586 24.8431 113.377 24.64 113.538 23.0367C113.575 22.6732 113.8 22.3312 113.944 21.9731C115.126 18.9908 116.308 16.0138 117.827 13.1277C116.436 12.9032 115.179 12.6466 113.912 12.513C112.725 12.3901 111.409 12.1068 111.115 13.9294C111.04 14.405 110.601 14.8326 110.307 15.2655C108.521 17.9058 107.366 20.8988 105.312 23.6834V23.6887ZM154.066 193.916C154.243 193.985 154.446 194.023 154.601 194.13C157.847 196.316 161.158 198.379 164.698 200.084C171.523 203.365 178.684 204.274 186.038 202.724C190.546 201.773 194.172 199.138 196.863 195.327C197.301 194.702 197.756 194.082 198.216 193.472C204.425 185.274 206.409 176.177 204.494 166.06C203.061 158.513 199.932 151.672 196.494 144.916C195.98 143.906 195.296 142.944 194.547 142.089C190.418 137.375 185.396 133.826 179.647 131.416C174.528 129.272 169.143 128.054 163.623 127.295C159.307 126.702 155.163 126.75 151.216 128.765C148.108 130.347 145.525 132.484 143.974 135.718C142.947 137.856 142.712 140.245 141.696 142.393C141.257 143.318 140.995 144.355 140.845 145.37C140.204 149.828 139.562 154.285 139.032 158.764C138.129 166.396 139.573 173.558 142.872 180.421C144.595 184.002 147.386 186.808 149.681 189.977C151.355 192.291 153.355 192.815 155.992 192.019C155.831 191.869 155.719 191.725 155.569 191.634C152.082 189.533 149.745 186.294 147.231 183.232C146.91 182.842 146.643 182.462 146.857 181.832C147.456 180.047 147.937 178.219 148.477 176.412C148.584 176.054 148.638 175.733 148.312 175.103C147.183 177.326 146.884 179.496 146.381 181.784C145.14 180.079 144.103 178.625 145.349 176.476C146.322 174.793 146.146 174.691 146.044 173.895C144.948 174.937 144.915 176.482 144.113 177.668C143.284 176.369 143.113 175.076 143.68 173.692C143.878 173.211 143.996 172.703 144.161 172.211C144.242 171.971 144.311 171.709 144.038 171.591C143.712 171.452 143.509 171.65 143.418 171.976C143.263 172.521 143.097 173.056 142.931 173.601C142.108 171.538 143.557 169.817 143.685 167.529C142.573 168.769 142.552 170.031 142.097 171.153C141.621 170.576 141.562 169.897 141.391 169.266C140.685 166.61 140.733 163.868 140.535 161.164C140.166 156.092 141.193 151.127 142.054 146.177C142.749 142.185 143.915 138.353 146.52 135.002C149.782 130.806 153.895 128.679 159.163 128.775C162.372 128.834 165.533 129.47 168.651 130.117C174.855 131.4 180.674 133.757 186.091 137.086C190.204 139.614 193.445 142.971 195.83 147.14C198.927 152.559 200.975 158.363 202.045 164.526C202.649 168.005 203.211 171.468 202.794 175.333C202.484 174.467 202.714 173.697 201.997 173.339C201.574 173.767 201.852 174.151 201.901 174.558C202.12 176.364 203.045 178.117 202.361 179.998C200.237 185.819 198.435 191.757 193.734 196.273C191.605 198.32 189.322 200.02 186.787 201.457C186.444 201.65 186.091 201.719 185.701 201.73C182.021 201.837 178.39 201.308 174.78 200.762C169.159 199.907 164.094 197.598 159.543 194.253C157.794 192.965 156.077 193.504 154.312 193.52C154.232 193.654 154.157 193.782 154.077 193.916H154.066ZM103.761 130.218C105.595 136.856 106.248 143.719 107.408 150.475C108.628 157.556 110.377 164.446 113.233 171.035C116.014 177.454 119.725 183.376 123.325 189.352C123.416 189.501 123.533 189.678 123.908 189.421C123.683 188.956 123.453 188.454 123.196 187.967C120.779 183.451 117.912 179.191 115.709 174.547C113.431 169.742 111.361 164.857 110.077 159.699C108.007 151.389 106.954 142.88 105.435 134.462C105.141 132.832 104.927 131.143 103.82 129.673C103.798 129.855 103.718 130.058 103.761 130.224V130.218ZM208.998 210.586C212.56 204.953 216.715 199.677 218.507 193.039C219.769 188.374 221.106 183.729 221.502 178.913C221.919 173.815 221.175 168.737 220.625 163.676C220.56 163.067 220.646 162.249 219.812 161.704C219.838 162.308 219.844 162.778 219.887 163.243C220.245 167.225 220.817 171.201 220.919 175.188C221.047 180.196 219.817 185.049 218.683 189.907C216.656 198.582 211.971 205.728 206.345 212.376C207.495 212.36 208.399 211.543 209.003 210.591L208.998 210.586ZM175.277 221.249C171.678 220.329 167.977 220.089 164.319 219.56C156.74 218.469 149.804 215.931 143.873 210.965C143.594 210.73 143.343 210.426 142.905 210.81C143.145 211.072 143.354 211.334 143.6 211.553C146.991 214.477 150.825 216.625 155.05 218.084C159.698 219.683 164.533 220.404 169.389 220.933C171.779 221.195 174.138 221.649 176.593 222.104C176.299 221.42 175.753 221.377 175.277 221.254V221.249ZM174.229 105.04C172.255 102.517 169.56 101.523 167.196 100.053C164.843 98.594 162.704 96.857 160.57 95.0986C158.43 93.3295 156.355 91.4536 153.911 90.064C159.783 96.1195 166.667 100.796 174.229 105.04ZM130.24 74.992C130.379 75.1096 130.497 75.27 130.657 75.3448C136.225 77.8782 141.284 81.2132 146.039 85.04C146.397 85.3286 146.766 85.6226 147.424 85.1629C142.06 81.0422 136.749 77.0444 130.438 74.6767C130.374 74.7836 130.304 74.8905 130.24 74.992ZM146.622 189.389C143.862 186.492 142.145 182.901 140.011 179.592C139.685 179.085 139.53 178.368 138.69 178.213C138.583 178.93 138.995 179.373 139.262 179.833C140.246 181.516 141.241 183.189 142.284 184.835C143.915 187.422 145.723 189.87 148.049 191.896C148.536 192.318 148.964 192.761 149.371 192.59C148.488 191.554 147.606 190.426 146.616 189.389H146.622ZM190.167 238.469C190.097 238.533 190.012 238.608 189.99 238.688C189.947 238.859 189.942 239.041 189.921 239.217C190.097 239.239 190.316 239.335 190.445 239.26C190.776 239.078 191.108 238.859 191.37 238.592C193.606 236.299 195.638 233.835 197.285 231.083C197.536 230.666 197.922 230.211 197.488 229.543C195.467 232.905 192.937 235.786 190.172 238.469H190.167ZM154.927 235.904C151.419 236.636 147.905 237.373 144.402 238.143C144.07 238.218 143.348 237.94 143.471 238.624C143.584 239.228 144.242 239.078 144.691 238.987C145.942 238.742 147.194 238.49 148.429 238.164C150.825 237.539 153.291 237.133 155.617 235.925C155.387 235.914 155.141 235.855 154.922 235.904H154.927ZM175.978 143.056C178.657 147.647 181.642 151.8 182.717 156.888C183.332 154.494 178.481 144.478 175.978 143.056ZM136.588 80.8498C140.043 83.2495 143.284 85.6386 146.472 88.0918C145.359 85.9593 138.113 80.7055 136.588 80.8498ZM179.01 236.924C176.502 239.971 173.181 241.916 169.774 244.353C172.122 244.455 179.032 238.715 179.01 236.924ZM164.511 126.392C160.559 124.569 156.398 123.896 152.082 124.163C156.264 124.703 160.425 125.328 164.511 126.392ZM182.465 237.662C180.593 240.692 177.497 242.477 174.871 245C177.288 244.888 182.877 239.324 182.465 237.662ZM159.746 200.057C159.687 199.939 159.655 199.779 159.559 199.704C156.981 197.775 154.398 195.851 151.804 193.937C151.478 193.697 151.456 193.729 150.451 194.007C153.537 196.166 156.532 198.256 159.527 200.351C159.602 200.255 159.671 200.153 159.746 200.057ZM208.522 222.456C207.778 224.054 207.019 225.647 206.259 227.245C208.939 224.706 209.677 221.142 211.116 217.956C209.853 219.244 209.249 220.885 208.522 222.456ZM99.9745 88.9576C98.8621 92.934 99.4664 96.7822 100.937 100.577C100.258 96.7448 99.552 92.902 99.9745 88.9576ZM184.674 132.11C183.513 130.256 176.074 126.413 174.202 126.728C177.941 128.08 181.262 130.186 184.674 132.11ZM188.364 235.428C190.102 235.455 194.638 230.094 194.82 227.769C192.894 230.714 190.648 233.001 188.364 235.428ZM187.771 133.169C190.701 135.435 193.258 138.123 196.194 140.389C193.659 137.669 191.284 134.745 187.771 133.169ZM103.585 78.9257C101.547 81.427 101.344 82.1432 101.745 83.0357C103.258 80.2298 105.157 77.6964 107.622 75.5212C105.44 75.5906 104.702 77.5521 103.585 78.9257ZM132.973 221.259C130.481 221.297 128.058 220.773 125.619 220.388C125.33 220.34 124.876 219.8 124.747 220.527C124.662 221.019 125.122 221.136 125.491 221.227C128.149 221.868 130.834 221.954 133.631 221.767C133.454 221.216 133.192 221.259 132.973 221.265V221.259ZM216.437 163.964C217.48 167.145 216.908 170.48 217.678 174.034C218.528 171.618 217.571 164.52 216.437 163.964ZM173.25 235.61C175.662 235.091 179.716 230.719 179.668 228.811C178.015 231.521 175.571 233.263 173.25 235.61ZM168.843 236.101C171.373 234.418 173.33 232.157 175.288 229.896C172.945 231.767 170.56 233.605 168.843 236.101ZM196.996 181.351C197.039 180.207 197.066 179.052 196.959 177.914C196.927 177.556 197.146 176.749 196.435 176.824C195.943 176.877 196.151 177.54 196.157 177.946C196.178 179.378 196.205 180.816 196.258 182.249C196.296 183.216 196.114 184.205 196.734 185.156C196.825 183.889 196.943 182.617 196.991 181.345L196.996 181.351ZM199.408 176.594C199.419 176.503 199.398 176.402 199.376 176.311C199.312 176.049 199.141 175.91 198.863 175.931C198.611 175.953 198.579 176.161 198.574 176.343C198.547 178.839 198.002 181.324 198.553 183.841C199.194 181.463 199.13 179.004 199.408 176.589V176.594ZM216.528 179.71C215.956 182.991 215.383 186.268 214.806 189.549C214.934 189.571 215.057 189.597 215.186 189.619C216.234 186.433 216.528 183.104 216.983 179.801C216.833 179.769 216.678 179.742 216.528 179.71ZM155.794 179.785C155.853 179.544 156.013 179.33 155.628 179.277C155.344 179.24 155.211 179.416 155.141 179.678C154.911 180.49 154.612 181.292 154.446 182.12C154.039 184.13 153.317 186.097 153.686 188.213C154.28 185.364 155.093 182.585 155.799 179.785H155.794ZM151.296 186.69C152.173 183.702 153.253 180.773 153.478 177.641C152.424 180.592 151.499 183.553 151.296 186.69ZM199.681 232.114C198.135 234.129 196.595 236.139 195.055 238.154C194.948 238.293 194.782 238.49 194.98 238.64C195.333 238.902 195.632 238.683 195.841 238.41C197.333 236.465 198.916 234.583 199.986 232.36C199.884 232.275 199.783 232.194 199.681 232.109V232.114ZM212.87 183.029C213.501 180.132 213.977 177.214 214.191 174.253C214.052 174.232 213.913 174.205 213.774 174.183C213.298 177.107 212.822 180.031 212.351 182.954C212.527 182.981 212.699 183.002 212.875 183.029H212.87ZM176.224 123.538C178.545 125.285 181.326 126.199 183.808 127.664C181.684 125.563 178.93 124.596 176.224 123.538ZM185.476 239.239C184.064 241.483 181.898 242.857 180.331 244.979C182.021 244.749 185.482 240.885 185.476 239.239ZM162.436 217.331C162.196 217.293 161.901 217.261 161.864 217.561C161.805 218.02 162.174 218.042 162.516 218.09C163.827 218.266 165.132 218.582 166.442 218.614C167.549 218.64 168.629 219.266 169.785 218.459C167.335 218.084 164.886 217.705 162.436 217.331ZM174.892 237.881C172.887 239.42 170.951 240.911 169.009 242.397C170.475 242.579 174.593 239.239 174.892 237.881ZM156.869 238.859C154.761 238.538 152.665 238.907 150.568 239.089C150.285 239.116 149.98 239.281 150.039 239.629C150.103 240.024 150.488 239.923 150.74 239.901C152.793 239.704 154.847 239.479 156.901 239.26C156.89 239.126 156.879 238.993 156.869 238.859ZM185.273 173.777C185.23 173.558 185.113 173.28 184.797 173.414C184.481 173.553 184.487 173.831 184.578 174.141C184.888 175.231 185.139 176.343 185.492 177.417C185.909 178.684 186.198 180.031 187.214 181.014C186.573 178.577 185.722 176.236 185.273 173.777ZM184.23 162.468C184.369 164.2 184.813 165.899 185.359 167.556C185.449 167.829 185.61 168.123 185.947 168.064C186.273 168.005 186.198 167.711 186.113 167.492C185.198 165.22 185.006 162.757 184.235 160.058C183.695 161.137 184.177 161.8 184.23 162.463V162.468ZM155.719 189.325C156.232 186.914 156.746 184.499 157.259 182.088C157.109 182.056 156.965 182.024 156.815 181.997C155.836 184.312 155.585 186.781 155.296 189.25L155.719 189.33V189.325ZM140 187.631C138.129 185.503 136.856 183.162 135.16 180.854C135.15 182.591 138.289 186.92 140 187.631ZM201.157 180.838C201.157 178.988 201.157 177.134 201.152 175.284C201.152 175.065 201.152 174.766 200.81 174.782C200.526 174.793 200.403 175.012 200.382 175.268C200.216 177.155 200.312 179.015 200.729 180.854C200.874 180.854 201.018 180.843 201.163 180.843L201.157 180.838ZM110.767 74.1903C112.655 72.8702 114.58 71.6249 116.795 70.882C114.211 70.9087 112.222 72.0685 110.767 74.1903ZM158.414 241.441C156.414 240.858 154.537 241.414 152.708 242.178C154.687 242.445 156.542 241.906 158.414 241.441ZM150.264 90.9138C151.483 91.8918 152.713 92.8592 153.943 93.8213C154.264 94.0724 154.703 94.6069 155.008 94.1954C155.387 93.6823 154.671 93.4258 154.339 93.1746C152.868 92.0575 151.365 90.9832 149.825 89.8609C149.6 90.4809 149.98 90.6946 150.264 90.9191V90.9138ZM149.986 183.884C150.462 181.784 150.938 179.688 151.392 177.583C151.424 177.433 151.333 177.15 151.232 177.107C150.975 177 150.74 177.219 150.686 177.428C150.151 179.619 149.627 181.816 149.606 184.044C149.937 184.183 149.959 183.996 149.986 183.879V183.884ZM128.491 210.762C126.084 210.949 124.041 210.067 121.683 210.073C123.159 211.345 127.01 211.762 128.491 210.762ZM187.551 171.126C187.503 170.945 187.386 170.624 187.086 170.688C186.69 170.768 186.738 171.116 186.829 171.378C187.327 172.756 187.824 174.135 188.375 175.493C188.605 176.065 188.787 176.733 189.707 177.102C188.888 174.991 188.07 173.115 187.551 171.132V171.126ZM179.23 199.025C178.652 197.091 179.454 195.044 178.47 192.933C177.753 195.45 178.16 198.523 179.23 199.025ZM179.807 144.996C180.887 147.193 181.968 149.384 183.053 151.581C183.203 151.506 183.353 151.431 183.503 151.362C182.647 149.085 181.497 146.952 180.256 144.863C180.107 144.905 179.957 144.954 179.807 144.996ZM192.75 188.929C192.819 188.646 192.75 188.309 192.375 188.283C191.985 188.256 191.98 188.598 191.942 188.881C191.862 189.587 191.707 190.292 191.702 190.998C191.696 191.949 191.386 192.959 192.028 193.969C192.739 192.259 192.349 190.538 192.744 188.929H192.75ZM167.185 134.521C168.966 136.322 170.742 138.118 172.523 139.919C170.822 138.059 169.389 135.894 167.185 134.521ZM167.49 232.82C167.282 232.975 167.143 233.221 167.303 233.429C167.533 233.728 167.822 233.552 168.046 233.376C169.057 232.59 170.073 231.81 171.057 230.997C171.464 230.66 171.993 230.366 172.02 229.469C170.4 230.671 168.94 231.745 167.49 232.825V232.82ZM104.67 177.118C106.248 177.401 107.574 178.347 109.088 178.817C109.665 178.994 110.179 179.127 111.152 179.01C109.045 178.085 107.339 177.315 105.611 176.594C105.136 176.396 104.494 176.145 104.697 177.155C104.697 177.155 104.67 177.118 104.665 177.118H104.67ZM189.054 169.389C189.846 171.394 190.552 173.435 192.285 174.953C191.37 173.018 190.461 171.084 189.546 169.149C189.38 169.229 189.22 169.309 189.054 169.389ZM140.653 185.835C139.626 183.991 138.909 181.949 137.268 180.512C138.166 182.441 139.016 184.408 140.653 185.835ZM116.709 171.249C115.821 169.368 114.928 167.487 114.04 165.6C113.917 165.659 113.794 165.712 113.671 165.771C114.12 167.861 115.158 169.673 116.361 171.41C116.479 171.356 116.591 171.303 116.709 171.249ZM194.194 178.571C194.365 180.549 194.531 182.521 194.702 184.499C194.857 184.483 195.007 184.467 195.162 184.456C194.91 182.484 195.504 180.442 194.734 178.513C194.552 178.534 194.376 178.555 194.194 178.571ZM148.301 168.764C149.076 166.808 150.36 165.103 151.05 163.109C149.568 164.723 148.408 166.503 148.301 168.764ZM202.692 232.494C201.628 234.134 200.018 235.38 199.259 237.224C200.922 236 202.163 234.498 202.692 232.494ZM164.832 180.928C164.773 180.72 164.565 180.501 164.287 180.672C164.057 180.816 164.009 181.094 164.105 181.308C164.805 182.847 165.485 184.408 167.116 185.258C166.319 183.815 165.271 182.537 164.832 180.928ZM188.937 156.771C189.215 158.828 189.37 160.907 190.252 162.837C190.167 160.736 189.889 158.679 188.937 156.771ZM174.502 163.238C173.823 161.276 173.175 159.416 172.534 157.562C172.122 159.208 173.341 162.404 174.502 163.238ZM117.41 174.745C117.944 176.669 118.987 178.31 120.201 179.859C119.597 177.973 118.65 176.279 117.41 174.745ZM124.731 212.371C124.475 212.339 124.229 212.601 124.255 212.793C124.277 212.948 124.592 213.167 124.785 213.173C126.384 213.242 127.967 213.771 129.646 213.061C128.01 212.825 126.373 212.585 124.731 212.371ZM151.804 167.059C151.932 166.845 152.093 166.631 151.82 166.471C151.713 166.412 151.403 166.503 151.333 166.615C150.333 168.192 149.558 169.854 149.622 171.768C150.285 170.138 150.927 168.545 151.809 167.059H151.804ZM218.977 210.981C218.122 212.724 217.619 214.552 217.635 216.508C218.384 214.739 218.972 212.927 218.977 210.981ZM171.197 199.186C170.988 197.128 170.79 195.183 170.571 192.991C169.758 194.718 170.132 198.058 171.197 199.186ZM173.384 199.474C173.758 197.256 173.261 195.514 172.94 193.756C172.769 195.546 172.378 197.369 173.384 199.474ZM148.734 135.135C147.098 136.258 145.974 137.77 145.386 139.678C146.418 138.091 147.964 136.899 148.734 135.135ZM195.055 187.951C195.13 187.663 195.199 187.182 194.729 187.155C194.311 187.134 194.263 187.572 194.263 187.898C194.253 189.469 194.258 191.046 194.258 192.617C195.06 191.142 194.659 189.496 195.055 187.951ZM163.88 183.692C162.982 181.971 162.089 180.25 161.19 178.534C161.078 178.593 160.965 178.657 160.848 178.716C161.399 180.634 162.297 182.366 163.57 183.905C163.672 183.836 163.773 183.761 163.875 183.692H163.88ZM149.285 92.3141C148.066 90.9619 146.675 89.8609 144.926 89.2676C146.231 90.4969 147.52 91.7422 149.285 92.3141ZM183.257 176.867C183.214 176.599 183.182 176.065 182.749 176.177C182.235 176.316 182.471 176.797 182.578 177.134C183.027 178.561 183.636 179.918 184.647 181.153C184.508 179.646 183.508 178.379 183.257 176.867ZM144.723 142.88C145.932 141.399 147.14 139.924 148.354 138.444C148.221 138.337 148.092 138.235 147.959 138.128C146.638 139.518 145.407 140.982 144.407 142.629C144.514 142.714 144.616 142.794 144.723 142.88ZM212.228 222.868C210.95 224.092 209.918 225.476 209.388 227.208C210.779 226.059 211.469 224.439 212.228 222.868ZM184.744 190.116C184.209 188.502 183.374 187.021 182.492 185.568C182.39 185.397 182.192 185.3 182.021 185.461C181.941 185.536 181.888 185.749 181.936 185.84C182.743 187.337 183.567 188.822 184.385 190.314C184.503 190.25 184.626 190.185 184.744 190.121V190.116ZM157.318 190.602C157.687 188.726 158.04 186.968 158.388 185.21C157.147 186.567 156.681 189.432 157.318 190.602ZM186.129 160.159C186.204 162.04 186.252 163.927 186.974 165.718C187.022 163.815 186.883 161.939 186.129 160.159ZM175.502 199.458C175.705 197.823 175.373 196.15 175.726 194.52C175.78 194.274 175.759 194.039 175.422 194.018C175.208 194.001 175.026 194.098 175.026 194.311C175.015 196.022 175.02 197.732 175.02 199.442C175.181 199.448 175.341 199.453 175.502 199.458ZM177.705 178.855C178.358 180.346 179.208 181.719 180.235 182.991C180.347 182.927 180.46 182.863 180.572 182.799C179.78 181.393 178.994 179.982 178.203 178.577C178.037 178.668 177.866 178.764 177.7 178.855H177.705ZM147.194 166.204C147.825 164.114 148.697 162.5 149.643 160.528C148.066 161.672 146.905 164.355 147.194 166.204ZM101.841 92.266C102.247 90.5396 102.584 88.808 102.568 86.8572C101.809 87.9528 101.386 91.0046 101.841 92.266ZM192.68 169.667C192.621 169.48 192.429 169.213 192.151 169.427C191.926 169.598 191.996 169.822 192.103 170.057C192.68 171.335 193.285 172.596 194.504 173.43C194.092 172.056 193.119 170.998 192.68 169.667ZM154.344 168.988C152.964 169.331 151.681 171.49 151.676 173.382C152.521 171.955 153.232 170.442 154.344 168.988ZM170.186 157.497C170.063 157.546 169.94 157.594 169.817 157.642C169.94 159.288 170.624 160.71 171.892 161.907C171.325 160.437 170.753 158.967 170.186 157.497ZM172.309 168.01C172.924 169.432 173.347 170.945 174.732 172.008C174.117 170.608 173.496 169.208 172.881 167.807L172.309 168.01ZM169.416 217.475C167.929 216.791 166.41 216.225 164.741 216.273C166.212 217.032 167.779 217.4 169.416 217.475ZM127.202 214.493C126.94 214.397 126.753 214.466 126.592 214.68C126.421 214.915 126.63 215.081 126.758 215.124C127.881 215.492 128.994 216.176 130.181 215.236C129.17 214.969 128.16 214.84 127.208 214.493H127.202ZM177.245 172.27C176.523 170.87 175.801 169.469 175.079 168.075C174.946 168.144 174.812 168.214 174.678 168.288C175.144 169.822 175.812 171.255 176.903 172.468L177.245 172.275V172.27ZM181.519 194.841C181.513 194.664 181.267 194.381 181.096 194.349C180.791 194.29 180.764 194.605 180.754 194.841C180.7 196 180.834 197.123 181.54 198.16C181.54 197.053 181.561 195.947 181.519 194.841ZM166.49 192.66C165.303 193.59 165.057 195.428 165.929 196.829C166.025 195.412 166.035 194.012 166.49 192.66ZM188.765 193.553C188.824 193.28 188.765 192.965 188.402 192.89C188.188 192.847 187.979 193.007 187.99 193.178C188.075 194.285 187.428 195.359 187.899 196.85C188.594 195.605 188.546 194.547 188.76 193.553H188.765ZM169.774 182.446C169.774 182.377 169.571 182.238 169.48 182.254C169.191 182.307 169.143 182.553 169.175 182.799C169.335 184.253 169.918 185.477 171.186 186.327C170.801 184.996 169.753 183.916 169.774 182.446ZM107.382 78.4768C107.548 78.2843 107.917 78.0973 107.628 77.7926C107.382 77.5414 107.077 77.7392 106.874 77.9263C105.97 78.7654 105.339 79.7809 105.098 81.1224C105.863 80.2405 106.628 79.364 107.387 78.4768H107.382ZM112.34 75.5746C112.43 75.7189 112.521 75.8579 112.618 76.0022C113.869 75.2325 115.126 74.4576 116.377 73.6879C114.687 73.7735 113.473 74.6126 112.34 75.5746ZM180.01 171.495C179.481 170.084 178.481 169.01 177.411 167.962C177.748 169.518 178.903 170.485 180.01 171.495ZM182.085 181.752C181.572 180.458 181.053 179.159 180.54 177.866C180.411 177.919 180.283 177.973 180.155 178.026C180.224 179.501 180.92 180.736 181.732 181.923C181.85 181.869 181.973 181.81 182.091 181.757L182.085 181.752ZM130.673 207.833C129.213 208.277 127.673 207.892 126.213 208.363C127.732 208.512 129.299 208.988 130.673 207.833ZM109.649 180.303C108.366 179.956 107.221 179.063 105.788 179.272C106.981 179.961 108.189 180.592 109.649 180.303ZM190.493 194.488C190.493 193.296 190.493 192.109 190.493 190.918C190.493 190.661 190.311 190.405 190.097 190.415C189.782 190.431 189.562 190.731 189.691 191.03C190.161 192.147 189.728 193.36 190.065 194.488C190.209 194.488 190.354 194.488 190.498 194.488H190.493ZM167.48 182.452C167.415 182.195 167.25 181.88 166.891 182.008C166.72 182.067 166.645 182.281 166.747 182.494C167.287 183.606 167.485 184.937 169.025 185.878C168.426 184.477 167.763 183.553 167.48 182.452ZM143.215 148.946C144.124 147.84 145.033 146.728 145.942 145.622C145.83 145.525 145.723 145.435 145.611 145.338C144.504 146.295 143.6 147.428 142.888 148.727C142.995 148.802 143.108 148.877 143.215 148.946ZM211.864 226.823C211.822 226.914 211.848 227.112 211.923 227.181C212.084 227.336 212.303 227.277 212.415 227.122C213.094 226.15 213.608 225.107 213.372 223.793C212.87 224.803 212.356 225.807 211.87 226.823H211.864ZM168.806 197.32C168.18 195.765 168.512 194.434 168.292 193.077C167.49 194.162 167.64 196.198 168.806 197.32ZM184.252 185.471C184.546 186.781 185.294 187.818 186.252 188.748C185.867 187.486 185.375 186.284 184.252 185.471ZM156.115 243.359C157.313 243.113 158.505 242.862 159.703 242.616C158.35 242.071 157.125 242.237 156.115 243.359ZM195.595 170.036C195.515 169.849 195.397 169.534 195.098 169.667C194.777 169.812 194.793 170.095 194.953 170.378C195.456 171.249 195.895 172.169 196.98 173.109C196.67 171.746 195.996 170.945 195.595 170.036ZM193.21 184.418C193.45 183.152 193.301 181.981 192.45 180.987C192.29 182.233 192.621 183.355 193.21 184.418ZM154.403 231.665C154.179 231.708 153.965 231.927 154.088 232.194C154.146 232.317 154.409 232.456 154.537 232.419C155.484 232.157 156.596 232.269 157.478 231.147C156.286 231.345 155.339 231.484 154.403 231.665ZM186.979 184.06C186.926 183.916 186.813 183.686 186.589 183.777C186.348 183.873 186.23 184.119 186.316 184.36C186.653 185.316 187.011 186.262 187.995 186.888C187.658 185.947 187.332 185.001 186.979 184.066V184.06ZM171.64 183.745C171.956 185.006 172.448 186.155 173.978 187.123C173.181 185.691 172.582 184.622 171.988 183.547C171.87 183.611 171.758 183.676 171.64 183.74V183.745ZM115.987 166.177C115.987 167.471 116.538 168.529 117.442 169.448C117.222 168.246 116.816 167.113 115.987 166.177ZM180.711 168.85C180.529 168.652 180.299 168.368 180.021 168.705C179.77 169.01 180.064 169.256 180.251 169.421C180.877 169.983 181.54 170.501 182.187 171.035C182.102 169.967 181.299 169.496 180.711 168.855V168.85ZM174.71 218.389C174.411 218.389 174.127 218.443 174.159 218.838C174.186 219.137 174.427 219.175 174.668 219.191C175.406 219.239 176.144 219.282 176.882 219.324C176.32 218.598 175.55 218.394 174.71 218.384V218.389ZM160.27 186.396C159.265 187.524 159.468 188.651 159.66 189.785C160.062 188.774 160.532 187.77 160.27 186.396ZM162.324 187.406C161.088 188.448 161.158 189.544 161.377 190.672C161.859 189.736 162.163 188.758 162.324 187.406ZM143.573 151.121C144.311 150.122 145.006 149.171 145.835 148.048C144.316 148.631 143.471 149.844 143.573 151.121ZM197.381 169.534C197.301 170.688 197.585 171.709 198.676 172.446C198.36 171.442 198.05 170.437 197.734 169.432C197.617 169.469 197.499 169.502 197.381 169.539V169.534ZM188.022 162.703C188.134 161.591 188.525 160.448 187.589 159.502C187.947 160.544 187.268 161.746 188.022 162.703ZM146.306 163.077C146.91 162.046 147.707 161.1 147.798 159.828C146.9 160.72 146.424 161.816 146.306 163.077ZM153.392 174.028C154.061 173.082 154.633 172.281 155.2 171.479C153.847 171.965 153.473 172.543 153.392 174.028ZM183.925 197.566C183.727 196.877 183.535 196.193 183.337 195.503C183.283 195.322 183.219 195.124 182.973 195.183C182.738 195.236 182.759 195.455 182.759 195.626C182.749 196.439 183.096 197.096 183.578 197.689C183.695 197.647 183.813 197.609 183.931 197.566H183.925ZM10.3653 143.708C12.3495 135.087 14.9648 126.728 20.1686 119.39C22.725 115.788 25.1798 112.116 27.6721 108.466C27.8807 108.156 28.346 107.862 27.8486 107.284C26.1104 109.738 24.4525 112.202 22.6715 114.569C16.505 122.752 12.2532 131.8 10.1942 141.854C9.95883 143.008 9.48284 144.173 10.0284 145.675C10.4937 144.847 10.2423 144.253 10.3653 143.703V143.708ZM88.064 126.632C89.5027 120.571 91.3799 114.601 91.781 108.332C91.8024 107.969 92.0591 107.477 91.5136 107.407C91.1606 107.359 91.1072 107.819 91.0858 108.166C90.829 112.822 89.5883 117.295 88.6363 121.827C88.2031 123.89 87.4062 125.889 87.342 128.134C88.1549 127.733 87.9571 127.086 88.064 126.632ZM53.1991 83.4419C50.4501 87.9154 46.7919 91.5765 42.9787 95.1093C42.738 95.3284 42.1176 95.3765 42.4599 95.8362C42.7754 96.2638 43.1498 95.7934 43.4065 95.5797C48.4552 91.4215 52.3434 86.296 55.6218 80.652C54.5308 81.3308 53.8409 82.3944 53.1991 83.4366V83.4419ZM14.3016 136.75C16.3713 131.346 18.1683 125.809 21.7195 121.1C17.5158 125.472 15.7563 131.036 14.3016 136.75ZM67.9655 142.126C69.9443 137.124 71.8536 132.1 72.3563 126.68C71.1423 131.902 69.3293 136.953 67.9655 142.126ZM74.2122 138.642C75.7364 133.714 77.4585 128.829 77.4104 123.564C76.6456 128.652 75.0572 133.564 74.2122 138.642ZM69.4148 178.106C67.0723 182.484 65.3769 187.171 63.12 191.596C65.9866 187.465 67.7569 182.815 69.4148 178.106ZM93.4657 131.934C92.8667 136.712 91.6687 141.025 90.6526 145.36C92.6047 141.437 94.2626 133.682 93.4657 131.934ZM87.2511 147.989C87.9571 145.814 88.647 143.633 89.3743 141.469C89.9145 139.86 90.3958 138.241 90.7007 136.568C90.7702 136.188 90.6954 135.852 90.3103 135.777C90.0536 135.729 89.968 136.044 89.9466 136.29C89.6845 139.042 88.5026 141.549 87.818 144.189C87.4971 145.424 86.8232 146.584 86.8714 147.904C86.9944 147.931 87.1227 147.963 87.2458 147.989H87.2511ZM100.75 170.907C100.092 170.768 100.001 171.276 99.8301 171.704C98.584 174.814 97.1346 177.823 95.4446 180.72C95.2092 181.121 94.7974 181.516 94.9739 182.297C96.2789 180.784 97.1078 179.17 97.8887 177.556C98.9423 175.381 100.344 173.344 100.718 170.875C100.718 170.875 100.745 170.907 100.75 170.907ZM64.6977 178.507C62.9382 181.682 61.8043 185.145 60.2801 188.454C62.3124 185.407 63.7564 182.072 64.6977 178.507ZM90.5563 155.99C89.3369 159.341 88.1763 162.596 86.5398 165.664C88.3421 164.269 91.2088 157.38 90.5563 155.99ZM87.1602 111.988C86.5612 115.333 85.9675 118.685 85.3685 122.03C85.5183 122.052 85.6627 122.078 85.8124 122.1C86.6307 118.797 87.465 115.499 87.6201 112.084C87.465 112.052 87.3099 112.02 87.1602 111.988ZM46.9631 200.875C47.5193 200.228 48.129 199.619 48.5996 198.913C49.5944 197.427 50.91 196.139 51.4983 194.386C51.5786 194.151 51.7176 193.932 51.4449 193.788C51.1721 193.649 51.017 193.868 50.91 194.092C49.6746 196.663 47.7974 198.796 46.0913 201.056C46.4978 201.361 46.7438 201.126 46.9631 200.869V200.875ZM91.1553 165.456C92.0164 162.767 93.3374 160.218 93.6957 157.375C93.5566 157.332 93.4176 157.284 93.2732 157.241C92.3961 159.924 91.5136 162.607 90.6365 165.285C90.8077 165.343 90.9788 165.397 91.1499 165.456H91.1553ZM86.6628 155.114C86.7591 154.863 86.7805 154.601 86.5505 154.488C86.1547 154.296 86.0745 154.718 85.9943 154.927C85.4541 156.327 84.93 157.733 84.438 159.154C84.1224 160.063 83.5501 160.918 83.978 162.003C84.8712 159.705 85.7643 157.407 86.6628 155.114ZM16.4623 139.652C17.4196 137.113 18.3769 134.58 19.3342 132.041C19.1845 131.987 19.0294 131.934 18.8796 131.881C17.794 134.393 16.5906 136.862 16.0772 139.577C16.2055 139.604 16.3339 139.625 16.4623 139.652ZM57.6113 194.921C55.7662 196.759 54.6645 199.068 53.5574 201.377C55.2795 199.464 56.5524 197.262 57.6113 194.921ZM53.8409 194.21C52.6001 196.353 51.3646 198.502 50.1239 200.645C50.2308 200.709 50.3378 200.773 50.4394 200.843C52.1722 198.999 53.183 196.711 54.3115 194.493C54.1564 194.397 53.996 194.306 53.8409 194.21ZM88.4384 156.22C87.4169 158.721 86.4542 161.073 85.3846 163.687C86.7644 162.634 88.8663 157.487 88.4384 156.22ZM71.7787 181.971C70.7091 184.258 69.6395 186.546 68.5698 188.833C68.7035 188.897 68.8426 188.961 68.9763 189.026C70.2866 186.84 71.4258 184.568 72.2387 182.142C72.0836 182.083 71.9338 182.024 71.7787 181.971ZM59.3816 180.036C58.3654 182.147 57.3439 184.258 56.3278 186.375C56.4561 186.439 56.5791 186.503 56.7075 186.567C58.1141 184.654 59.0393 182.494 59.8202 180.26C59.6758 180.186 59.526 180.111 59.3816 180.036ZM84.8765 112.463C84.8765 112.383 84.7161 112.223 84.6144 112.207C84.3042 112.169 84.2347 112.405 84.208 112.656C84.1491 113.265 84.1331 113.885 84.0368 114.484C83.7587 116.162 83.4432 117.835 83.1437 119.508C84.3791 117.3 84.7268 114.901 84.8819 112.463H84.8765ZM83.8443 192.125C82.3094 193.83 80.7744 195.541 79.2395 197.246C79.3625 197.353 79.4802 197.459 79.6032 197.566C81.1381 195.867 83.01 194.482 84.2561 192.521C84.1171 192.393 83.9834 192.259 83.8443 192.131V192.125ZM74.8005 141.089C74.0036 143.249 73.2067 145.408 72.4098 147.567C72.5382 147.615 72.6665 147.663 72.7949 147.711C73.8752 145.675 74.5866 143.494 75.2604 141.298C75.1053 141.228 74.9556 141.159 74.8005 141.095V141.089ZM81.951 198.138C83.2399 196.62 84.5289 195.113 85.8017 193.585C85.8873 193.483 85.8017 193.243 85.8017 193.066C85.6306 193.093 85.3792 193.05 85.299 193.152C84.0368 194.691 82.657 196.15 81.6248 197.86C81.7371 197.957 81.8441 198.047 81.9564 198.144L81.951 198.138ZM123.731 42.1652C124.074 44.0091 124.41 45.8583 124.779 47.6969C124.817 47.884 124.935 48.1726 125.234 48.1405C125.443 48.1191 125.592 47.9427 125.544 47.7396C125.074 45.8476 124.94 43.8701 124.138 42.069C124.004 42.101 123.865 42.1331 123.731 42.1598V42.1652ZM82.9832 167.444C81.8869 169.234 81.0258 171.009 80.2449 173.018C81.5446 172.158 83.3255 168.54 82.9832 167.444ZM88.0908 135.547C87.4704 137.647 86.9569 139.604 86.7805 141.651C87.8287 140.17 88.5935 136.616 88.0908 135.547ZM15.4889 165.889C15.061 167.968 15.3391 170.004 15.8526 172.03C16.1414 169.956 15.9756 167.909 15.4889 165.889ZM122.999 48.5948C123.063 46.35 122.801 44.2122 122.293 42.0209C121.768 42.8386 122.319 47.9588 122.999 48.5948ZM62.1466 147.289C61.2214 149.16 60.1785 150.993 59.9806 153.12C60.74 151.191 62.0183 149.443 62.1466 147.289ZM86.0905 169.304C85.2509 171.046 84.4166 172.789 83.5769 174.531C85.1011 173.099 85.9782 171.351 86.5665 169.459C86.4061 169.405 86.2456 169.357 86.0905 169.304ZM62.1894 138.08C62.997 136.087 63.5799 134.045 63.5799 131.897C62.8633 133.922 62.2108 135.932 62.1894 138.08ZM83.9299 134.28C83.1116 136.14 82.3896 138.027 82.3628 140.085C83.149 138.203 83.7962 136.311 83.9299 134.28ZM84.4647 168.523C83.6945 170.17 82.9244 171.821 82.1596 173.467C82.2987 173.537 82.4324 173.606 82.5714 173.676C83.5608 172.136 84.4433 170.544 84.8819 168.721C84.7428 168.657 84.6037 168.588 84.4647 168.523ZM85.1065 140.432C85.5878 138.631 86.0745 136.824 86.5558 135.023C86.4221 134.986 86.2884 134.954 86.1547 134.916C85.2562 136.621 84.8177 138.454 84.7481 140.389C84.8658 140.405 84.9835 140.416 85.1065 140.432ZM83.3416 154.52C83.4325 154.307 83.7908 154.007 83.3736 153.82C83.0635 153.681 82.8763 153.938 82.7586 154.243C82.1971 155.766 81.4697 157.225 81.2344 158.871C82.2826 157.583 82.7105 156.006 83.3416 154.52ZM92.2517 190.549C93.6369 189.175 94.7118 187.588 95.6638 185.91C95.5301 185.813 95.3964 185.717 95.2681 185.621C94.1556 187.182 93.0486 188.737 91.9361 190.298L92.2517 190.549ZM71.506 144.2C70.554 145.782 70.0727 147.535 69.7304 149.374C70.6449 147.786 71.2974 146.071 71.506 144.2ZM21.773 185.226C20.7889 183.649 19.7995 182.072 18.8155 180.49C18.6925 180.57 18.5694 180.651 18.4464 180.731C19.2166 182.446 20.1739 184.044 21.4628 185.439L21.7677 185.226H21.773ZM53.5093 87.878C54.5308 86.4884 55.5416 85.0934 56.2155 83.4847C56.1031 83.4152 55.9962 83.3404 55.8839 83.2709C54.9372 84.7086 53.9906 86.1463 53.044 87.584C53.1991 87.6802 53.3542 87.7764 53.5039 87.878H53.5093ZM59.4083 147.268C58.4403 148.7 58.0285 150.304 57.9376 151.976C58.6115 150.443 59.403 148.967 59.4083 147.268ZM13.7561 166.535C13.7721 166.332 13.6437 166.172 13.4138 166.166C13.1357 166.166 12.9645 166.338 12.9592 166.599C12.9271 168.026 12.5688 169.469 13.3389 170.907C13.478 169.448 13.6224 167.994 13.7507 166.535H13.7561ZM92.7063 179.117C91.4815 180.426 90.6633 181.955 90.2087 183.676C91.2997 182.291 92.257 180.843 92.7063 179.117ZM59.5046 195.738C58.6382 196.727 57.6702 198.919 57.6702 199.897C58.7238 198.876 59.7025 196.652 59.5046 195.738ZM120.421 57.7983C121.041 56.1094 121.148 54.7839 120.747 52.769C120.346 53.9982 120.18 57.2211 120.421 57.7983ZM66.222 131.886C65.762 133.532 65.3448 135.029 64.8421 136.84C66.0722 135.542 66.7621 132.982 66.222 131.886ZM18.8636 172.275C18.9652 170.57 18.7459 168.924 17.9544 167.385C17.9116 169.079 18.2004 170.715 18.8636 172.275ZM94.8242 190.367C95.6157 189.293 96.4821 188.267 96.8565 186.952L96.4821 186.733C95.8029 187.871 95.1237 189.01 94.4498 190.148C94.5728 190.223 94.7012 190.292 94.8242 190.367ZM33.0577 112.079C32.1058 112.902 31.1484 113.719 30.2071 114.559C30.0948 114.66 30.0039 114.895 30.0467 115.029C30.1002 115.2 30.2927 115.28 30.4852 115.104C31.464 114.216 32.448 113.34 33.4321 112.458C33.3091 112.335 33.1861 112.212 33.0631 112.084L33.0577 112.079ZM73.6988 184.451C72.6559 185.322 72.2601 186.54 71.9766 187.823C72.7307 186.797 73.4688 185.749 73.6988 184.451ZM85.7269 196.904C86.5826 195.883 87.4597 195.012 87.8875 193.804C86.5505 194.466 85.7483 195.669 85.7269 196.904ZM60.7507 199.458C61.0288 198.053 62.0129 197.262 61.9969 195.947C60.8737 196.797 60.355 198.074 60.7507 199.458ZM21.9923 180.864C21.9602 180.741 21.8425 180.479 21.5858 180.586C21.3933 180.667 21.3131 180.843 21.3773 181.046C21.757 182.184 22.11 183.334 23.1529 184.114C22.8427 182.986 22.2864 181.976 21.9923 180.864ZM27.0731 114.152C27.1587 114.238 27.2389 114.323 27.3245 114.404C28.0679 113.5 28.8113 112.597 29.7365 111.475C28.6027 112.362 27.7149 113.137 27.0731 114.152ZM19.3449 138.898C19.9225 137.781 20.2541 136.669 20.2595 135.472C19.3289 136.691 18.9973 138.059 19.3449 138.898ZM46.2518 196.31C45.1072 196.914 44.5082 198.026 43.7595 198.999C44.9842 198.475 45.6795 197.449 46.2518 196.31ZM96.6533 158.043C95.7441 159.288 95.3322 160.293 95.5996 161.511C95.8938 160.464 96.6479 159.582 96.6533 158.043ZM91.0055 194.985C89.738 195.135 89.1658 195.931 89.0321 197.144C89.6899 196.423 90.3477 195.706 91.0055 194.985ZM122.314 55.9758C122.635 55.0672 122.453 54.1906 122.073 53.3248C121.79 54.2334 121.736 55.1206 122.314 55.9758ZM62.4354 47.5633C60.8042 47.435 59.7025 47.7503 58.6863 48.4772C59.8576 48.4398 61.0609 48.4772 62.4354 47.5633ZM61.3337 46.334C61.3337 46.334 61.2802 46.04 61.2107 46.0187C60.4298 45.7621 59.8201 46.3661 59.1088 46.4837C59.0554 46.4943 59.0233 46.6333 58.8789 46.9112C59.8576 47.0235 60.6277 46.8043 61.339 46.334H61.3337ZM89.1925 29.6801C87.4222 30.61 85.6466 31.54 83.8764 32.47L84.0368 32.7853C86.005 32.2455 87.7324 31.23 89.4064 30.1183C89.3369 29.974 89.262 29.8297 89.1925 29.6801ZM88.4544 28.1942C86.9569 28.5149 85.9729 29.6373 84.7856 30.4443C86.3633 30.2466 87.4276 29.2525 88.4544 28.1942ZM125.796 5.82687C124.052 7.86318 122.592 10.0866 121.448 12.5077C121.571 12.5879 121.688 12.6627 121.811 12.7429C123.255 10.5248 124.699 8.30679 126.138 6.08341L125.79 5.82152L125.796 5.82687ZM44.7329 43.7739C46.0325 43.7632 47.3 43.6189 48.4552 42.9241C47.1075 42.6943 45.9041 43.1646 44.7329 43.7739ZM45.1982 42.2828C46.3587 42.0583 47.2144 42.0422 47.8723 41.3474C46.9577 41.1818 46.1234 41.2833 45.1982 42.2828ZM76.4905 12.3206C76.6403 12.2725 76.8435 12.1175 76.8542 11.9946C76.8756 11.7968 76.6296 11.6098 76.4691 11.6846C75.6241 12.0694 74.4903 11.8022 73.7897 12.8658C74.8219 12.8658 75.6562 12.5932 76.4905 12.326V12.3206ZM24.3081 38.8248C24.4899 38.7499 24.7252 38.5575 24.5273 38.2689C24.3936 38.0712 24.2011 38.0712 24.0353 38.1941C23.3186 38.7232 22.2971 38.7232 21.5644 39.7173C22.6715 39.7173 23.4631 39.1615 24.3134 38.8248H24.3081ZM14.2588 48.7658C15.3819 48.0069 16.7297 47.5366 17.4517 46.2645C15.3017 47.2212 14.8899 47.5526 14.2588 48.7658ZM93.6689 9.8995C93.9043 9.89415 94.1931 9.8995 94.2091 9.58951C94.2252 9.31158 93.9257 9.10849 93.7331 9.17262C92.8774 9.46658 91.8238 9.06038 91.1499 10.0278C91.9896 9.8407 92.8293 9.92087 93.6636 9.8995H93.6689Z" fill="#332C0D"/>
</svg>
