<?xml version="1.0" encoding="UTF-8"?>
<svg width="226" height="248" viewBox="0 0 226 248" fill="none" xmlns="http://www.w3.org/2000/svg">
  <defs>
    <!-- Textur für den Kern -->
    <pattern id="core-texture" x="0" y="0" width="15" height="15" patternUnits="userSpaceOnUse">
      <path d="M0 7.5h15M7.5 0v15" stroke="#B39700" stroke-width="0.5" opacity="0.2"/>
    </pattern>
  </defs>

  <path d="M59.403 48.0445C58.467 48.2155 57.622 48.3118 56.8091 48.5255C53.6911 49.3379 50.5838 50.1931 47.4711 51.0268C39.8767 53.0578 32.1699 53.8755 24.2973 53.5869C16.6066 53.3037 9.08703 54.5169 1.7814 56.9968C0.390864 57.4671 -0.871316 58.2742 -2.32603 58.5788C-2.69505 58.659 -3.06943 58.9423 -3.37427 58.5895C-3.6096 58.3169 -3.39032 57.9749 -3.29405 57.6542C-2.58274 55.3293 -1.47031 53.154 -0.678779 50.8665C1.27866 45.1905 4.71757 40.4017 8.14041 35.5861C9.82509 33.2185 11.0124 30.5194 12.9378 28.3067C13.0928 28.125 13.2159 27.9059 13.3923 27.7509C17.9811 23.7157 21.4361 18.681 25.3777 14.0739C27.2228 11.92 29.4637 10.2471 32.0736 9.0713C34.9563 7.77255 37.5128 5.89123 40.1387 4.1756C44.6847 1.21466 49.7013 -0.260469 54.9532 -1.30267C64.3233 -3.16796 73.7897 -3.45657 83.256 -2.92211C90.1658 -2.53195 96.9955 -1.28129 103.178 2.18204C104.301 2.81271 105.419 3.50217 106.371 4.35197C107.125 5.02539 107.777 5.05746 108.692 4.87575C110.997 4.41611 113.361 4.24508 115.682 4.53903C116.672 4.66196 116.998 4.32524 117.426 3.65182C118.886 1.35362 120.586 -0.773558 122.373 -2.82056C124.015 -4.69653 125.197 -4.74463 127.149 -3.20537C127.673 -2.79383 128.245 -2.34488 128.55 -1.77835C129.566 0.113656 130.999 1.54603 132.78 2.73254C133.791 3.40596 133.743 4.17025 132.791 4.89712C129.727 7.23273 127.518 10.3914 124.86 13.1119C121.854 16.185 120.966 20.3646 118.923 23.9294C118.592 24.5067 118.731 24.9449 119.153 25.458C122.496 29.4879 125.148 33.9881 127.721 38.5097C129.133 40.9896 129.609 43.849 130.144 46.6442C130.727 49.6693 132.048 52.4752 132.786 55.4576C133.31 57.5794 133.69 59.7172 133.567 61.9139C133.465 63.7257 133.615 65.5215 133.877 67.312C133.984 68.0496 134.353 68.568 134.994 69.0223C146.589 77.2851 158.163 85.564 170.095 93.3512C181.187 100.588 191.14 109.262 199.948 119.187C206.452 126.515 211.944 134.617 216.159 143.42C219.191 149.753 220.903 156.669 222.373 163.58C222.716 165.199 223.395 166.739 223.796 168.347C224.598 171.597 224.641 174.959 225.149 178.256C225.828 182.655 225.967 187.086 225.86 191.538C225.77 195.247 225.053 198.791 223.497 202.126C221.635 206.113 220.806 210.442 219.25 214.52C217.25 219.779 214.453 224.509 210.516 228.608C204.74 234.632 198.242 239.629 190.824 243.461C185.556 246.182 179.887 247.128 174.068 247.304C171.662 247.379 169.266 246.743 166.875 246.422C164.672 246.128 162.447 245.77 160.259 245.738C156.815 245.679 153.622 244.803 150.467 243.643C145.958 241.986 141.353 240.441 137.631 237.283C135.085 235.123 132.834 232.617 130.449 230.271C128.502 228.352 126.416 226.588 124.196 225.006C121.849 223.333 120.335 221.088 119.068 218.582C116.655 213.814 114.324 209.015 111.355 204.536C109.238 201.34 108.007 197.7 107.178 193.948C106.767 192.078 105.97 190.346 105.05 188.267" 
    stroke="#4A6741" 
    stroke-width="1.5"
    stroke-linecap="round"
    stroke-linejoin="round"
    fill="none"/>

  <!-- Blatt der Avocado -->
  <path d="M120.913 7.9487C122.373 5.65049 124.074 3.52332 125.86 1.47632C127.502 -0.399654 128.684 -0.447756 130.636 1.0915C131.16 1.50304 131.732 1.95199 132.037 2.51853C133.053 4.41053 134.486 5.8429 136.267 7.02942C137.278 7.70284 137.23 8.46713 136.278 9.194C133.214 11.5296 131.005 14.6883 128.347 17.4087" 
    stroke="#4A6741"
    stroke-width="1.5"
    fill="none"/>

  <!-- Skizzenhafte Details -->
  <g opacity="0.3">
    <path d="M62.89 52.3414C61.9541 52.5124 61.1091 52.6086 60.2961 52.8224" 
      stroke="#4A6741" 
      stroke-width="0.5"
      stroke-dasharray="2,2"/>
    
    <path d="M124.074 3.52332C125.86 1.47632M127.502 -0.399654C128.684 -0.447756" 
      stroke="#4A6741"
      stroke-width="0.3"/>
  </g>
</svg>
