<svg width="228" height="250" viewBox="0 0 228 250" fill="none" xmlns="http://www.w3.org/2000/svg">
<path d="M25.3165 101.45C30.384 99.3158 52.0995 70.1107 62.3238 55.775L64.3015 51.0318L73.8842 45.5929L88.0424 36.5282L98.6611 27.3771L104.877 24.3555L111.783 25.3915L119.035 28.325L124.647 35.4057L128.359 40.3256L131.639 50.3404L135.006 61.8224L135.89 68.0601V72.6703L134.46 71.5575L127.783 69.0139L115.701 66.6293L107.911 68.0601L99.9624 73.4652L95.988 82.5266L93.7624 94.2907L94.8752 110.824V123.701L97.3306 139.916L99.0085 158.198L102.665 178.07L107.666 189.134L104.999 192.468L97.3306 199.135L88.3289 200.802L68.9918 209.471L53.3221 207.47L34.6518 202.803L19.9823 189.134L9.98041 174.464L7.31313 163.462L4.97925 145.792L7.31313 133.123C11.2028 123.454 20.2489 103.584 25.3165 101.45Z" fill="#605622"/>
<path d="M2.63643 53.8237L0.503906 60.0561H2.63643L10.8374 57.5154L21.9089 56.1212H31.5862L50.5307 53.2508L65.4567 49.0682L80.7927 41.8513L94.8986 31.5999L102.854 24.3009L105.642 19.5443L109.087 11.6713L112.449 10.7691L117.616 11.6713L115.401 16.6739L112.449 24.793L119.42 28.2375L121.224 26.7613L122.782 20.8565L128.359 14.048L135.166 7.65272L131.886 3.5523L128.359 0.0244141L125.489 1.58404L121.798 5.68317L119.42 8.47154H117.616H109.087L103.756 4.94501L89.7319 1.58404H78.7425H70.2133L57.4196 3.5523L50.5307 4.94501L45.118 7.65272L33.9645 14.048L28.4698 18.5587L20.3507 27.4982L12.8057 36.6017L7.96703 45.1309L2.63643 53.8237Z" fill="#848D1B"/>
<path d="M95.0432 126.832L95.6 114.735L98.8978 125.473L102.143 143.439L106.084 160.013L111.763 175.313L117.675 186.904L124.901 198.262L130.656 204.985L138.422 212.055L144.047 215.764L148.274 217.851L153.837 220.98L163.11 223.066L175.512 225.092L187.102 225.732L191.855 225.092L200.548 220.98L212.486 212.635L216.543 206.724L222.57 190.844L224.464 182.808L225.355 178.028L226.691 182.362L227.09 186.904V194.322V199.885L225.004 205.796L222.57 212.055L220.599 218.662L217.818 223.066L213.065 230.021L203.098 239.525L193.135 245.672L181.074 249.215H174.748L159.06 247.697L144.047 242.805L135.613 235.214L124.901 225.092L116.214 209.911L109.044 193.126L101.369 172.715L97.2362 147.581L95.0432 126.832Z" fill="#605622"/>
<path d="M115.223 66.3887L110.067 67.236L105.294 69.3125L100.439 73.6276L97.203 78.2392L95.3422 86.6535L93.886 95.1486L94.9376 105.505L96.7176 114.081L99.2256 129.534L102.867 144.582L104.646 156.475L108.854 167.398L112.899 178.563L118.562 188.757L123.417 197.171L130.375 204.969L139.922 212.948L151.629 219.717L162.258 222.906L175.412 225.298L186.573 226.095L192.02 225.298L203.447 219.717L212.349 212.144L218.461 204.969L223.642 188.228L224.699 179.002L221.517 159.396L218.461 149.697L209.16 132.823L198.664 119.935L184.58 107.179L169.699 96.4173L157.342 88.1795L143.657 78.8789L134.489 71.9698L127.181 69.3125L115.223 66.3887Z" fill="#FAF2A4"/>
<path d="M139.118 153.781L140.512 144.761L143.382 135.413L147.974 130.164L154.124 127.295H161.587L169.049 128.688L173.313 129.672L180.284 132.296L185.696 135.413L191.272 140.005L195.373 145.417L198.653 152.387L201.441 160.588L202.835 167.476V174.365L202.015 181.499L197.013 190.683L190.534 198.474L184.22 200.934L180.858 201.59L171.755 200.934L158.799 194.62L151.09 189.863L143.054 178.793L139.856 169.034L139.118 161.244V153.781Z" fill="#DE6D0D" stroke="black" stroke-width="1.14826"/>
</svg>
