<svg width="230" height="252" viewBox="0 0 230 252" fill="none" xmlns="http://www.w3.org/2000/svg">
<g clip-path="url(#clip0_400_1394)">
<path d="M59.403 48.0445C58.467 48.2155 57.622 48.3117 56.8091 48.5255C53.6911 49.3379 50.5838 50.1931 47.4711 51.0268C39.8767 53.0578 32.1699 53.8755 24.2973 53.5869C16.6066 53.3037 9.08703 54.5169 1.7814 56.9968C0.390864 57.4671 -0.871316 58.2742 -2.32603 58.5788C-2.69505 58.659 -3.06943 58.9423 -3.37427 58.5895C-3.6096 58.3169 -3.39032 57.9749 -3.29405 57.6542C-2.58274 55.3293 -1.47031 53.154 -0.678779 50.8665C1.27866 45.1905 4.71757 40.4017 8.14041 35.5861C9.82509 33.2185 11.0124 30.5194 12.9377 28.3067C13.0928 28.125 13.2159 27.9059 13.3923 27.7509C17.9811 23.7157 21.4361 18.681 25.3777 14.0739C27.2228 11.92 29.4637 10.2471 32.0736 9.0713C34.9563 7.77255 37.5128 5.89123 40.1387 4.1756C44.6847 1.21466 49.7013 -0.260469 54.9532 -1.30268C64.3233 -3.16796 73.7896 -3.45657 83.256 -2.92211C90.1658 -2.53195 96.9955 -1.28129 103.178 2.18204C104.301 2.81271 105.419 3.50217 106.371 4.35197C107.125 5.02539 107.777 5.05746 108.692 4.87574C110.997 4.41611 113.361 4.24508 115.682 4.53903C116.672 4.66196 116.998 4.32524 117.426 3.65182C118.886 1.35362 120.586 -0.773558 122.373 -2.82056C124.015 -4.69653 125.197 -4.74463 127.149 -3.20537C127.673 -2.79383 128.245 -2.34488 128.55 -1.77835C129.566 0.113657 130.999 1.54603 132.78 2.73254C133.791 3.40596 133.743 4.17025 132.791 4.89712C129.727 7.23273 127.518 10.3914 124.86 13.1119C121.854 16.185 120.966 20.3646 118.923 23.9294C118.592 24.5067 118.731 24.9449 119.153 25.458C122.496 29.4879 125.148 33.9881 127.721 38.5097C129.133 40.9896 129.609 43.849 130.144 46.6442C130.727 49.6693 132.048 52.4752 132.786 55.4576C133.31 57.5794 133.69 59.7172 133.567 61.9139C133.465 63.7257 133.615 65.5215 133.877 67.312C133.984 68.0496 134.353 68.568 134.994 69.0223C146.589 77.2851 158.163 85.564 170.095 93.3512C181.187 100.588 191.14 109.262 199.948 119.187C206.452 126.515 211.944 134.617 216.159 143.42C219.191 149.753 220.903 156.669 222.373 163.58C222.716 165.199 223.395 166.739 223.796 168.347C224.598 171.597 224.641 174.959 225.149 178.256C225.828 182.655 225.967 187.086 225.86 191.538C225.77 195.247 225.053 198.791 223.497 202.126C221.635 206.113 220.806 210.442 219.25 214.52C217.25 219.779 214.453 224.509 210.516 228.608C204.74 234.632 198.242 239.629 190.824 243.461C185.556 246.182 179.887 247.128 174.068 247.304C171.662 247.379 169.266 246.743 166.875 246.422C164.672 246.128 162.447 245.77 160.259 245.738C156.815 245.679 153.622 244.803 150.467 243.643C145.958 241.986 141.353 240.441 137.631 237.283C135.085 235.123 132.834 232.617 130.449 230.271C128.502 228.352 126.416 226.588 124.196 225.006C121.849 223.333 120.335 221.088 119.068 218.582C116.655 213.814 114.324 209.015 111.355 204.536C109.238 201.34 108.007 197.7 107.178 193.948C106.767 192.078 105.97 190.346 105.05 188.267C103.371 191.196 100.429 192.398 98.3379 194.574C96.1451 196.861 93.4657 198.256 90.3049 198.625C88.4812 198.839 86.973 199.619 85.5075 200.693C81.5766 203.579 76.7739 204.488 72.3724 206.316C69.0993 207.679 65.6924 207.941 62.2268 207.753C57.7771 207.513 53.3969 206.824 49.0595 205.787C44.2782 204.643 39.4648 203.617 34.8868 201.757C34.844 201.741 34.7905 201.735 34.7477 201.714C31.0521 199.742 27.0624 198.021 24.2439 194.942C20.9708 191.361 16.9489 188.331 14.6117 184.029C12.2318 179.657 9.55233 175.573 6.46642 171.677C4.32714 168.973 3.79767 165.504 3.32168 162.132C2.58363 156.883 1.20914 151.715 0.861504 146.424C0.273202 137.562 1.94185 129.107 6.02787 121.165C7.35957 118.573 8.72337 115.98 9.81975 113.287C12.8094 105.97 18.1362 100.337 23.4095 94.7621C33.7743 83.8216 43.1284 72.1275 51.3539 59.5088C53.8087 55.7462 56.2154 51.9354 59.189 48.5416C59.2746 48.4454 59.296 48.2957 59.4083 48.0392L59.403 48.0445ZM97.2362 166.578L97.2629 166.61C97.4073 165.226 96.9634 163.981 96.466 162.495C94.6369 165.905 93.0646 169.17 90.9734 172.142C90.8076 171.565 91.1285 171.159 91.3478 170.726C92.8132 167.861 94.2786 164.996 95.7601 162.137C96.1237 161.437 96.1772 160.785 96.0489 159.967C95.4552 156.252 95.0541 152.506 94.4711 148.786C94.2091 147.129 94.3321 145.435 93.9631 143.773C93.0913 145.894 92.7116 148.177 91.2783 150.026C92.4281 145.467 94.9418 141.132 93.1715 136.183C91.8131 139.652 90.9253 143.329 89.2459 146.985C88.9946 146.327 89.1229 146.049 89.2352 145.718C90.1017 143.169 90.9199 140.603 91.781 138.048C92.5404 135.804 93.4336 133.58 93.0485 131.138C92.4923 127.594 92.1928 124.024 91.8398 120.347C91.1713 121.314 91.3906 122.501 90.4707 123.281C91.8452 119.23 91.7917 115.125 91.1766 110.924C89.6952 115.82 88.2351 120.662 86.7697 125.505C86.4649 125.232 86.406 125.008 86.4542 124.804C86.6788 123.891 86.9462 122.987 87.1815 122.073C88.8555 115.515 91.7863 109.246 90.8344 102.127C90.2461 97.7231 90.4814 93.2336 90.6793 88.7601C90.8611 84.7089 91.3906 80.8126 92.7651 77.0072C94.0861 73.3621 96.1131 69.9362 98.8353 67.4456C102.108 64.4473 106.136 62.0903 110.928 61.9673C111.724 61.946 111.938 61.6199 112.051 60.8557C112.281 59.295 112.676 57.7611 113.051 55.9974C113.57 56.628 113.479 57.1465 113.404 57.6328C113.222 58.798 113.013 59.9684 112.767 61.1229C112.687 61.5023 112.404 61.8711 113.045 61.9673C113.532 62.0422 113.907 61.8711 114.003 61.3474C114.126 60.6953 114.136 60.0112 114.35 59.3966C114.682 58.4185 114.543 57.2427 115.704 56.1951C115.297 57.9963 114.933 59.4447 114.661 60.9091C114.559 61.4436 114.286 62.1277 115.318 62.2934C116.292 62.4484 116.244 61.962 116.361 61.2725C116.57 60.0646 116.693 58.814 117.303 57.3816C117.682 58.8942 117.158 59.9898 116.966 61.1229C116.827 61.962 116.757 62.5499 117.96 62.8545C119.474 63.2394 119.586 62.459 119.774 61.4275C120.314 58.4773 120.929 55.5431 120.977 52.3256C121.624 52.8494 121.485 53.3571 121.49 53.7954C121.506 56.6601 120.848 59.4447 120.287 62.2185C120.052 63.389 120.64 63.2661 121.308 63.4638C122.341 63.7631 122.26 63.0576 122.362 62.4484C122.998 58.488 123.239 54.5062 123.223 50.4977C123.218 49.37 123.223 48.2423 123.223 47.0451C124.047 47.3871 123.779 47.9964 123.785 48.4721C123.833 53.2823 123.913 58.0978 122.961 62.8545C122.892 63.202 122.726 63.6616 123.335 63.9235C124.892 64.5916 125.469 64.2602 125.838 62.5927C126.058 61.6039 126.079 60.6151 126.165 59.6264C126.191 59.3164 126.079 58.9209 126.63 58.8942C126.956 60.5724 126.475 62.2025 126.32 63.8433C126.288 64.2014 126.165 64.49 126.614 64.6129C128.534 65.1153 130.235 66.1469 132.267 67.0982C131.395 64.5595 131.598 62.1811 131.572 59.8241C131.545 57.8092 131.176 55.837 130.293 54.0466C129.149 51.727 128.502 49.2684 127.817 46.8046C127.245 44.7522 126.871 42.609 125.774 40.7544C123.239 36.4787 120.629 32.2404 117.752 28.1891C115.923 25.613 113.468 23.9027 110.259 23.3576C108.906 23.1277 107.574 22.7055 106.259 22.2833C104.75 21.8023 103.205 21.8985 101.707 22.0695C100.809 22.171 99.8193 22.3528 99.0225 23.1277C92.9202 29.071 86.7323 34.9074 79.1806 39.0548C78.3463 39.5144 77.3676 39.8832 76.7579 40.562C74.5705 43.0205 72.3617 45.4844 70.4363 48.1514C66.3396 53.8274 63.152 60.0753 59.435 65.9972C59.2639 66.2751 59.2693 66.7936 58.2852 66.6867C63.6494 58.2421 67.6125 49.1455 74.7042 41.8768C73.3778 42.2723 72.9125 42.5502 72.1424 43.2985C67.5964 47.7131 63.7885 52.689 60.6063 58.1673C57.5043 63.5066 54.3436 68.8138 51.1239 74.0837C47.3962 80.1819 42.3903 85.2754 37.8123 90.7056C37.5448 91.0209 37.2132 91.4164 36.4645 91.4324C38.2455 89.3106 39.866 87.3331 41.5346 85.3983C44.5884 81.8602 47.6637 78.3273 50.1078 74.3402C53.6857 68.5092 57.0765 62.5606 60.633 56.7136C62.3659 53.8702 64.0131 50.9467 66.254 48.4454C67.4146 47.152 68.5858 45.8746 69.7517 44.5865C68.035 45.1424 66.1256 45.5753 64.9865 46.7511C62.7723 49.0386 60.5903 51.4117 58.804 54.0947C55.595 58.9102 52.338 63.6883 49.1344 68.5092C44.5403 75.4198 38.8551 81.4753 33.7209 87.9584C29.0305 93.8856 23.4684 99.0593 18.6175 104.864C17.0773 106.707 15.5798 108.557 14.5155 110.716C13.1249 113.543 11.7558 116.387 10.3653 119.219C7.40771 125.237 4.25761 131.159 3.84045 138.086C3.65862 141.143 3.31633 144.211 3.80837 147.225C4.76034 153.067 5.88882 158.882 6.30598 164.798C6.45038 166.872 7.09751 168.764 8.33829 170.512C11.3868 174.793 14.6706 178.892 17.6121 183.259C20.0883 186.931 23.832 189.56 26.5436 193.104C28.1801 195.242 31.0789 195.626 33.1486 197.246C34.5498 198.342 36.2238 198.951 37.9032 199.528C42.1603 200.982 46.5566 201.901 50.9421 202.879C54.7874 203.74 58.6649 204.253 62.5851 204.429C65.2058 204.547 67.8585 204.531 70.3668 203.504C75.6134 201.361 81.2504 200.105 85.9408 196.669C86.8767 195.979 88.0266 195.739 89.1978 195.691C91.6259 195.594 93.8401 194.766 95.621 193.173C97.5143 191.479 99.5092 189.934 101.493 188.363C104.012 186.364 103.97 186.305 102.798 183.377C101.702 180.635 100.606 177.888 99.461 175.023C98.6802 176.172 98.2149 177.364 96.9527 178.47C97.6052 175.958 100.386 174.232 98.3593 171.613C97.188 173.703 96.4232 176.054 94.7172 177.85C95.5515 175.739 96.4232 173.66 97.4982 171.682C98.4823 169.871 97.8672 168.262 97.2255 166.6L97.2362 166.578ZM101.21 172.858L101.183 172.821C101.787 175.285 101.718 178.176 105.253 178.684C104.451 179.443 103.895 178.534 103.215 178.882C103.301 179.128 103.376 179.384 103.478 179.63C105.098 183.499 106.852 187.321 108.28 191.26C108.922 193.029 109.804 193.82 111.644 194.039C113.275 194.232 114.923 194.499 116.554 194.819C114.169 195.53 111.842 194.702 109.51 194.488C109.451 196.252 110.387 196.909 111.821 197.144C112.848 197.315 113.907 197.438 114.858 197.812C115.511 198.069 116.361 197.657 117.03 198.497C114.618 198.807 112.553 197.844 110.318 197.577C110.559 198.187 110.714 198.694 110.954 199.159C111.179 199.592 111.19 200.223 111.89 200.292C112.741 200.373 113.607 200.394 114.425 200.613C115.441 200.88 116.57 200.666 117.511 201.254C115.629 201.629 113.826 201.03 111.847 200.982C112.115 201.548 112.318 202.067 112.596 202.548C114.612 206.07 116.746 209.517 118.511 213.184C119.442 215.118 120.538 216.973 121.592 218.844C121.779 219.18 121.881 219.629 122.405 219.72C124.223 220.03 126.058 220.276 127.844 220.725C129.336 221.099 130.892 220.816 132.363 221.27C129.213 221.879 126.149 221.12 122.838 220.634C123.806 222.205 125.234 222.874 126.325 223.905C127.047 224.589 127.844 224.846 128.807 224.691C131.507 224.263 134.251 224.594 136.957 224.172C137.989 224.012 139.064 224.194 140.134 224.087C136.449 225.332 132.556 225.081 128.464 225.546C129.384 226.273 129.785 227.352 130.753 227.261C134.647 226.909 138.53 226.417 142.418 225.973C142.439 226.112 142.466 226.257 142.487 226.396C138.872 227.438 135.096 227.588 131.074 227.999C131.978 228.865 132.689 229.56 133.417 230.233C133.636 230.436 133.791 230.613 134.235 230.564C137.465 230.244 140.733 230.687 143.963 230.174C144.199 230.137 144.53 230.046 144.808 230.58C141.455 231.184 138.129 231.168 134.679 231.398C137.417 234.621 140.418 237.213 144.183 238.817C149.798 241.211 155.355 243.803 161.639 243.931C163.698 243.974 165.704 244.236 167.458 242.611C168.324 241.81 169.314 240.96 170.512 240.58C170.587 240.677 170.662 240.778 170.742 240.874C169.41 241.949 168.078 243.028 166.806 244.054C169.71 245.85 171.405 242.921 173.972 242.066C173.175 243.354 171.838 243.616 171.362 244.674C173.844 245.476 175.02 243.477 176.7 242.189C176.561 243.643 175.218 243.974 174.748 245.145C177.326 245.027 179.775 245.289 181.941 243.499C184.738 241.184 187.615 238.966 190.086 236.273C188.525 239.757 185.182 241.59 182.39 244.348C184.134 243.835 185.583 243.515 187 243.007C191.568 241.377 195.376 238.501 199.232 235.706C202.227 233.536 204.692 230.778 207.436 228.325C212.19 224.076 215.581 218.886 217.742 212.938C219.122 209.143 219.903 205.145 221.534 201.431C222.876 198.379 223.834 195.199 224.047 191.901C224.384 186.728 223.93 181.57 223.047 176.086C222.882 177.182 222.662 177.93 222.673 178.673C222.726 181.463 222.267 184.162 221.512 186.834C219.641 193.435 217.908 200.089 213.784 205.776C213.645 205.968 213.453 206.214 213.479 206.407C213.763 208.528 212.362 210.212 212.003 212.157C211.95 212.441 211.768 212.745 211.42 212.612C211.019 212.457 211.265 212.147 211.351 211.896C211.768 210.575 212.185 209.255 212.602 207.935C212.009 208.309 211.618 208.78 211.212 209.245C209.345 211.372 206.832 212.9 205.045 214.969C203.254 217.048 202.505 220.019 201.061 222.478C200.847 222.841 200.633 223.328 199.863 223.162C201.189 220.682 202.457 218.309 203.879 215.642C200.446 217.54 197.472 219.49 194.253 220.875C191.103 222.227 187.696 222.954 184.038 222.59C184.455 221.847 184.941 221.885 185.423 221.826C186.359 221.714 187.3 221.564 188.225 221.377C192.616 220.484 196.231 217.994 200.002 215.776C206.623 211.874 211.811 206.556 214.988 199.635C217.785 193.542 219.705 187.08 220.384 180.335C220.951 174.713 220.683 169.112 219.844 163.537C218.999 157.947 216.966 152.671 215.185 147.364C212.276 138.695 206.944 131.32 201.253 124.302C197.012 119.07 192.092 114.404 186.942 110.026C184.604 108.044 182.749 105.564 180.315 103.682C175.283 99.7915 170.02 96.2373 164.688 92.7739C156.553 87.4934 148.697 81.796 140.808 76.1467C137.674 73.9019 134.31 71.9939 131.197 69.701C129.347 68.3382 127.261 67.3441 124.972 66.8898C122.49 66.3927 119.929 66.1362 117.527 65.3772C111.329 63.4211 106.039 65.8208 100.771 68.5199C100.525 68.6482 100.29 68.8513 100.124 69.0704C98.2577 71.6091 96.3805 74.1425 95.3483 77.1782C93.2197 83.4368 92.4335 89.813 92.995 96.435C93.3534 100.705 93.9203 104.928 94.669 109.134C95.7012 114.922 96.8457 120.694 97.9582 126.472C99.2364 133.083 100.456 139.711 101.846 146.301C103.798 155.568 107.077 164.403 110.912 173.04C114.896 182.024 119.624 190.586 125.988 198.133C130.652 203.659 136.011 208.373 142.648 211.468C143.819 212.013 144.98 212.601 145.964 213.435C147.702 214.91 149.638 215.92 151.836 216.545C155.376 217.561 158.837 218.967 162.484 219.48C167.838 220.228 173.191 221.115 178.839 221.126C177.994 222.029 177.074 222.072 176.165 222.115C170.18 222.425 164.313 221.591 158.548 220.078C153.376 218.721 148.076 217.609 143.824 213.975C143.193 213.435 142.338 213.136 141.551 212.788C136.203 210.404 131.481 207.139 127.427 202.911C126.748 202.2 126.143 201.345 124.892 201.971C124.453 202.19 123.934 201.81 123.469 201.49C123.731 201.105 124.02 201.174 124.293 201.174C124.64 201.174 125.068 201.666 125.314 201.174C125.555 200.693 124.972 200.485 124.721 200.191C123.512 198.774 122.143 197.47 121.068 195.958C116.955 190.191 113.308 184.146 110.296 177.717C106.366 169.32 103.205 160.651 100.959 151.651C99.5894 146.162 98.7871 140.566 97.6908 135.023C96.696 129.994 95.7494 124.954 94.7546 119.925C94.2091 117.172 94.054 114.345 93.1234 111.667C93.0164 115.018 93.3052 118.353 93.7384 121.651C94.6262 128.364 95.3269 135.098 95.8777 141.838C96.5195 149.689 97.3645 157.492 99.2417 165.162C99.4824 166.14 99.9049 166.605 100.718 167.011C101.627 167.471 102.734 167.674 103.526 168.93C102.119 168.347 101.007 167.882 99.8782 167.412C99.7124 168.871 100.333 169.625 101.659 170.063C103.055 170.523 104.376 171.201 105.734 171.784C103.852 171.934 102.381 170.779 100.531 170.416C100.515 171.351 100.729 172.137 101.221 172.858H101.21ZM76.0198 13.1974C70.3935 15.0199 64.8046 16.8264 59.4457 19.2689C59.2051 19.3758 58.9804 19.4453 58.8467 19.7873C57.8573 22.3528 56.4828 24.7311 55.103 27.0935C51.5037 33.2719 49.5837 39.8779 49.6371 47.0451C49.6425 47.9483 49.7976 48.269 50.7228 48.0445C53.1028 47.4726 55.4934 46.9435 57.8787 46.3823C60.3817 45.7891 62.7456 44.8217 65.0881 43.7741C66.0133 43.3626 66.2219 42.4166 65.9652 41.7645C65.7032 41.0858 65.0293 41.8928 64.5265 41.973C63.4141 42.1547 62.4193 42.8655 60.8791 42.8549C62.9221 41.3797 65.6015 41.647 66.714 39.3274C65.3823 39.8458 64.0452 40.3643 62.7135 40.888C63.5692 39.7603 64.7833 39.3541 65.9545 38.9319C66.8316 38.6165 67.2702 38.1035 67.3985 37.243C67.7194 35.1265 68.0243 33.0047 68.3559 30.8882C68.4896 30.0491 68.0884 29.878 67.3878 30.0491C66.6124 30.2361 65.8689 30.6156 64.9704 30.5354C65.9064 29.0763 68.2222 30.1079 68.9495 28.0502C66.6444 28.7022 64.5426 29.2955 62.291 29.9315C62.5744 29.0496 63.243 29.0603 63.719 28.9C65.1897 28.4029 66.7033 28.0128 68.1847 27.5478C68.5644 27.4302 69.0618 27.4783 69.2009 26.9118C69.8801 24.1218 70.9711 21.4816 72.4312 18.868C71.3081 18.852 70.5219 19.6323 69.4255 19.5254C70.4524 18.0236 72.7467 18.7398 73.6345 16.8478C72.6826 17.0936 71.9926 17.2753 71.3027 17.4517C71.2278 17.3288 71.153 17.2059 71.0781 17.0829C73.1158 16.3133 75.2283 15.6292 76.0198 13.192V13.1974ZM86.5611 27.7081C83.9459 29.2046 81.4162 30.653 78.7367 32.1816C78.7314 31.3639 79.1539 31.3371 79.4106 31.1821C81.475 29.9208 83.5715 28.7022 85.6199 27.4195C86.0584 27.1469 86.7002 27.04 86.7537 26.2918C87.0264 22.4329 88.203 18.7879 89.5722 15.0146C88.0854 15.3406 86.7376 15.6399 85.2936 15.9606C85.5343 15.2925 85.9835 15.1909 86.4488 15.0733C87.5024 14.8115 88.5453 14.4801 89.6096 14.277C90.2247 14.1594 90.4921 13.7051 90.3958 13.315C90.2835 12.8553 89.7915 13.16 89.4331 13.2455C88.0854 13.5662 86.7323 13.8494 85.3792 14.1487C86.2296 13.2294 87.3687 13.0477 88.4651 12.7912C91.1125 12.1659 92.5725 10.648 93.1341 7.82599C92.5939 7.90616 92.0805 7.95427 91.5724 8.05581C87.0906 8.95906 82.8923 10.7442 78.5977 12.23C78.1859 12.3743 77.7954 12.5614 77.5655 12.9569C75.6829 16.1262 73.8485 19.3117 72.3563 22.6895C70.34 27.2538 69.6448 32.1549 68.6233 36.9757C68.2222 38.8517 67.6766 40.701 67.1365 42.8014C73.9126 39.6641 80.1914 36.1954 85.9675 31.8556C86.8392 31.2035 87.2618 30.5782 86.5611 29.5787C84.6679 30.7652 82.7693 31.9571 80.7637 33.2184C80.753 32.4435 81.2076 32.3045 81.5392 32.08C82.9992 31.1073 84.4754 30.1453 85.9408 29.1779C86.4221 28.8572 86.9355 28.5419 86.5611 27.7135V27.7081ZM88.0693 29.9742C90.8076 27.5692 93.5352 25.1747 96.2574 22.7857L96.0435 22.465C94.7011 23.1438 93.3641 23.8225 92.0217 24.496C94.0486 22.0802 97.6159 21.7755 99.2631 18.9055C97.1827 19.7446 95.3589 21.1021 93.1341 21.5831C95.3803 20.108 97.6426 18.6489 100.049 17.4891C100.932 17.0616 101.258 16.479 101.841 15.6185C100.386 15.8483 99.4182 17.0135 97.7549 16.789C99.5038 15.8857 101.028 15.239 102.392 14.3518C103.889 13.3737 104.173 11.471 105.216 10.1242C105.451 9.81955 105.697 9.52025 105.857 9.17819C106.023 8.82544 106.649 8.56356 106.269 8.10392C105.98 7.75117 105.44 7.88478 105.039 7.98633C104.146 8.21615 103.258 8.27494 102.328 8.0665C103.456 7.61755 104.611 7.14188 105.788 7.09378C108.601 6.97619 111.425 7.06171 114.243 7.06171C114.725 7.06171 115.179 7.16326 115.65 7.28618C116.479 7.50531 116.5 7.97565 116.126 8.55287C113.976 11.8665 113.062 15.704 111.585 19.301C111.398 19.7606 110.97 20.2737 111.462 21.0861C112.789 18.4298 113.655 15.7254 115.302 13.2348C115.586 14.0525 115.153 14.4534 114.96 14.913C114.179 16.7409 113.382 18.5581 112.618 20.3913C112.473 20.7387 112.104 21.1663 112.837 21.3907C113.414 21.5671 113.575 21.2518 113.762 20.8295C114.399 19.4025 115.051 17.9862 115.709 16.5698C116.602 14.6618 117.506 12.7591 118.533 10.5731C118.757 11.7757 118.287 12.4705 117.966 13.1813C116.827 15.7307 115.639 18.2588 114.5 20.8082C114.334 21.1769 113.853 21.6526 114.431 22.0107C115.388 22.6093 116.399 23.1171 117.394 23.6408C117.41 23.6462 117.57 23.4324 117.624 23.3041C118.057 22.3421 118.485 21.3747 119.035 20.1347C118.399 20.6318 118.025 20.9204 117.554 21.2945C117.939 19.4079 118.773 17.9541 119.864 16.5912C123.223 12.3796 126.63 8.2108 130.705 4.65127C131.326 4.11146 131.149 3.83888 130.641 3.36321C129.641 2.4172 128.625 1.49792 127.962 0.225896C127.603 -0.463563 126.887 -0.965963 126.336 -1.54853C126.742 0.295375 127.657 1.75981 128.475 3.33114C126.405 2.21945 125.571 0.0174527 124.207 -1.73025C121.549 -0.23909 119.656 2.06446 118.025 4.6192C117.549 5.36211 117.035 5.73089 116.089 5.67744C114.372 5.58124 112.639 5.5171 110.928 5.66675C106.419 6.0676 101.927 6.6181 97.418 7.05636C95.6852 7.22739 94.3214 7.66566 93.7384 9.60576C93.3213 10.99 92.487 12.2514 91.8238 13.5608C89.2085 18.6756 88.0266 24.1272 88.08 29.9903L88.0693 29.9742ZM42.8556 47.7773C42.8396 47.6437 42.8235 47.5101 42.8075 47.3818C43.2032 47.2589 43.5937 47.0718 44.0001 47.0183C45.0858 46.874 46.1768 46.7939 47.2625 46.6602C47.808 46.5908 48.3482 46.4304 48.2145 45.7089C48.0648 44.8965 47.5674 45.3455 47.1342 45.4363C46.5887 45.5486 46.0217 45.5539 45.2837 45.618C45.872 44.7736 46.5994 45.0034 47.1449 44.7415C47.5834 44.5277 48.145 44.6934 48.2573 43.9184C48.4017 42.9618 47.4444 43.4535 46.8989 42.8228C48.2626 42.8228 48.1557 42.0157 48.3001 41.2515C48.8028 38.6433 49.3162 36.0297 50.4928 33.6033C51.2202 32.1068 51.8513 30.5622 52.5412 29.0122C51.6267 28.9748 50.9421 29.5948 50.0382 29.3329C51.1079 28.0876 53.4344 28.7022 53.8515 26.6445C53.0653 26.388 52.4663 27.2698 51.5518 26.7193C55.2367 26.0726 56.1833 23.1277 57.4348 20.3485C57.2209 20.3058 57.1139 20.247 57.0444 20.279C52.1294 22.326 47.1663 24.2555 42.3796 26.5964C42.0052 26.7781 41.6576 26.9973 41.4276 27.4088C39.2456 31.3959 36.9833 35.3403 35.3574 39.6053C34.0204 43.1114 33.047 46.6389 33.8011 50.4603C33.9669 51.2994 34.368 51.4063 34.9456 51.2406C35.6462 51.0375 36.3629 51.0803 37.0528 50.9467C40.5987 50.2519 44.0643 49.1776 47.653 48.6966C48.2038 48.6217 48.2145 48.3492 48.2199 47.9269C48.2199 47.4513 48.0648 47.1947 47.5567 47.2535C47.1823 47.2963 46.8026 47.3337 46.4282 47.3764C45.2356 47.5101 44.0429 47.6437 42.8503 47.7826L42.8556 47.7773ZM61.4085 11.4978C59.8415 10.5838 58.3547 9.7661 56.916 8.8682C54.0975 7.10447 51.4555 5.06815 48.5354 3.45407C47.8936 3.10132 47.3748 2.88753 46.5833 3.20821C43.722 4.35731 41.2137 6.10502 38.6359 7.73514C35.9939 9.40267 33.1807 10.7762 30.282 12.4277C32.6191 13.2882 34.7049 14.1327 36.7212 15.1749C40.1173 16.9226 43.353 18.9963 47.1021 20.0385C49.9955 20.8456 52.691 20.9044 55.4827 19.5254C58.4135 18.077 61.5102 16.9547 64.5479 15.7307C65.7299 15.2551 67.0135 15.0466 68.281 14.3304C67.1686 13.9563 66.0668 13.1706 65.3395 13.4325C63.8527 13.967 62.3017 13.9884 60.8149 14.3892C60.1303 14.5709 59.3709 14.8809 58.2157 14.5603C60.4031 13.5608 62.4675 13.5448 64.4624 12.9141C61.9166 11.3321 59.4992 12.9622 56.7556 13.021C58.2905 11.9093 59.8255 11.8933 61.4085 11.5031V11.4978ZM79.3143 5.22315C76.5226 3.74268 74.3565 2.05377 72.4526 0.0548668C71.875 -0.554423 71.2653 -0.752175 70.4417 -0.730797C66.1203 -0.618559 61.815 -0.233743 57.5578 0.487784C54.7714 0.963458 51.9262 1.26811 49.0595 2.35841C52.7979 4.7154 56.3759 7.0243 60.0127 9.24233C62.6974 10.8778 65.5855 12.1071 68.5537 13.1386C69.3292 13.4112 70.078 13.7639 71.0086 13.4218C75.9877 11.5993 80.999 9.84093 86.3151 7.94892C84.7428 7.78858 83.6624 6.53793 82.3468 6.94947C80.5872 7.49463 78.7902 7.34498 77.0253 7.68703C78.3944 6.62345 80.154 7.01361 81.7959 6.34552C79.555 5.20177 77.4157 6.29208 74.9021 6.3188C76.3621 5.39952 77.6297 5.40487 79.3197 5.22315H79.3143ZM17.9758 25.5596C18.7619 25.6771 19.4198 25.7199 20.0509 25.8749C24.1422 26.869 28.0892 28.451 32.2876 29.0229C33.5979 29.1993 35.09 29.536 36.1971 28.8572C40.497 26.2116 44.8612 23.7103 49.6585 21.8076C46.5031 20.3165 43.5348 21.7809 40.5077 22.0161C41.7218 21.0113 43.3637 21.1449 45.0056 20.3165C41.8181 19.4987 39.406 21.4602 36.6891 21.535C38.3417 20.3752 40.4115 20.2363 42.1122 19.4132C40.5238 17.3609 38.7749 19.1299 36.764 19.3437C37.5983 18.4084 38.5664 18.3657 39.2616 17.735C36.1008 16.2812 33.2502 14.4534 29.9664 13.5715C29.3781 13.4112 29.0572 13.47 28.5973 13.8601C26.1639 15.9499 24.1422 18.4244 22.0511 20.8349C20.7194 22.3688 19.4037 23.9134 17.9865 25.5542L17.9758 25.5596ZM28.3406 49.5891C29.5011 48.9959 30.9024 49.2043 32.0362 48.5576C29.7418 48.2316 27.4742 49.0386 25.1958 48.4186C26.7629 48.1193 28.3406 47.9109 29.9236 47.8414C31.2393 47.7826 32.432 47.7612 32.2234 45.9067C32.1645 45.4043 32.2822 44.8324 32.4854 44.3674C33.0898 42.9618 32.5229 42.5021 31.1698 42.5662C31.1323 42.5662 31.0896 42.4273 31.004 42.2669C31.8223 41.8233 33.4642 42.4914 33.3465 40.717C32.8224 40.5192 32.2715 40.8399 31.7848 40.5353C31.9025 39.9901 32.341 40.0917 32.7047 40.0756C33.4535 40.0436 33.9027 39.6908 34.1808 38.9693C35.5553 35.367 37.1865 31.8876 39.4488 28.3388C36.4752 29.8299 33.9936 31.4868 31.4639 33.0581C28.485 34.902 25.5702 36.6604 23.7197 39.91C21.8318 43.2236 19.9706 46.4839 19.2861 50.2786C19.1791 50.8772 18.8101 51.6041 20.0402 51.5827C23.7251 51.5239 27.41 51.5613 31.0949 51.5399C31.8811 51.5399 32.6298 51.5025 32.4533 50.3C32.2715 49.0547 31.3837 49.5196 30.8275 49.6212C29.9878 49.7762 29.1963 49.9098 28.3406 49.5891ZM24.0674 33.0047C25.6825 31.8609 27.4795 31.0004 28.9075 29.5787C26.8591 30.0918 25.2226 31.6151 22.7731 32.064C24.2439 30.7118 25.9553 30.4072 27.2228 29.2474C26.8645 29.1672 26.6292 29.1298 26.3992 29.0656C23.8374 28.3762 21.3398 27.4729 18.7245 26.9705C17.2912 26.698 16.2483 26.869 15.2642 28.1571C13.756 30.1346 12.3708 32.1923 10.9536 34.2286C9.66465 36.0832 8.52013 38.0393 7.23122 40.081C9.84649 40.0382 12.2746 40.2039 14.708 40.3001C16.7617 40.3803 18.9064 40.4658 20.7729 39.1991C24.4364 36.7192 28.1213 34.2713 31.7902 31.7968C32.5443 31.289 33.3946 30.8882 34.0525 30.1399C31.6565 29.7124 29.5653 29.9422 27.656 31.4494C26.6452 32.2457 25.49 32.9405 24.0674 32.9993V33.0047ZM14.601 48.5148C15.323 47.3657 16.2322 47.4406 16.9596 47.2856C17.9865 47.0664 18.6817 46.7458 19.0721 45.6341C19.5214 44.3567 20.2327 43.1542 20.9333 41.9783C21.6018 40.8506 22.4094 39.8084 23.1528 38.7234C16.6762 42.9564 10.039 46.8313 4.10252 51.7377C7.45049 46.9863 13.0287 45.0301 17.4088 41.198C14.7027 41.198 12.2532 41.3423 9.8251 41.1553C7.53607 40.9789 6.09205 41.5508 4.7443 43.6566C2.33761 47.4245 1.28936 51.7377 -1.01572 55.7141C4.74429 53.6831 10.2797 51.9942 16.1627 51.8178C16.489 51.8072 16.8152 51.6789 17.1307 51.5773C17.8795 51.3422 17.7939 50.6527 17.719 50.1557C17.6281 49.541 17.0184 49.8403 16.6494 49.8884C15.8097 50.006 14.9754 50.2144 14.1197 50.3855C14.1037 49.9526 14.2802 49.8938 14.462 49.8189C15.3444 49.4395 16.2857 49.3326 17.2163 49.1562C17.7565 49.0547 18.2913 48.8088 18.056 48.1193C17.8634 47.5475 17.3393 47.8307 16.9649 47.9056C16.2857 48.0392 15.6225 48.2423 14.601 48.5095V48.5148ZM73.3297 -0.981996C73.5383 -0.629249 73.5864 -0.495632 73.6773 -0.399428C77.3462 3.64647 82.1328 5.81106 87.1548 7.56945C87.4543 7.67634 87.8287 7.64962 88.1496 7.59617C91.658 7.03499 95.1557 6.42569 98.6641 5.88588C100.589 5.59193 102.531 5.39952 104.462 5.16436C101.429 3.99922 98.2416 4.66196 95.1557 4.02594C97.1773 3.29373 99.3487 3.8656 101.413 3.33648C96.2628 1.44448 91.1232 3.21356 85.9675 3.38993C89.6417 2.20342 93.4603 1.9736 97.279 1.69568C94.6476 0.664159 91.9521 0.204518 89.155 0.477095C88.9037 0.503818 88.31 0.899322 88.5774 0.300721C88.9946 -0.634592 88.3368 -0.362016 87.9784 -0.426152C83.1918 -1.2813 78.3677 -0.965962 73.3297 -0.98734V-0.981996ZM101.825 19.3918C104.002 19.3544 105.916 19.3651 107.703 20.0278C109.098 20.5463 109.89 20.3432 110.05 18.7398C110.088 18.3763 110.313 18.0343 110.457 17.6762C111.639 14.6939 112.821 11.7169 114.34 8.83079C112.949 8.60631 111.692 8.34977 110.425 8.21615C109.238 8.09323 107.922 7.80996 107.628 9.63249C107.553 10.1082 107.114 10.5357 106.82 10.9686C105.034 13.6089 103.879 16.6019 101.825 19.3865V19.3918ZM150.579 189.619C150.756 189.689 150.959 189.726 151.114 189.833C154.36 192.019 157.671 194.082 161.211 195.787C168.036 199.068 175.197 199.977 182.551 198.427C187.059 197.476 190.685 194.841 193.375 191.03C193.814 190.405 194.269 189.785 194.729 189.175C200.938 180.977 202.922 171.88 201.007 161.763C199.574 154.216 196.445 147.375 193.006 140.619C192.493 139.609 191.808 138.647 191.06 137.792C186.931 133.078 181.909 129.529 176.16 127.119C171.041 124.975 165.656 123.757 160.136 122.998C155.82 122.405 151.676 122.453 147.729 124.468C144.621 126.05 142.038 128.188 140.487 131.421C139.46 133.559 139.225 135.948 138.209 138.097C137.77 139.021 137.508 140.058 137.358 141.074C136.717 145.531 136.075 149.988 135.545 154.467C134.641 162.099 136.086 169.261 139.385 176.124C141.107 179.705 143.899 182.511 146.194 185.68C147.868 187.994 149.868 188.518 152.505 187.722C152.344 187.572 152.232 187.428 152.082 187.337C148.595 185.236 146.258 181.998 143.744 178.935C143.423 178.545 143.156 178.165 143.37 177.535C143.969 175.75 144.45 173.922 144.99 172.115C145.097 171.757 145.151 171.437 144.824 170.806C143.696 173.029 143.397 175.199 142.894 177.487C141.653 175.782 140.615 174.328 141.862 172.179C142.835 170.496 142.658 170.394 142.557 169.598C141.46 170.64 141.428 172.185 140.626 173.371C139.797 172.073 139.626 170.779 140.193 169.395C140.391 168.914 140.508 168.406 140.674 167.914C140.755 167.674 140.824 167.412 140.551 167.294C140.225 167.155 140.022 167.353 139.931 167.679C139.776 168.224 139.61 168.759 139.444 169.304C138.621 167.241 140.07 165.52 140.198 163.233C139.086 164.472 139.064 165.734 138.61 166.856C138.134 166.279 138.075 165.6 137.904 164.97C137.198 162.313 137.246 159.571 137.048 156.867C136.679 151.795 137.706 146.83 138.567 141.881C139.262 137.888 140.428 134.056 143.033 130.705C146.295 126.509 150.408 124.382 155.676 124.478C158.885 124.537 162.046 125.173 165.164 125.82C171.368 127.103 177.186 129.46 182.604 132.789C186.717 135.317 189.958 138.674 192.343 142.843C195.44 148.262 197.488 154.066 198.558 160.229C199.162 163.708 199.724 167.172 199.307 171.036C198.996 170.17 199.226 169.4 198.51 169.042C198.087 169.47 198.365 169.855 198.414 170.261C198.633 172.067 199.558 173.82 198.873 175.702C196.75 181.522 194.948 187.46 190.247 191.976C188.118 194.023 185.835 195.723 183.299 197.16C182.957 197.353 182.604 197.422 182.214 197.433C178.534 197.54 174.903 197.011 171.293 196.466C165.672 195.61 160.607 193.302 156.056 189.956C154.307 188.668 152.59 189.208 150.825 189.224C150.745 189.357 150.67 189.485 150.59 189.619H150.579ZM100.274 125.921C102.108 132.56 102.761 139.422 103.921 146.178C105.141 153.259 106.89 160.149 109.746 166.739C112.527 173.158 116.238 179.079 119.838 185.055C119.929 185.204 120.046 185.381 120.421 185.124C120.196 184.659 119.966 184.157 119.709 183.67C117.292 179.154 114.425 174.895 112.222 170.25C109.944 165.445 107.874 160.56 106.59 155.403C104.52 147.092 103.467 138.583 101.948 130.165C101.654 128.535 101.44 126.846 100.333 125.376C100.311 125.558 100.231 125.761 100.274 125.927V125.921ZM205.511 206.289C209.072 200.656 213.228 195.381 215.02 188.743C216.282 184.077 217.619 179.432 218.015 174.617C218.432 169.518 217.688 164.44 217.138 159.379C217.073 158.77 217.159 157.952 216.325 157.407C216.351 158.011 216.357 158.481 216.4 158.946C216.758 162.928 217.33 166.904 217.432 170.891C217.56 175.899 216.33 180.752 215.196 185.611C213.169 194.285 208.484 201.431 202.858 208.079C204.008 208.063 204.912 207.246 205.516 206.294L205.511 206.289ZM171.79 216.952C168.191 216.032 164.49 215.792 160.832 215.263C153.253 214.172 146.317 211.634 140.385 206.669C140.107 206.433 139.856 206.129 139.417 206.514C139.658 206.775 139.867 207.037 140.113 207.256C143.503 210.18 147.338 212.329 151.563 213.788C156.211 215.386 161.046 216.107 165.902 216.636C168.292 216.898 170.651 217.352 173.106 217.807C172.812 217.123 172.266 217.08 171.79 216.957V216.952ZM170.742 100.743C168.768 98.2201 166.073 97.226 163.709 95.7562C161.356 94.2972 159.217 92.5601 157.083 90.8018C154.943 89.0327 152.868 87.1567 150.424 85.7671C156.296 91.8226 163.18 96.4992 170.742 100.743ZM126.753 70.6952C126.892 70.8127 127.01 70.9731 127.17 71.0479C132.738 73.5813 137.797 76.9163 142.551 80.7431C142.91 81.0317 143.279 81.3257 143.937 80.866C138.572 76.7453 133.262 72.7475 126.951 70.3798C126.887 70.4867 126.817 70.5936 126.753 70.6952ZM143.134 185.092C140.375 182.195 138.658 178.604 136.524 175.295C136.198 174.788 136.043 174.071 135.203 173.916C135.096 174.633 135.508 175.076 135.775 175.536C136.759 177.219 137.754 178.892 138.797 180.538C140.428 183.125 142.236 185.573 144.562 187.599C145.049 188.021 145.477 188.465 145.883 188.294C145.001 187.257 144.119 186.129 143.129 185.092H143.134ZM186.68 234.172C186.61 234.236 186.524 234.311 186.503 234.391C186.46 234.562 186.455 234.744 186.434 234.92C186.61 234.942 186.829 235.038 186.958 234.963C187.289 234.781 187.621 234.562 187.883 234.295C190.118 232.002 192.151 229.538 193.798 226.786C194.049 226.369 194.434 225.915 194.001 225.247C191.98 228.608 189.45 231.489 186.685 234.172H186.68ZM151.44 231.607C147.932 232.339 144.418 233.076 140.915 233.846C140.583 233.921 139.861 233.643 139.984 234.327C140.097 234.931 140.755 234.781 141.204 234.691C142.455 234.445 143.707 234.193 144.942 233.867C147.338 233.242 149.804 232.836 152.13 231.628C151.9 231.617 151.654 231.559 151.435 231.607H151.44ZM172.491 138.759C175.17 143.35 178.155 147.503 179.229 152.591C179.845 150.197 174.994 140.181 172.491 138.759ZM133.101 76.5529C136.556 78.9527 139.797 81.3417 142.985 83.7949C141.872 81.6624 134.625 76.4086 133.101 76.5529ZM175.523 232.628C173.015 235.674 169.694 237.619 166.287 240.057C168.635 240.158 175.545 234.418 175.523 232.628ZM161.024 122.095C157.072 120.272 152.911 119.599 148.595 119.866C152.777 120.406 156.938 121.031 161.024 122.095ZM178.978 233.365C177.106 236.395 174.01 238.181 171.384 240.703C173.801 240.591 179.39 235.027 178.978 233.365ZM156.259 195.76C156.2 195.642 156.168 195.482 156.072 195.407C153.494 193.478 150.911 191.554 148.317 189.64C147.991 189.4 147.969 189.432 146.964 189.71C150.05 191.869 153.045 193.959 156.04 196.054C156.115 195.958 156.184 195.856 156.259 195.76ZM205.035 218.16C204.291 219.758 203.532 221.35 202.772 222.948C205.452 220.41 206.19 216.845 207.628 213.659C206.366 214.947 205.762 216.588 205.035 218.16ZM96.4874 84.6608C95.375 88.6372 95.9793 92.4853 97.4501 96.28C96.7709 92.4479 96.0649 88.6051 96.4874 84.6608ZM181.187 127.813C180.026 125.959 172.587 122.116 170.715 122.431C174.454 123.784 177.775 125.889 181.187 127.813ZM184.877 231.131C186.615 231.158 191.151 225.797 191.332 223.472C189.407 226.417 187.161 228.705 184.877 231.131ZM184.284 128.872C187.214 131.138 189.771 133.826 192.707 136.092C190.172 133.372 187.797 130.448 184.284 128.872ZM100.097 74.6288C98.0598 77.1301 97.8566 77.8463 98.2577 78.7389C99.7712 75.9329 101.67 73.3996 104.135 71.2243C101.953 71.2938 101.215 73.2552 100.097 74.6288ZM129.486 216.962C126.994 217 124.571 216.476 122.132 216.091C121.843 216.043 121.389 215.503 121.26 216.23C121.175 216.722 121.635 216.839 122.004 216.93C124.662 217.572 127.347 217.657 130.144 217.47C129.967 216.92 129.705 216.962 129.486 216.968V216.962ZM212.95 159.668C213.993 162.848 213.421 166.183 214.191 169.737C215.041 167.321 214.084 160.223 212.95 159.668ZM169.763 231.313C172.175 230.794 176.229 226.422 176.181 224.514C174.528 227.224 172.084 228.966 169.763 231.313ZM165.356 231.804C167.886 230.121 169.843 227.86 171.801 225.599C169.458 227.47 167.073 229.308 165.356 231.804ZM193.509 177.054C193.552 175.91 193.579 174.756 193.472 173.617C193.44 173.259 193.659 172.452 192.948 172.527C192.456 172.58 192.664 173.243 192.67 173.649C192.691 175.082 192.718 176.519 192.771 177.952C192.809 178.919 192.627 179.908 193.247 180.859C193.338 179.592 193.456 178.32 193.504 177.048L193.509 177.054ZM195.921 172.297C195.932 172.206 195.911 172.105 195.889 172.014C195.825 171.752 195.654 171.613 195.376 171.634C195.124 171.656 195.092 171.864 195.087 172.046C195.06 174.542 194.515 177.027 195.066 179.544C195.707 177.166 195.643 174.707 195.921 172.292V172.297ZM213.041 175.413C212.469 178.695 211.896 181.971 211.319 185.252C211.447 185.274 211.57 185.301 211.698 185.322C212.747 182.137 213.041 178.807 213.495 175.504C213.346 175.472 213.191 175.445 213.041 175.413ZM152.307 175.488C152.365 175.247 152.526 175.034 152.141 174.98C151.857 174.943 151.724 175.119 151.654 175.381C151.424 176.193 151.125 176.995 150.959 177.823C150.552 179.833 149.83 181.8 150.199 183.916C150.793 181.068 151.606 178.288 152.312 175.488H152.307ZM147.809 182.393C148.686 179.405 149.766 176.477 149.991 173.345C148.937 176.295 148.012 179.256 147.809 182.393ZM196.194 227.817C194.648 229.832 193.108 231.842 191.568 233.857C191.461 233.996 191.295 234.193 191.493 234.343C191.846 234.605 192.145 234.386 192.354 234.113C193.846 232.168 195.429 230.287 196.499 228.063C196.397 227.978 196.296 227.897 196.194 227.812V227.817ZM209.383 178.732C210.014 175.835 210.49 172.917 210.704 169.956C210.565 169.935 210.426 169.908 210.287 169.887C209.811 172.81 209.335 175.734 208.864 178.657C209.04 178.684 209.212 178.705 209.388 178.732H209.383ZM172.737 119.241C175.058 120.988 177.839 121.902 180.321 123.367C178.197 121.266 175.443 120.299 172.737 119.241ZM181.989 234.942C180.577 237.186 178.411 238.56 176.844 240.682C178.534 240.452 181.995 236.588 181.989 234.942ZM158.949 213.034C158.708 212.997 158.414 212.965 158.377 213.264C158.318 213.723 158.687 213.745 159.029 213.793C160.34 213.969 161.645 214.285 162.955 214.317C164.062 214.343 165.142 214.969 166.298 214.162C163.848 213.788 161.399 213.408 158.949 213.034ZM171.405 233.584C169.4 235.123 167.463 236.615 165.522 238.1C166.987 238.282 171.106 234.942 171.405 233.584ZM153.382 234.562C151.274 234.242 149.178 234.61 147.081 234.792C146.798 234.819 146.493 234.984 146.552 235.332C146.616 235.727 147.001 235.626 147.253 235.604C149.306 235.407 151.36 235.182 153.414 234.963C153.403 234.829 153.392 234.696 153.382 234.562ZM181.786 169.48C181.743 169.261 181.625 168.983 181.31 169.117C180.994 169.256 181 169.534 181.091 169.844C181.401 170.934 181.652 172.046 182.005 173.12C182.422 174.387 182.711 175.734 183.727 176.717C183.086 174.28 182.235 171.939 181.786 169.48ZM180.743 158.171C180.882 159.903 181.326 161.602 181.871 163.259C181.962 163.532 182.123 163.826 182.46 163.767C182.786 163.708 182.711 163.414 182.626 163.195C181.711 160.924 181.519 158.46 180.748 155.761C180.208 156.84 180.69 157.503 180.743 158.166V158.171ZM152.232 185.028C152.745 182.618 153.259 180.202 153.772 177.791C153.622 177.759 153.478 177.727 153.328 177.7C152.349 180.015 152.098 182.484 151.809 184.953L152.232 185.033V185.028ZM136.513 183.334C134.642 181.207 133.369 178.866 131.673 176.557C131.663 178.294 134.802 182.623 136.513 183.334ZM197.67 176.541C197.67 174.691 197.67 172.837 197.665 170.988C197.665 170.768 197.665 170.469 197.322 170.485C197.039 170.496 196.916 170.715 196.895 170.972C196.729 172.858 196.825 174.718 197.242 176.557C197.387 176.557 197.531 176.546 197.675 176.546L197.67 176.541ZM107.28 69.8935C109.168 68.5733 111.093 67.328 113.308 66.5851C110.724 66.6118 108.735 67.7716 107.28 69.8935ZM154.927 237.144C152.927 236.561 151.05 237.117 149.221 237.881C151.2 238.149 153.055 237.609 154.927 237.144ZM146.777 86.6169C147.996 87.595 149.226 88.5623 150.456 89.5244C150.777 89.7756 151.216 90.3101 151.52 89.8985C151.9 89.3854 151.183 89.1289 150.852 88.8777C149.381 87.7607 147.878 86.6864 146.338 85.564C146.113 86.184 146.493 86.3978 146.777 86.6222V86.6169ZM146.498 179.587C146.974 177.487 147.45 175.392 147.905 173.286C147.937 173.136 147.846 172.853 147.745 172.81C147.488 172.703 147.253 172.922 147.199 173.131C146.664 175.322 146.14 177.519 146.119 179.747C146.45 179.886 146.472 179.699 146.498 179.582V179.587ZM125.004 206.465C122.597 206.652 120.554 205.771 118.196 205.776C119.672 207.048 123.523 207.465 125.004 206.465ZM184.064 166.829C184.016 166.648 183.898 166.327 183.599 166.391C183.203 166.471 183.251 166.819 183.342 167.081C183.84 168.46 184.337 169.839 184.888 171.196C185.118 171.768 185.3 172.436 186.22 172.805C185.401 170.694 184.583 168.818 184.064 166.835V166.829ZM175.742 194.729C175.165 192.794 175.967 190.747 174.983 188.636C174.266 191.153 174.673 194.226 175.742 194.729ZM176.32 140.699C177.4 142.896 178.481 145.087 179.566 147.284C179.716 147.209 179.866 147.134 180.016 147.065C179.16 144.788 178.01 142.656 176.769 140.566C176.62 140.609 176.47 140.657 176.32 140.699ZM189.263 184.633C189.332 184.349 189.263 184.013 188.888 183.986C188.498 183.959 188.493 184.301 188.455 184.584C188.375 185.29 188.22 185.995 188.214 186.701C188.209 187.652 187.899 188.662 188.541 189.673C189.252 187.962 188.862 186.241 189.257 184.633H189.263ZM163.698 130.224C165.479 132.025 167.255 133.821 169.036 135.622C167.335 133.762 165.902 131.597 163.698 130.224ZM164.003 228.523C163.795 228.678 163.656 228.924 163.816 229.132C164.046 229.431 164.335 229.255 164.559 229.079C165.57 228.293 166.586 227.513 167.57 226.7C167.977 226.364 168.506 226.07 168.533 225.172C166.913 226.374 165.453 227.449 164.003 228.528V228.523ZM101.183 172.821C102.761 173.104 104.087 174.05 105.601 174.52C106.178 174.697 106.692 174.83 107.665 174.713C105.558 173.788 103.852 173.019 102.124 172.297C101.648 172.099 101.007 171.848 101.21 172.858C101.21 172.858 101.183 172.821 101.178 172.821H101.183ZM185.567 165.092C186.359 167.097 187.065 169.138 188.797 170.656C187.883 168.721 186.974 166.787 186.059 164.852C185.893 164.932 185.733 165.012 185.567 165.092ZM137.166 181.538C136.139 179.694 135.422 177.652 133.78 176.215C134.679 178.144 135.529 180.111 137.166 181.538ZM113.222 166.952C112.334 165.071 111.441 163.19 110.553 161.303C110.43 161.362 110.307 161.415 110.184 161.474C110.633 163.564 111.671 165.376 112.874 167.113C112.992 167.059 113.104 167.006 113.222 166.952ZM190.707 174.275C190.878 176.252 191.044 178.224 191.215 180.202C191.37 180.186 191.52 180.17 191.675 180.159C191.423 178.187 192.017 176.145 191.247 174.216C191.065 174.237 190.889 174.259 190.707 174.275ZM144.814 164.467C145.589 162.511 146.873 160.806 147.563 158.812C146.081 160.427 144.921 162.206 144.814 164.467ZM199.205 228.197C198.141 229.838 196.531 231.083 195.771 232.927C197.435 231.703 198.676 230.201 199.205 228.197ZM161.345 176.632C161.286 176.423 161.078 176.204 160.8 176.375C160.57 176.519 160.521 176.797 160.618 177.011C161.318 178.55 161.998 180.111 163.629 180.961C162.832 179.518 161.784 178.24 161.345 176.632ZM185.449 152.474C185.728 154.531 185.883 156.611 186.765 158.54C186.68 156.439 186.401 154.382 185.449 152.474ZM171.015 158.941C170.335 156.979 169.688 155.119 169.047 153.265C168.635 154.911 169.854 158.107 171.015 158.941ZM113.923 170.448C114.457 172.372 115.5 174.013 116.714 175.563C116.11 173.676 115.163 171.982 113.923 170.448ZM121.244 208.074C120.988 208.042 120.742 208.304 120.768 208.496C120.79 208.651 121.105 208.871 121.298 208.876C122.897 208.945 124.48 209.474 126.159 208.764C124.523 208.528 122.886 208.288 121.244 208.074ZM148.317 162.762C148.445 162.548 148.606 162.335 148.333 162.174C148.226 162.115 147.916 162.206 147.846 162.319C146.846 163.895 146.071 165.557 146.135 167.471C146.798 165.841 147.44 164.248 148.322 162.762H148.317ZM215.49 206.685C214.635 208.427 214.132 210.255 214.148 212.211C214.897 210.442 215.485 208.63 215.49 206.685ZM167.709 194.889C167.501 192.831 167.303 190.886 167.084 188.694C166.271 190.421 166.645 193.761 167.709 194.889ZM169.897 195.178C170.271 192.959 169.774 191.217 169.453 189.459C169.282 191.249 168.891 193.072 169.897 195.178ZM145.247 130.839C143.61 131.961 142.487 133.473 141.899 135.382C142.931 133.794 144.477 132.602 145.247 130.839ZM191.568 183.654C191.643 183.366 191.712 182.885 191.242 182.858C190.824 182.837 190.776 183.275 190.776 183.601C190.766 185.172 190.771 186.749 190.771 188.32C191.573 186.845 191.172 185.199 191.568 183.654ZM160.393 179.395C159.495 177.674 158.601 175.953 157.703 174.237C157.591 174.296 157.478 174.36 157.361 174.419C157.912 176.338 158.81 178.069 160.083 179.609C160.185 179.539 160.286 179.464 160.388 179.395H160.393ZM145.798 88.0172C144.578 86.665 143.188 85.564 141.439 84.9707C142.744 86.2 144.033 87.4453 145.798 88.0172ZM179.77 172.57C179.727 172.302 179.695 171.768 179.262 171.88C178.748 172.019 178.983 172.5 179.09 172.837C179.54 174.264 180.149 175.621 181.16 176.856C181.021 175.349 180.021 174.082 179.77 172.57ZM141.236 138.583C142.445 137.102 143.653 135.627 144.867 134.147C144.734 134.04 144.605 133.938 144.471 133.832C143.15 135.221 141.92 136.686 140.92 138.332C141.027 138.417 141.129 138.497 141.236 138.583ZM208.741 218.571C207.463 219.795 206.43 221.179 205.901 222.911C207.292 221.762 207.981 220.142 208.741 218.571ZM181.256 185.819C180.722 184.205 179.887 182.724 179.005 181.271C178.903 181.1 178.705 181.003 178.534 181.164C178.454 181.239 178.401 181.452 178.449 181.543C179.256 183.04 180.08 184.526 180.898 186.017C181.016 185.953 181.139 185.889 181.256 185.824V185.819ZM153.831 186.305C154.2 184.429 154.553 182.671 154.9 180.913C153.66 182.27 153.194 185.135 153.831 186.305ZM182.642 155.862C182.717 157.744 182.765 159.63 183.487 161.421C183.535 159.518 183.396 157.642 182.642 155.862ZM172.015 195.161C172.218 193.526 171.886 191.853 172.239 190.223C172.293 189.977 172.271 189.742 171.935 189.721C171.721 189.705 171.539 189.801 171.539 190.015C171.528 191.725 171.533 193.435 171.533 195.145C171.694 195.151 171.854 195.156 172.015 195.161ZM174.218 174.558C174.871 176.049 175.721 177.423 176.748 178.695C176.86 178.63 176.973 178.566 177.085 178.502C176.293 177.097 175.507 175.686 174.716 174.28C174.55 174.371 174.379 174.467 174.213 174.558H174.218ZM143.707 161.907C144.338 159.817 145.21 158.203 146.156 156.231C144.578 157.375 143.418 160.058 143.707 161.907ZM98.3539 87.9691C98.7604 86.2428 99.0973 84.5111 99.0813 82.5603C98.3218 83.6559 97.8993 86.7078 98.3539 87.9691ZM189.193 165.37C189.134 165.183 188.942 164.916 188.664 165.13C188.439 165.301 188.509 165.525 188.616 165.761C189.193 167.038 189.798 168.299 191.017 169.133C190.605 167.759 189.632 166.701 189.193 165.37ZM150.857 164.692C149.477 165.034 148.194 167.193 148.189 169.085C149.034 167.658 149.745 166.145 150.857 164.692ZM166.699 153.201C166.576 153.249 166.453 153.297 166.33 153.345C166.453 154.991 167.137 156.413 168.405 157.61C167.838 156.14 167.266 154.67 166.699 153.201ZM168.822 163.714C169.437 165.135 169.859 166.648 171.245 167.711C170.63 166.311 170.009 164.911 169.394 163.51L168.822 163.714ZM165.928 213.178C164.442 212.494 162.923 211.928 161.254 211.976C162.725 212.735 164.292 213.103 165.928 213.178ZM123.715 210.196C123.453 210.1 123.266 210.169 123.105 210.383C122.934 210.618 123.143 210.784 123.271 210.827C124.394 211.195 125.507 211.88 126.694 210.939C125.683 210.672 124.672 210.543 123.72 210.196H123.715ZM173.758 167.973C173.036 166.573 172.314 165.173 171.592 163.778C171.459 163.847 171.325 163.917 171.191 163.991C171.656 165.525 172.325 166.958 173.416 168.171L173.758 167.979V167.973ZM178.031 190.544C178.026 190.367 177.78 190.084 177.609 190.052C177.304 189.993 177.277 190.309 177.267 190.544C177.213 191.703 177.347 192.826 178.053 193.863C178.053 192.756 178.074 191.65 178.031 190.544ZM163.003 188.363C161.816 189.293 161.57 191.132 162.441 192.532C162.538 191.116 162.548 189.715 163.003 188.363ZM185.278 189.256C185.337 188.983 185.278 188.668 184.915 188.593C184.701 188.55 184.492 188.71 184.503 188.882C184.588 189.988 183.941 191.062 184.412 192.553C185.107 191.308 185.059 190.25 185.273 189.256H185.278ZM166.287 178.149C166.287 178.08 166.084 177.941 165.993 177.957C165.704 178.01 165.656 178.256 165.688 178.502C165.848 179.956 166.431 181.18 167.699 182.03C167.314 180.699 166.265 179.619 166.287 178.149ZM103.895 74.1799C104.06 73.9875 104.43 73.8004 104.141 73.4958C103.895 73.2446 103.59 73.4423 103.387 73.6294C102.483 74.4685 101.852 75.484 101.611 76.8255C102.376 75.9436 103.141 75.0671 103.9 74.1799H103.895ZM108.852 71.2777C108.943 71.422 109.034 71.561 109.131 71.7053C110.382 70.9357 111.639 70.1607 112.89 69.3911C111.2 69.4766 109.986 70.3157 108.852 71.2777ZM176.523 167.198C175.994 165.787 174.994 164.713 173.924 163.665C174.261 165.221 175.416 166.188 176.523 167.198ZM178.598 177.455C178.085 176.161 177.566 174.862 177.053 173.569C176.924 173.623 176.796 173.676 176.668 173.729C176.737 175.205 177.432 176.439 178.245 177.626C178.363 177.572 178.486 177.513 178.604 177.46L178.598 177.455ZM127.186 203.537C125.726 203.98 124.186 203.595 122.726 204.066C124.245 204.215 125.812 204.691 127.186 203.537ZM106.162 176.006C104.879 175.659 103.734 174.766 102.301 174.975C103.494 175.664 104.702 176.295 106.162 176.006ZM187.006 190.191C187.006 188.999 187.006 187.813 187.006 186.621C187.006 186.364 186.824 186.108 186.61 186.118C186.294 186.134 186.075 186.434 186.204 186.733C186.674 187.85 186.241 189.063 186.578 190.191C186.722 190.191 186.867 190.191 187.011 190.191H187.006ZM163.992 178.155C163.928 177.898 163.762 177.583 163.404 177.711C163.233 177.77 163.158 177.984 163.26 178.198C163.8 179.309 163.998 180.64 165.538 181.581C164.939 180.18 164.276 179.256 163.992 178.155ZM139.728 144.649C140.637 143.543 141.546 142.431 142.455 141.325C142.343 141.229 142.236 141.138 142.124 141.041C141.017 141.998 140.113 143.131 139.401 144.43C139.508 144.505 139.621 144.58 139.728 144.649ZM208.377 222.526C208.334 222.617 208.361 222.815 208.436 222.884C208.596 223.039 208.816 222.98 208.928 222.825C209.607 221.853 210.121 220.81 209.885 219.496C209.383 220.506 208.869 221.511 208.383 222.526H208.377ZM165.319 193.024C164.693 191.468 165.025 190.137 164.805 188.78C164.003 189.865 164.153 191.901 165.319 193.024ZM180.764 181.175C181.059 182.484 181.807 183.521 182.765 184.451C182.38 183.189 181.888 181.987 180.764 181.175ZM152.628 239.062C153.826 238.817 155.018 238.565 156.216 238.32C154.863 237.774 153.638 237.94 152.628 239.062ZM192.108 165.739C192.028 165.552 191.91 165.237 191.611 165.37C191.29 165.515 191.306 165.798 191.466 166.081C191.969 166.952 192.407 167.872 193.493 168.812C193.183 167.449 192.509 166.648 192.108 165.739ZM189.723 180.122C189.963 178.855 189.814 177.684 188.963 176.69C188.803 177.936 189.134 179.058 189.723 180.122ZM150.916 227.368C150.691 227.411 150.478 227.63 150.601 227.897C150.659 228.02 150.921 228.159 151.05 228.122C151.996 227.86 153.109 227.972 153.991 226.85C152.799 227.048 151.852 227.187 150.916 227.368ZM183.492 179.764C183.439 179.619 183.326 179.389 183.102 179.48C182.861 179.576 182.743 179.822 182.829 180.063C183.166 181.02 183.524 181.966 184.508 182.591C184.171 181.65 183.845 180.704 183.492 179.769V179.764ZM168.153 179.448C168.469 180.71 168.961 181.859 170.491 182.826C169.694 181.394 169.095 180.325 168.501 179.25C168.383 179.315 168.271 179.379 168.153 179.443V179.448ZM112.5 161.88C112.5 163.174 113.051 164.232 113.955 165.151C113.735 163.949 113.329 162.816 112.5 161.88ZM177.224 164.553C177.042 164.355 176.812 164.072 176.534 164.408C176.283 164.713 176.577 164.959 176.764 165.125C177.39 165.686 178.053 166.204 178.7 166.739C178.614 165.67 177.812 165.199 177.224 164.558V164.553ZM171.223 214.092C170.924 214.092 170.64 214.146 170.672 214.541C170.699 214.84 170.94 214.878 171.18 214.894C171.918 214.942 172.657 214.985 173.395 215.028C172.833 214.301 172.063 214.098 171.223 214.087V214.092ZM156.783 182.099C155.778 183.227 155.981 184.355 156.173 185.488C156.574 184.478 157.045 183.473 156.783 182.099ZM158.837 183.109C157.601 184.151 157.671 185.247 157.89 186.375C158.371 185.44 158.676 184.461 158.837 183.109ZM140.086 146.824C140.824 145.825 141.519 144.874 142.348 143.751C140.829 144.334 139.984 145.547 140.086 146.824ZM193.894 165.237C193.814 166.391 194.098 167.412 195.189 168.15C194.873 167.145 194.563 166.14 194.247 165.135C194.13 165.173 194.012 165.205 193.894 165.242V165.237ZM184.535 158.406C184.647 157.295 185.038 156.151 184.102 155.205C184.46 156.247 183.781 157.45 184.535 158.406ZM142.819 158.78C143.423 157.749 144.22 156.803 144.311 155.531C143.413 156.423 142.937 157.519 142.819 158.78ZM149.905 169.732C150.574 168.786 151.146 167.984 151.713 167.182C150.36 167.669 149.986 168.246 149.905 169.732ZM180.438 193.269C180.24 192.58 180.048 191.896 179.85 191.206C179.796 191.025 179.732 190.827 179.486 190.886C179.251 190.939 179.272 191.158 179.272 191.329C179.262 192.142 179.609 192.799 180.091 193.392C180.208 193.35 180.326 193.312 180.444 193.269H180.438ZM6.87823 139.411C8.86242 130.79 11.4777 122.431 16.6815 115.093C19.2379 111.491 21.6928 107.819 24.185 104.169C24.3936 103.859 24.8589 103.565 24.3615 102.988C22.6234 105.441 20.9654 107.905 19.1845 110.272C13.018 118.455 8.76615 127.504 6.70709 137.557C6.47177 138.711 5.99578 139.876 6.5413 141.378C7.00659 140.55 6.75523 139.957 6.87823 139.406V139.411ZM84.577 122.335C86.0156 116.274 87.8929 110.304 88.294 104.035C88.3154 103.672 88.5721 103.18 88.0266 103.11C87.6736 103.062 87.6201 103.522 87.5987 103.869C87.342 108.525 86.1012 112.998 85.1492 117.53C84.716 119.593 83.9191 121.592 83.8549 123.837C84.6679 123.436 84.47 122.79 84.577 122.335ZM49.712 79.1451C46.963 83.6185 43.3049 87.2796 39.4916 90.8124C39.2509 91.0316 38.6305 91.0797 38.9728 91.5393C39.2884 91.9669 39.6627 91.4966 39.9194 91.2828C44.9681 87.1246 48.8563 81.9991 52.1347 76.3551C51.0437 77.0339 50.3538 78.0975 49.712 79.1397V79.1451ZM10.8145 132.453C12.8843 127.049 14.6813 121.512 18.2325 116.803C14.0288 121.175 12.2692 126.739 10.8145 132.453ZM64.4784 137.829C66.4572 132.827 68.3666 127.803 68.8693 122.383C67.6552 127.605 65.8422 132.656 64.4784 137.829ZM70.7251 134.345C72.2493 129.417 73.9715 124.532 73.9233 119.267C73.1586 124.355 71.5701 129.267 70.7251 134.345ZM65.9278 173.81C63.5853 178.187 61.8899 182.874 59.6329 187.299C62.4996 183.168 64.2698 178.518 65.9278 173.81ZM89.9786 127.637C89.3796 132.415 88.1816 136.728 87.1655 141.063C89.1176 137.14 90.7755 129.385 89.9786 127.637ZM83.764 143.692C84.47 141.517 85.1599 139.337 85.8873 137.172C86.4274 135.563 86.9088 133.944 87.2136 132.271C87.2831 131.891 87.2083 131.555 86.8232 131.48C86.5665 131.432 86.4809 131.747 86.4595 131.993C86.1975 134.745 85.0155 137.252 84.3309 139.892C84.01 141.127 83.3362 142.287 83.3843 143.607C83.5073 143.634 83.6357 143.666 83.7587 143.692H83.764ZM97.2629 166.61C96.6051 166.471 96.5142 166.979 96.343 167.407C95.0969 170.517 93.6475 173.526 91.9575 176.423C91.7222 176.824 91.3104 177.219 91.4868 178C92.7918 176.487 93.6208 174.873 94.4016 173.259C95.4552 171.084 96.8564 169.048 97.2308 166.578C97.2308 166.578 97.2576 166.61 97.2629 166.61ZM61.2106 174.21C59.4511 177.385 58.3173 180.848 56.793 184.157C58.8253 181.11 60.2694 177.775 61.2106 174.21ZM87.0692 151.693C85.8498 155.044 84.6893 158.299 83.0527 161.367C84.8551 159.972 87.7217 153.083 87.0692 151.693ZM83.6731 107.691C83.0741 111.037 82.4805 114.388 81.8815 117.733C82.0312 117.755 82.1756 117.782 82.3254 117.803C83.1436 114.5 83.978 111.202 84.1331 107.787C83.978 107.755 83.8229 107.723 83.6731 107.691ZM43.476 196.578C44.0322 195.931 44.6419 195.322 45.1126 194.616C46.1073 193.131 47.423 191.842 48.0113 190.089C48.0915 189.854 48.2306 189.635 47.9578 189.491C47.685 189.352 47.5299 189.571 47.423 189.795C46.1875 192.366 44.3103 194.499 42.6042 196.76C43.0107 197.064 43.2567 196.829 43.476 196.572V196.578ZM87.6682 161.159C88.5293 158.47 89.8503 155.921 90.2086 153.078C90.0696 153.035 89.9305 152.987 89.7861 152.944C88.909 155.627 88.0266 158.31 87.1495 160.988C87.3206 161.047 87.4917 161.1 87.6629 161.159H87.6682ZM83.1757 150.817C83.272 150.566 83.2934 150.304 83.0634 150.192C82.6677 149.999 82.5874 150.421 82.5072 150.63C81.967 152.03 81.4429 153.436 80.9509 154.857C80.6353 155.766 80.0631 156.621 80.4909 157.706C81.3841 155.408 82.2772 153.11 83.1757 150.817ZM12.9752 135.355C13.9325 132.816 14.8898 130.283 15.8472 127.744C15.6974 127.691 15.5423 127.637 15.3926 127.584C14.3069 130.096 13.1035 132.565 12.5901 135.28C12.7185 135.307 12.8468 135.328 12.9752 135.355ZM54.1243 190.624C52.2792 192.462 51.1774 194.771 50.0703 197.08C51.7925 195.167 53.0653 192.965 54.1243 190.624ZM50.3538 189.913C49.113 192.056 47.8776 194.205 46.6368 196.348C46.7438 196.412 46.8507 196.476 46.9523 196.546C48.6852 194.702 49.696 192.414 50.8244 190.196C50.6693 190.1 50.5089 190.009 50.3538 189.913ZM84.9513 151.923C83.9298 154.425 82.9671 156.776 81.8975 159.39C83.2773 158.337 85.3792 153.19 84.9513 151.923ZM68.2917 177.674C67.222 179.961 66.1524 182.249 65.0828 184.536C65.2165 184.6 65.3555 184.665 65.4892 184.729C66.7995 182.543 67.9387 180.271 68.7516 177.845C68.5965 177.786 68.4468 177.727 68.2917 177.674ZM55.8945 175.739C54.8784 177.85 53.8569 179.961 52.8407 182.078C52.9691 182.142 53.0921 182.206 53.2204 182.27C54.627 180.357 55.5522 178.198 56.3331 175.963C56.1887 175.889 56.0389 175.814 55.8945 175.739ZM81.3894 108.167C81.3894 108.086 81.229 107.926 81.1274 107.91C80.8172 107.873 80.7476 108.108 80.7209 108.359C80.6621 108.968 80.646 109.588 80.5498 110.187C80.2717 111.865 79.9561 113.538 79.6566 115.211C80.8921 113.003 81.2397 110.604 81.3948 108.167H81.3894ZM80.3572 187.829C78.8223 189.534 77.2874 191.244 75.7524 192.949C75.8754 193.056 75.9931 193.163 76.1161 193.269C77.651 191.57 79.5229 190.186 80.769 188.224C80.63 188.096 80.4963 187.962 80.3572 187.834V187.829ZM71.3134 136.792C70.5165 138.952 69.7196 141.111 68.9228 143.27C69.0511 143.318 69.1795 143.366 69.3078 143.415C70.3882 141.378 71.0995 139.198 71.7734 137.001C71.6183 136.931 71.4685 136.862 71.3134 136.798V136.792ZM78.464 193.841C79.7529 192.323 81.0418 190.816 82.3147 189.288C82.4002 189.186 82.3147 188.946 82.3147 188.769C82.1435 188.796 81.8922 188.753 81.8119 188.855C80.5498 190.394 79.1699 191.853 78.1377 193.563C78.25 193.66 78.357 193.75 78.4693 193.847L78.464 193.841ZM120.244 37.8683C120.586 39.7122 120.923 41.5615 121.292 43.4C121.33 43.5871 121.447 43.8757 121.747 43.8436C121.956 43.8222 122.105 43.6459 122.057 43.4428C121.587 41.5508 121.453 39.5732 120.651 37.7721C120.517 37.8042 120.378 37.8362 120.244 37.8629V37.8683ZM79.4962 163.147C78.3998 164.937 77.5387 166.712 76.7579 168.721C78.0575 167.861 79.8385 164.243 79.4962 163.147ZM84.6037 131.25C83.9833 133.351 83.4699 135.307 83.2934 137.354C84.3416 135.873 85.1064 132.319 84.6037 131.25ZM12.0018 161.592C11.574 163.671 11.8521 165.707 12.3655 167.733C12.6543 165.659 12.4885 163.612 12.0018 161.592ZM119.511 44.2979C119.576 42.0532 119.314 39.9153 118.805 37.724C118.281 38.5417 118.832 43.6619 119.511 44.2979ZM58.6596 142.992C57.7343 144.863 56.6914 146.696 56.4935 148.823C57.253 146.894 58.5312 145.146 58.6596 142.992ZM82.6035 165.007C81.7638 166.749 80.9295 168.492 80.0898 170.234C81.6141 168.802 82.4912 167.054 83.0795 165.162C82.919 165.108 82.7586 165.06 82.6035 165.007ZM58.7023 133.783C59.5099 131.79 60.0929 129.748 60.0929 127.6C59.3762 129.625 58.7237 131.635 58.7023 133.783ZM80.4428 129.983C79.6245 131.843 78.9025 133.73 78.8758 135.788C79.662 133.906 80.3091 132.014 80.4428 129.983ZM80.9776 164.227C80.2075 165.873 79.4373 167.524 78.6725 169.17C78.8116 169.24 78.9453 169.309 79.0844 169.379C80.0738 167.84 80.9562 166.247 81.3948 164.424C81.2557 164.36 81.1167 164.291 80.9776 164.227ZM81.6194 136.135C82.1007 134.334 82.5874 132.527 83.0688 130.726C82.9351 130.689 82.8014 130.657 82.6676 130.619C81.7691 132.324 81.3306 134.158 81.2611 136.092C81.3787 136.108 81.4964 136.119 81.6194 136.135ZM79.8545 150.224C79.9454 150.01 80.3037 149.711 79.8866 149.523C79.5764 149.385 79.3892 149.641 79.2715 149.946C78.71 151.469 77.9826 152.928 77.7473 154.574C78.7955 153.286 79.2234 151.709 79.8545 150.224ZM88.7646 186.252C90.1498 184.878 91.2248 183.291 92.1768 181.613C92.0431 181.517 91.9094 181.42 91.781 181.324C90.6686 182.885 89.5615 184.44 88.4491 186.001L88.7646 186.252ZM68.0189 139.903C67.0669 141.485 66.5856 143.238 66.2433 145.077C67.1579 143.489 67.8103 141.774 68.0189 139.903ZM18.286 180.929C17.3019 179.352 16.3125 177.775 15.3284 176.193C15.2054 176.273 15.0824 176.354 14.9594 176.434C15.7295 178.149 16.6868 179.747 17.9758 181.142L18.2806 180.929H18.286ZM50.0222 83.5811C51.0437 82.1915 52.0545 80.7966 52.7284 79.1878C52.6161 79.1183 52.5091 79.0435 52.3968 78.974C51.4502 80.4117 50.5035 81.8495 49.5569 83.2872C49.712 83.3834 49.8671 83.4796 50.0169 83.5811H50.0222ZM55.9213 142.971C54.9533 144.403 54.5414 146.007 54.4505 147.68C55.1244 146.146 55.9159 144.671 55.9213 142.971ZM10.269 162.238C10.285 162.035 10.1567 161.875 9.92671 161.87C9.64861 161.87 9.47746 162.041 9.47211 162.303C9.44002 163.73 9.0817 165.173 9.85184 166.61C9.99089 165.151 10.1353 163.697 10.2636 162.238H10.269ZM89.2192 174.82C87.9945 176.129 87.1762 177.658 86.7216 179.379C87.8126 177.994 88.77 176.546 89.2192 174.82ZM56.0175 191.442C55.1511 192.43 54.1831 194.622 54.1831 195.6C55.2367 194.579 56.2154 192.356 56.0175 191.442ZM116.934 53.5014C117.554 51.8125 117.661 50.487 117.26 48.4721C116.859 49.7014 116.693 52.9242 116.934 53.5014ZM62.7349 127.589C62.2749 129.235 61.8578 130.732 61.355 132.543C62.5851 131.245 63.2751 128.685 62.7349 127.589ZM15.3765 167.979C15.4781 166.274 15.2589 164.627 14.4673 163.088C14.4246 164.782 14.7134 166.418 15.3765 167.979ZM91.3371 186.07C92.1286 184.996 92.995 183.97 93.3694 182.655L92.995 182.436C92.3158 183.574 91.6366 184.713 90.9627 185.851C91.0857 185.926 91.2141 185.995 91.3371 186.07ZM29.5707 107.782C28.6187 108.605 27.6614 109.423 26.7201 110.262C26.6078 110.363 26.5168 110.598 26.5596 110.732C26.6131 110.903 26.8056 110.983 26.9982 110.807C27.9769 109.92 28.961 109.043 29.945 108.161C29.822 108.038 29.699 107.915 29.576 107.787L29.5707 107.782ZM70.2117 180.154C69.1688 181.025 68.773 182.243 68.4896 183.526C69.2437 182.5 69.9817 181.452 70.2117 180.154ZM82.2398 192.607C83.0955 191.586 83.9726 190.715 84.4005 189.507C83.0634 190.17 82.2612 191.372 82.2398 192.607ZM57.2637 195.161C57.5418 193.756 58.5259 192.965 58.5098 191.65C57.3867 192.5 56.8679 193.777 57.2637 195.161ZM18.5052 176.567C18.4731 176.444 18.3555 176.183 18.0988 176.29C17.9062 176.37 17.826 176.546 17.8902 176.749C18.2699 177.888 18.6229 179.037 19.6658 179.817C19.3556 178.689 18.7994 177.679 18.5052 176.567ZM23.586 109.855C23.6716 109.941 23.7518 110.026 23.8374 110.107C24.5808 109.203 25.3242 108.3 26.2494 107.178C25.1156 108.065 24.2278 108.84 23.586 109.855ZM15.8579 134.601C16.4355 133.484 16.7671 132.372 16.7724 131.175C15.8418 132.394 15.5102 133.762 15.8579 134.601ZM42.7647 192.013C41.6202 192.617 41.0212 193.729 40.2724 194.702C41.4972 194.178 42.1924 193.152 42.7647 192.013ZM93.1662 153.746C92.257 154.991 91.8452 155.996 92.1126 157.214C92.4067 156.167 93.1608 155.285 93.1662 153.746ZM87.5185 190.688C86.251 190.838 85.6787 191.634 85.545 192.847C86.2028 192.126 86.8606 191.41 87.5185 190.688ZM118.827 51.6789C119.148 50.7703 118.966 49.8938 118.586 49.0279C118.303 49.9365 118.249 50.8237 118.827 51.6789ZM58.9484 43.2664C57.3172 43.1381 56.2154 43.4535 55.1993 44.1803C56.3705 44.1429 57.5739 44.1803 58.9484 43.2664ZM57.8466 42.0371C57.8466 42.0371 57.7931 41.7432 57.7236 41.7218C56.9428 41.4652 56.3331 42.0692 55.6218 42.1868C55.5683 42.1975 55.5362 42.3364 55.3918 42.6143C56.3705 42.7266 57.1407 42.5075 57.852 42.0371H57.8466ZM85.7054 25.3832C83.9352 26.3132 82.1596 27.2431 80.3893 28.1731L80.5498 28.4884C82.5179 27.9486 84.2454 26.9331 85.9194 25.8214C85.8498 25.6771 85.775 25.5328 85.7054 25.3832ZM84.9674 23.8974C83.4699 24.218 82.4858 25.3404 81.2985 26.1475C82.8762 25.9497 83.9405 24.9556 84.9674 23.8974ZM122.309 1.52999C120.565 3.5663 119.105 5.78968 117.96 8.21081C118.083 8.29098 118.201 8.3658 118.324 8.44597C119.768 6.22795 121.212 4.00991 122.651 1.78654L122.303 1.52465L122.309 1.52999ZM41.2458 39.477C42.5454 39.4663 43.8129 39.322 44.9682 38.6272C43.6204 38.3974 42.4171 38.8677 41.2458 39.477ZM41.7111 37.9859C42.8717 37.7614 43.7274 37.7454 44.3852 37.0506C43.4707 36.8849 42.6363 36.9864 41.7111 37.9859ZM73.0034 8.02375C73.1532 7.97564 73.3564 7.82065 73.3671 7.69772C73.3885 7.49997 73.1425 7.31291 72.982 7.38773C72.137 7.77255 71.0032 7.50532 70.3026 8.5689C71.3348 8.5689 72.1691 8.29632 73.0034 8.02909V8.02375ZM20.821 34.5279C21.0028 34.4531 21.2382 34.2607 21.0403 33.972C20.9066 33.7743 20.714 33.7743 20.5482 33.8972C19.8316 34.4263 18.8101 34.4263 18.0774 35.4204C19.1845 35.4204 19.976 34.8646 20.8264 34.5279H20.821ZM10.7717 44.4689C11.8948 43.71 13.2426 43.2397 13.9646 41.9676C11.8146 42.9243 11.4028 43.2557 10.7717 44.4689ZM90.1819 5.60262C90.4172 5.59727 90.706 5.60262 90.722 5.29263C90.7381 5.01471 90.4386 4.81161 90.2461 4.87574C89.3903 5.1697 88.3367 4.76351 87.6629 5.73089C88.5025 5.54383 89.3422 5.624 90.1765 5.60262H90.1819Z" fill="#332C0D"/>
</g>
<defs>
<clipPath id="clip0_400_1394">
<rect width="229.368" height="251.61" fill="white"/>
</clipPath>
</defs>
</svg>
