<svg width="230" height="253" viewBox="0 0 230 253" fill="none" xmlns="http://www.w3.org/2000/svg">
<path d="M63.403 53.0445C62.467 53.2155 61.622 53.3118 60.8091 53.5255C57.6911 54.3379 54.5838 55.1931 51.4711 56.0268C43.8767 58.0578 36.1699 58.8755 28.2973 58.5869C20.6066 58.3037 13.087 59.5169 5.7814 61.9968C4.39086 62.4671 3.12868 63.2742 1.67397 63.5788C1.30495 63.659 0.930572 63.9423 0.625725 63.5895C0.390404 63.3169 0.609681 62.9749 0.705948 62.6542C1.41726 60.3293 2.52969 58.154 3.32122 55.8665C5.27866 50.1905 8.71757 45.4017 12.1404 40.5861C13.8251 38.2185 15.0124 35.5194 16.9378 33.3067C17.0928 33.125 17.2159 32.9059 17.3923 32.7509C21.9811 28.7157 25.4361 23.681 29.3777 19.0739C31.2228 16.92 33.4637 15.2471 36.0736 14.0713C38.9563 12.7725 41.5128 10.8912 44.1387 9.1756C48.6847 6.21466 53.7013 4.73953 58.9532 3.69733C68.3233 1.83204 77.7897 1.54343 87.256 2.07789C94.1658 2.46805 100.996 3.71871 107.178 7.18204C108.301 7.81271 109.419 8.50217 110.371 9.35197C111.125 10.0254 111.777 10.0575 112.692 9.87575C114.997 9.41611 117.361 9.24508 119.682 9.53903C120.672 9.66196 120.998 9.32524 121.426 8.65182C122.886 6.35362 124.586 4.22644 126.373 2.17944C128.015 0.303471 129.197 0.255369 131.149 1.79463C131.673 2.20617 132.245 2.65512 132.55 3.22165C133.566 5.11366 134.999 6.54603 136.78 7.73254C137.791 8.40596 137.743 9.17025 136.791 9.89712C133.727 12.2327 131.518 15.3914 128.86 18.1119C125.854 21.185 124.966 25.3646 122.923 28.9294C122.592 29.5067 122.731 29.9449 123.153 30.458C126.496 34.4879 129.148 38.9881 131.721 43.5097C133.133 45.9896 133.609 48.849 134.144 51.6442C134.727 54.6693 136.048 57.4752 136.786 60.4576C137.31 62.5794 137.69 64.7172 137.567 66.9139C137.465 68.7257 137.615 70.5215 137.877 72.312C137.984 73.0496 138.353 73.568 138.994 74.0223C150.589 82.2851 162.163 90.564 174.095 98.3512C185.187 105.588 195.14 114.262 203.948 124.187C210.452 131.515 215.944 139.617 220.159 148.42C223.191 154.753 224.903 161.669 226.373 168.58C226.716 170.199 227.395 171.739 227.796 173.347C228.598 176.597 228.641 179.959 229.149 183.256C229.828 187.655 229.967 192.086 229.86 196.538C229.77 200.247 229.053 203.791 227.497 207.126C225.635 211.113 224.806 215.442 223.25 219.52C221.25 224.779 218.453 229.509 214.516 233.608C208.74 239.632 202.242 244.629 194.824 248.461C189.556 251.182 183.887 252.128 178.068 252.304C175.662 252.379 173.266 251.743 170.875 251.422C168.672 251.128 166.447 250.77 164.259 250.738C160.815 250.679 157.622 249.803 154.467 248.643C149.958 246.986 145.353 245.441 141.631 242.283C139.085 240.123 136.834 237.617 134.449 235.271C132.502 233.352 130.416 231.588 128.196 230.006C125.849 228.333 124.335 226.088 123.068 223.582C120.655 218.814 118.324 214.015 115.355 209.536C113.238 206.34 112.007 202.7 111.178 198.948C110.767 197.078 109.97 195.346 109.05 193.267C107.371 196.196 104.429 197.398 102.338 199.574C100.145 201.861 97.4657 203.256 94.3049 203.625C92.4812 203.839 90.973 204.619 89.5075 205.693C85.5766 208.579 80.7739 209.488 76.3724 211.316C73.0993 212.679 69.6924 212.941 66.2268 212.753C61.7771 212.513 57.3969 211.824 53.0595 210.787C48.2782 209.643 43.4648 208.617 38.8868 206.757C38.844 206.741 38.7905 206.735 38.7477 206.714C35.0521 204.742 31.0624 203.021 28.2439 199.942C24.9708 196.361 20.9489 193.331 18.6117 189.029C16.2318 184.657 13.5523 180.573 10.4664 176.677C8.32714 173.973 7.79767 170.504 7.32168 167.132C6.58363 161.883 5.20914 156.715 4.8615 151.424C4.2732 142.562 5.94185 134.107 10.0279 126.165C11.3596 123.573 12.7234 120.98 13.8197 118.287C16.8094 110.97 22.1362 105.337 27.4095 99.7621C37.7743 88.8216 47.1284 77.1275 55.3539 64.5088C57.8087 60.7462 60.2154 56.9354 63.189 53.5416C63.2746 53.4454 63.296 53.2957 63.4083 53.0392L63.403 53.0445ZM101.236 171.578L101.263 171.61C101.407 170.226 100.963 168.981 100.466 167.495C98.6369 170.905 97.0646 174.17 94.9734 177.142C94.8076 176.565 95.1285 176.159 95.3478 175.726C96.8132 172.861 98.2786 169.996 99.7601 167.137C100.124 166.437 100.177 165.785 100.049 164.967C99.4552 161.252 99.0541 157.506 98.4711 153.786C98.2091 152.129 98.3321 150.435 97.9631 148.773C97.0913 150.894 96.7116 153.177 95.2783 155.026C96.4281 150.467 98.9418 146.132 97.1715 141.183C95.8131 144.652 94.9253 148.329 93.2459 151.985C92.9946 151.327 93.1229 151.049 93.2352 150.718C94.1017 148.169 94.9199 145.603 95.781 143.048C96.5404 140.804 97.4336 138.58 97.0485 136.138C96.4923 132.594 96.1928 129.024 95.8398 125.347C95.1713 126.314 95.3906 127.501 94.4707 128.281C95.8452 124.23 95.7917 120.125 95.1766 115.924C93.6952 120.82 92.2351 125.662 90.7697 130.505C90.4649 130.232 90.406 130.008 90.4542 129.804C90.6788 128.891 90.9462 127.987 91.1815 127.073C92.8555 120.515 95.7863 114.246 94.8344 107.127C94.2461 102.723 94.4814 98.2336 94.6793 93.7601C94.8611 89.7089 95.3906 85.8126 96.7651 82.0072C98.0861 78.3621 100.113 74.9362 102.835 72.4456C106.108 69.4473 110.136 67.0903 114.928 66.9673C115.724 66.946 115.938 66.6199 116.051 65.8557C116.281 64.295 116.676 62.7611 117.051 60.9974C117.57 61.628 117.479 62.1465 117.404 62.6328C117.222 63.798 117.013 64.9684 116.767 66.1229C116.687 66.5024 116.404 66.8711 117.045 66.9673C117.532 67.0422 117.907 66.8711 118.003 66.3474C118.126 65.6953 118.136 65.0112 118.35 64.3966C118.682 63.4185 118.543 62.2427 119.704 61.1951C119.297 62.9963 118.933 64.4447 118.661 65.9091C118.559 66.4436 118.286 67.1277 119.318 67.2934C120.292 67.4484 120.244 66.962 120.361 66.2725C120.57 65.0646 120.693 63.814 121.303 62.3816C121.682 63.8942 121.158 64.9898 120.966 66.1229C120.827 66.962 120.757 67.5499 121.96 67.8545C123.474 68.2394 123.586 67.459 123.774 66.4275C124.314 63.4773 124.929 60.5431 124.977 57.3256C125.624 57.8494 125.485 58.3571 125.49 58.7954C125.506 61.6601 124.848 64.4447 124.287 67.2185C124.052 68.389 124.64 68.2661 125.308 68.4638C126.341 68.7631 126.26 68.0577 126.362 67.4484C126.998 63.488 127.239 59.5062 127.223 55.4977C127.218 54.37 127.223 53.2423 127.223 52.0451C128.047 52.3871 127.779 52.9964 127.785 53.4721C127.833 58.2823 127.913 63.0978 126.961 67.8545C126.892 68.202 126.726 68.6616 127.335 68.9235C128.892 69.5916 129.469 69.2602 129.838 67.5927C130.058 66.6039 130.079 65.6151 130.165 64.6264C130.191 64.3164 130.079 63.9209 130.63 63.8942C130.956 65.5724 130.475 67.2025 130.32 68.8433C130.288 69.2014 130.165 69.49 130.614 69.6129C132.534 70.1153 134.235 71.1469 136.267 72.0982C135.395 69.5595 135.598 67.1811 135.572 64.8241C135.545 62.8092 135.176 60.837 134.293 59.0466C133.149 56.727 132.502 54.2684 131.817 51.8046C131.245 49.7522 130.871 47.609 129.774 45.7544C127.239 41.4787 124.629 37.2404 121.752 33.1891C119.923 30.613 117.468 28.9027 114.259 28.3576C112.906 28.1277 111.574 27.7055 110.259 27.2833C108.75 26.8023 107.205 26.8985 105.707 27.0695C104.809 27.171 103.819 27.3528 103.022 28.1277C96.9202 34.071 90.7323 39.9074 83.1806 44.0548C82.3463 44.5144 81.3676 44.8832 80.7579 45.562C78.5705 48.0205 76.3617 50.4844 74.4363 53.1514C70.3396 58.8274 67.152 65.0753 63.435 70.9972C63.2639 71.2751 63.2693 71.7936 62.2852 71.6867C67.6494 63.2421 71.6125 54.1455 78.7042 46.8768C77.3778 47.2723 76.9125 47.5502 76.1424 48.2985C71.5964 52.7131 67.7885 57.689 64.6063 63.1673C61.5044 68.5066 58.3436 73.8138 55.1239 79.0837C51.3962 85.1819 46.3903 90.2754 41.8123 95.7056C41.5448 96.0209 41.2132 96.4164 40.4645 96.4324C42.2455 94.3106 43.866 92.3331 45.5346 90.3983C48.5884 86.8602 51.6637 83.3273 54.1078 79.3402C57.6857 73.5092 61.0765 67.5606 64.633 61.7136C66.3659 58.8702 68.0131 55.9467 70.254 53.4454C71.4146 52.152 72.5858 50.8746 73.7517 49.5865C72.035 50.1424 70.1257 50.5753 68.9865 51.7511C66.7723 54.0386 64.5903 56.4117 62.804 59.0947C59.595 63.9102 56.338 68.6883 53.1344 73.5092C48.5403 80.4198 42.8551 86.4753 37.7209 92.9584C33.0305 98.8856 27.4684 104.059 22.6175 109.864C21.0773 111.707 19.5798 113.557 18.5155 115.716C17.1249 118.543 15.7558 121.387 14.3653 124.219C11.4077 130.237 8.25761 136.159 7.84045 143.086C7.65862 146.143 7.31633 149.211 7.80837 152.225C8.76034 158.067 9.88882 163.882 10.306 169.798C10.4504 171.872 11.0975 173.764 12.3383 175.512C15.3868 179.793 18.6706 183.892 21.6121 188.259C24.0883 191.931 27.832 194.56 30.5436 198.104C32.1801 200.242 35.0789 200.626 37.1486 202.246C38.5498 203.342 40.2238 203.951 41.9032 204.528C46.1603 205.982 50.5566 206.901 54.9421 207.879C58.7874 208.74 62.6649 209.253 66.5851 209.429C69.2058 209.547 71.8585 209.531 74.3668 208.504C79.6134 206.361 85.2504 205.105 89.9408 201.669C90.8767 200.979 92.0266 200.739 93.1978 200.691C95.6259 200.594 97.8401 199.766 99.621 198.173C101.514 196.479 103.509 194.934 105.493 193.363C108.012 191.364 107.97 191.305 106.798 188.377C105.702 185.635 104.606 182.888 103.461 180.023C102.68 181.172 102.215 182.364 100.953 183.47C101.605 180.958 104.386 179.232 102.359 176.613C101.188 178.703 100.423 181.054 98.7172 182.85C99.5515 180.739 100.423 178.66 101.498 176.682C102.482 174.871 101.867 173.262 101.225 171.6L101.236 171.578ZM105.21 177.858L105.183 177.821C105.787 180.285 105.718 183.176 109.253 183.684C108.451 184.443 107.895 183.534 107.215 183.882C107.301 184.128 107.376 184.384 107.478 184.63C109.098 188.499 110.852 192.321 112.28 196.26C112.922 198.029 113.804 198.82 115.644 199.039C117.275 199.232 118.923 199.499 120.554 199.819C118.169 200.53 115.842 199.702 113.51 199.488C113.451 201.252 114.387 201.909 115.821 202.144C116.848 202.315 117.907 202.438 118.858 202.812C119.511 203.069 120.361 202.657 121.03 203.497C118.618 203.807 116.553 202.844 114.318 202.577C114.559 203.187 114.714 203.694 114.954 204.159C115.179 204.592 115.19 205.223 115.89 205.292C116.741 205.373 117.607 205.394 118.425 205.613C119.441 205.88 120.57 205.666 121.511 206.254C119.629 206.629 117.826 206.03 115.847 205.982C116.115 206.548 116.318 207.067 116.596 207.548C118.612 211.07 120.746 214.517 122.511 218.184C123.442 220.118 124.538 221.973 125.592 223.844C125.779 224.18 125.881 224.629 126.405 224.72C128.223 225.03 130.058 225.276 131.844 225.725C133.336 226.099 134.892 225.816 136.363 226.27C133.213 226.879 130.149 226.12 126.838 225.634C127.806 227.205 129.234 227.874 130.325 228.905C131.047 229.589 131.844 229.846 132.807 229.691C135.507 229.263 138.251 229.594 140.957 229.172C141.989 229.012 143.064 229.194 144.134 229.087C140.449 230.332 136.556 230.081 132.464 230.546C133.384 231.273 133.785 232.352 134.753 232.261C138.647 231.909 142.53 231.417 146.418 230.973C146.439 231.112 146.466 231.257 146.487 231.396C142.872 232.438 139.096 232.588 135.074 232.999C135.978 233.865 136.689 234.56 137.417 235.233C137.636 235.436 137.791 235.613 138.235 235.564C141.465 235.244 144.733 235.687 147.963 235.174C148.199 235.137 148.53 235.046 148.808 235.58C145.455 236.184 142.129 236.168 138.679 236.398C141.417 239.621 144.418 242.213 148.183 243.817C153.798 246.211 159.355 248.803 165.639 248.931C167.698 248.974 169.704 249.236 171.458 247.611C172.324 246.81 173.314 245.96 174.512 245.58C174.587 245.677 174.662 245.778 174.742 245.874C173.41 246.949 172.078 248.028 170.806 249.054C173.71 250.85 175.405 247.921 177.972 247.066C177.175 248.354 175.838 248.616 175.362 249.674C177.844 250.476 179.02 248.477 180.7 247.189C180.561 248.643 179.218 248.974 178.748 250.145C181.326 250.027 183.775 250.289 185.941 248.499C188.738 246.184 191.615 243.966 194.086 241.273C192.525 244.757 189.182 246.59 186.39 249.348C188.134 248.835 189.583 248.515 191 248.007C195.568 246.377 199.376 243.501 203.232 240.706C206.227 238.536 208.692 235.778 211.436 233.325C216.19 229.076 219.581 223.886 221.742 217.938C223.122 214.143 223.903 210.145 225.534 206.431C226.876 203.379 227.834 200.199 228.047 196.901C228.384 191.728 227.93 186.57 227.047 181.086C226.882 182.182 226.662 182.93 226.673 183.673C226.726 186.463 226.267 189.162 225.512 191.834C223.641 198.435 221.908 205.089 217.784 210.776C217.645 210.968 217.453 211.214 217.479 211.407C217.763 213.528 216.362 215.212 216.003 217.157C215.95 217.441 215.768 217.745 215.42 217.612C215.019 217.457 215.265 217.147 215.351 216.896C215.768 215.575 216.185 214.255 216.602 212.935C216.009 213.309 215.618 213.78 215.212 214.245C213.345 216.372 210.832 217.9 209.045 219.969C207.254 222.048 206.505 225.019 205.061 227.478C204.847 227.841 204.633 228.328 203.863 228.162C205.189 225.682 206.457 223.309 207.879 220.642C204.446 222.54 201.472 224.49 198.253 225.875C195.103 227.227 191.696 227.954 188.038 227.59C188.455 226.847 188.941 226.885 189.423 226.826C190.359 226.714 191.3 226.564 192.225 226.377C196.616 225.484 200.231 222.994 204.002 220.776C210.623 216.874 215.811 211.556 218.988 204.635C221.785 198.542 223.705 192.08 224.384 185.335C224.951 179.713 224.683 174.112 223.844 168.537C222.999 162.947 220.966 157.671 219.185 152.364C216.276 143.695 210.944 136.32 205.253 129.302C201.012 124.07 196.092 119.404 190.942 115.026C188.604 113.044 186.749 110.564 184.315 108.682C179.283 104.791 174.02 101.237 168.688 97.7739C160.553 92.4934 152.697 86.796 144.808 81.1467C141.674 78.9019 138.31 76.9939 135.197 74.7011C133.347 73.3382 131.261 72.3441 128.972 71.8898C126.49 71.3927 123.929 71.1362 121.527 70.3772C115.329 68.4211 110.039 70.8208 104.771 73.5199C104.525 73.6482 104.29 73.8513 104.124 74.0704C102.258 76.6091 100.38 79.1425 99.3483 82.1782C97.2197 88.4368 96.4335 94.813 96.995 101.435C97.3534 105.705 97.9203 109.928 98.669 114.134C99.7012 119.922 100.846 125.694 101.958 131.472C103.236 138.083 104.456 144.711 105.846 151.301C107.798 160.568 111.077 169.403 114.912 178.04C118.896 187.024 123.624 195.586 129.988 203.133C134.652 208.659 140.011 213.373 146.648 216.468C147.819 217.013 148.98 217.601 149.964 218.435C151.702 219.91 153.638 220.92 155.836 221.545C159.376 222.561 162.837 223.967 166.484 224.48C171.838 225.228 177.191 226.115 182.839 226.126C181.994 227.029 181.074 227.072 180.165 227.115C174.18 227.425 168.313 226.591 162.548 225.078C157.376 223.721 152.076 222.609 147.824 218.975C147.193 218.435 146.338 218.136 145.551 217.788C140.203 215.404 135.481 212.139 131.427 207.911C130.748 207.2 130.143 206.345 128.892 206.971C128.453 207.19 127.934 206.81 127.469 206.49C127.731 206.105 128.02 206.174 128.293 206.174C128.64 206.174 129.068 206.666 129.314 206.174C129.555 205.693 128.972 205.485 128.721 205.191C127.512 203.774 126.143 202.47 125.068 200.958C120.955 195.191 117.308 189.146 114.296 182.717C110.366 174.32 107.205 165.651 104.959 156.651C103.589 151.162 102.787 145.566 101.691 140.023C100.696 134.994 99.7494 129.954 98.7546 124.925C98.2091 122.172 98.054 119.345 97.1234 116.667C97.0164 120.018 97.3052 123.353 97.7384 126.651C98.6262 133.364 99.3269 140.098 99.8777 146.838C100.52 154.689 101.365 162.492 103.242 170.162C103.482 171.14 103.905 171.605 104.718 172.011C105.627 172.471 106.734 172.674 107.526 173.93C106.119 173.347 105.007 172.882 103.878 172.412C103.712 173.871 104.333 174.625 105.659 175.063C107.055 175.523 108.376 176.201 109.734 176.784C107.852 176.934 106.381 175.779 104.531 175.416C104.515 176.351 104.729 177.137 105.221 177.858H105.21ZM80.0198 18.1974C74.3935 20.0199 68.8046 21.8264 63.4457 24.2689C63.2051 24.3758 62.9804 24.4453 62.8467 24.7873C61.8573 27.3528 60.4828 29.7311 59.103 32.0935C55.5037 38.2719 53.5837 44.8779 53.6371 52.0451C53.6425 52.9483 53.7976 53.269 54.7228 53.0445C57.1028 52.4726 59.4934 51.9435 61.8787 51.3823C64.3817 50.7891 66.7456 49.8217 69.0881 48.7741C70.0133 48.3626 70.2219 47.4166 69.9652 46.7645C69.7032 46.0858 69.0293 46.8928 68.5265 46.973C67.4141 47.1547 66.4193 47.8655 64.8791 47.8549C66.9221 46.3797 69.6015 46.647 70.714 44.3274C69.3823 44.8458 68.0452 45.3642 66.7135 45.888C67.5692 44.7603 68.7833 44.3541 69.9545 43.9319C70.8316 43.6165 71.2702 43.1035 71.3985 42.243C71.7194 40.1265 72.0243 38.0047 72.3559 35.8882C72.4896 35.0491 72.0885 34.878 71.3878 35.0491C70.6123 35.2361 69.8689 35.6156 68.9704 35.5354C69.9064 34.0763 72.2222 35.1079 72.9495 33.0502C70.6444 33.7022 68.5426 34.2955 66.291 34.9315C66.5744 34.0496 67.243 34.0603 67.719 33.9C69.1897 33.4029 70.7033 33.0128 72.1847 32.5478C72.5644 32.4302 73.0618 32.4783 73.2009 31.9118C73.8801 29.1218 74.9711 26.4816 76.4312 23.8681C75.3081 23.852 74.5219 24.6323 73.4255 24.5254C74.4524 23.0236 76.7467 23.7398 77.6345 21.8478C76.6826 22.0936 75.9926 22.2753 75.3027 22.4517C75.2278 22.3288 75.153 22.2059 75.0781 22.0829C77.1158 21.3133 79.2283 20.6292 80.0198 18.192V18.1974ZM90.5611 32.7081C87.9459 34.2046 85.4162 35.653 82.7367 37.1816C82.7314 36.3639 83.1539 36.3371 83.4106 36.1821C85.475 34.9208 87.5715 33.7022 89.6199 32.4195C90.0584 32.1469 90.7002 32.04 90.7537 31.2918C91.0264 27.4329 92.203 23.7879 93.5722 20.0146C92.0854 20.3406 90.7376 20.6399 89.2936 20.9606C89.5343 20.2925 89.9835 20.1909 90.4488 20.0733C91.5024 19.8115 92.5453 19.4801 93.6096 19.277C94.2247 19.1594 94.4921 18.7051 94.3958 18.315C94.2835 17.8553 93.7915 18.16 93.4331 18.2455C92.0854 18.5662 90.7323 18.8494 89.3792 19.1487C90.2296 18.2294 91.3687 18.0477 92.4651 17.7912C95.1125 17.1659 96.5725 15.648 97.1341 12.826C96.5939 12.9062 96.0805 12.9543 95.5724 13.0558C91.0906 13.9591 86.8923 15.7442 82.5977 17.23C82.1859 17.3743 81.7954 17.5614 81.5655 17.9569C79.6829 21.1262 77.8485 24.3117 76.3563 27.6895C74.34 32.2538 73.6448 37.1549 72.6233 41.9757C72.2222 43.8517 71.6766 45.701 71.1365 47.8014C77.9126 44.6641 84.1914 41.1954 89.9675 36.8556C90.8392 36.2035 91.2618 35.5782 90.5611 34.5787C88.6679 35.7652 86.7693 36.9571 84.7637 38.2184C84.753 37.4435 85.2076 37.3045 85.5392 37.08C86.9992 36.1073 88.4754 35.1453 89.9408 34.1779C90.4221 33.8572 90.9355 33.5419 90.5611 32.7135V32.7081ZM92.0693 34.9742C94.8076 32.5692 97.5352 30.1747 100.257 27.7857L100.044 27.465C98.7011 28.1438 97.3641 28.8225 96.0217 29.496C98.0486 27.0802 101.616 26.7755 103.263 23.9055C101.183 24.7446 99.3589 26.1021 97.1341 26.5831C99.3803 25.108 101.643 23.6489 104.049 22.4891C104.932 22.0616 105.258 21.479 105.841 20.6185C104.386 20.8483 103.418 22.0135 101.755 21.789C103.504 20.8857 105.028 20.239 106.392 19.3518C107.889 18.3737 108.173 16.471 109.216 15.1242C109.451 14.8196 109.697 14.5202 109.857 14.1782C110.023 13.8254 110.649 13.5636 110.269 13.1039C109.98 12.7512 109.44 12.8848 109.039 12.9863C108.146 13.2162 107.258 13.2749 106.328 13.0665C107.456 12.6176 108.611 12.1419 109.788 12.0938C112.601 11.9762 115.425 12.0617 118.243 12.0617C118.725 12.0617 119.179 12.1633 119.65 12.2862C120.479 12.5053 120.5 12.9756 120.126 13.5529C117.976 16.8665 117.062 20.704 115.585 24.301C115.398 24.7606 114.97 25.2737 115.462 26.0861C116.789 23.4298 117.655 20.7254 119.302 18.2348C119.586 19.0525 119.153 19.4534 118.96 19.913C118.179 21.7409 117.382 23.5581 116.618 25.3913C116.473 25.7387 116.104 26.1663 116.837 26.3907C117.414 26.5671 117.575 26.2518 117.762 25.8295C118.399 24.4025 119.051 22.9862 119.709 21.5698C120.602 19.6618 121.506 17.7591 122.533 15.5731C122.757 16.7757 122.287 17.4705 121.966 18.1813C120.827 20.7307 119.639 23.2588 118.5 25.8082C118.334 26.1769 117.853 26.6526 118.431 27.0107C119.388 27.6093 120.399 28.1171 121.394 28.6408C121.41 28.6462 121.57 28.4324 121.624 28.3041C122.057 27.3421 122.485 26.3747 123.035 25.1347C122.399 25.6318 122.025 25.9204 121.554 26.2945C121.939 24.4079 122.773 22.9541 123.864 21.5912C127.223 17.3796 130.63 13.2108 134.705 9.65127C135.326 9.11146 135.149 8.83888 134.641 8.36321C133.641 7.41721 132.625 6.49792 131.962 5.2259C131.603 4.53644 130.887 4.03404 130.336 3.45147C130.742 5.29537 131.657 6.75981 132.475 8.33114C130.405 7.21945 129.571 5.01745 128.207 3.26975C125.549 4.76091 123.656 7.06446 122.025 9.6192C121.549 10.3621 121.035 10.7309 120.089 10.6774C118.372 10.5812 116.639 10.5171 114.928 10.6668C110.419 11.0676 105.927 11.6181 101.418 12.0564C99.6852 12.2274 98.3214 12.6657 97.7384 14.6058C97.3213 15.99 96.487 17.2514 95.8238 18.5608C93.2085 23.6756 92.0266 29.1272 92.08 34.9903L92.0693 34.9742ZM46.8556 52.7773C46.8396 52.6437 46.8235 52.5101 46.8075 52.3818C47.2032 52.2589 47.5937 52.0718 48.0001 52.0183C49.0858 51.874 50.1768 51.7939 51.2625 51.6602C51.808 51.5908 52.3482 51.4304 52.2145 50.7089C52.0648 49.8965 51.5674 50.3455 51.1342 50.4363C50.5887 50.5486 50.0217 50.5539 49.2837 50.618C49.872 49.7736 50.5994 50.0034 51.1449 49.7415C51.5834 49.5277 52.145 49.6934 52.2573 48.9184C52.4017 47.9618 51.4444 48.4535 50.8989 47.8228C52.2626 47.8228 52.1557 47.0157 52.3001 46.2515C52.8028 43.6433 53.3162 41.0297 54.4928 38.6033C55.2202 37.1068 55.8513 35.5622 56.5412 34.0122C55.6267 33.9748 54.9421 34.5948 54.0383 34.3329C55.1079 33.0876 57.4344 33.7022 57.8515 31.6445C57.0653 31.388 56.4663 32.2698 55.5518 31.7193C59.2367 31.0726 60.1833 28.1277 61.4348 25.3485C61.2209 25.3058 61.1139 25.247 61.0444 25.279C56.1294 27.326 51.1663 29.2555 46.3796 31.5964C46.0052 31.7781 45.6576 31.9973 45.4276 32.4088C43.2456 36.3959 40.9833 40.3403 39.3574 44.6053C38.0204 48.1114 37.047 51.6389 37.8011 55.4603C37.9669 56.2994 38.368 56.4063 38.9456 56.2406C39.6462 56.0375 40.3629 56.0803 41.0528 55.9467C44.5987 55.2519 48.0643 54.1776 51.653 53.6966C52.2038 53.6217 52.2145 53.3492 52.2199 52.9269C52.2199 52.4513 52.0648 52.1947 51.5567 52.2535C51.1823 52.2963 50.8026 52.3337 50.4282 52.3764C49.2356 52.5101 48.0429 52.6437 46.8503 52.7826L46.8556 52.7773ZM65.4085 16.4978C63.8415 15.5838 62.3547 14.7661 60.916 13.8682C58.0975 12.1045 55.4555 10.0682 52.5354 8.45407C51.8936 8.10132 51.3748 7.88753 50.5833 8.20821C47.722 9.35731 45.2137 11.105 42.6359 12.7351C39.9939 14.4027 37.1807 15.7762 34.282 17.4277C36.6191 18.2882 38.7049 19.1327 40.7212 20.1749C44.1173 21.9226 47.353 23.9963 51.1021 25.0385C53.9955 25.8456 56.691 25.9044 59.4827 24.5254C62.4135 23.077 65.5102 21.9547 68.5479 20.7307C69.7299 20.2551 71.0135 20.0466 72.281 19.3304C71.1686 18.9563 70.0668 18.1706 69.3395 18.4325C67.8527 18.967 66.3017 18.9884 64.8149 19.3892C64.1303 19.5709 63.3709 19.8809 62.2157 19.5603C64.4031 18.5608 66.4675 18.5448 68.4624 17.9141C65.9166 16.3321 63.4992 17.9622 60.7556 18.021C62.2905 16.9093 63.8255 16.8933 65.4085 16.5031V16.4978ZM83.3143 10.2231C80.5226 8.74268 78.3565 7.05377 76.4526 5.05487C75.875 4.44558 75.2653 4.24782 74.4417 4.2692C70.1203 4.38144 65.815 4.76626 61.5578 5.48778C58.7714 5.96346 55.9262 6.26811 53.0595 7.35841C56.7979 9.7154 60.3759 12.0243 64.0127 14.2423C66.6974 15.8778 69.5855 17.1071 72.5537 18.1386C73.3292 18.4112 74.078 18.7639 75.0086 18.4218C79.9877 16.5993 84.999 14.8409 90.3151 12.9489C88.7428 12.7886 87.6624 11.5379 86.3468 11.9495C84.5872 12.4946 82.7902 12.345 81.0253 12.687C82.3944 11.6234 84.154 12.0136 85.7959 11.3455C83.555 10.2018 81.4157 11.2921 78.9021 11.3188C80.3621 10.3995 81.6297 10.4049 83.3197 10.2231H83.3143ZM21.9758 30.5596C22.7619 30.6771 23.4198 30.7199 24.0509 30.8749C28.1422 31.869 32.0892 33.451 36.2876 34.0229C37.5979 34.1993 39.09 34.536 40.1971 33.8572C44.497 31.2116 48.8612 28.7103 53.6585 26.8076C50.5031 25.3165 47.5348 26.7809 44.5077 27.0161C45.7218 26.0113 47.3637 26.1449 49.0056 25.3165C45.8181 24.4987 43.406 26.4602 40.6891 26.535C42.3417 25.3752 44.4115 25.2363 46.1122 24.4132C44.5238 22.3609 42.7749 24.1299 40.764 24.3437C41.5983 23.4084 42.5664 23.3657 43.2616 22.735C40.1008 21.2812 37.2502 19.4534 33.9664 18.5715C33.3781 18.4112 33.0572 18.47 32.5973 18.8601C30.1639 20.9499 28.1422 23.4244 26.0511 25.8349C24.7194 27.3688 23.4037 28.9134 21.9865 30.5542L21.9758 30.5596ZM32.3406 54.5891C33.5011 53.9959 34.9024 54.2043 36.0362 53.5576C33.7418 53.2316 31.4742 54.0386 29.1958 53.4186C30.7629 53.1193 32.3406 52.9109 33.9237 52.8414C35.2393 52.7826 36.432 52.7612 36.2234 50.9067C36.1645 50.4043 36.2822 49.8324 36.4854 49.3674C37.0898 47.9618 36.5229 47.5021 35.1698 47.5662C35.1323 47.5662 35.0896 47.4273 35.004 47.2669C35.8223 46.8233 37.4642 47.4914 37.3465 45.717C36.8224 45.5192 36.2715 45.8399 35.7848 45.5353C35.9025 44.9901 36.341 45.0917 36.7047 45.0756C37.4535 45.0436 37.9027 44.6908 38.1808 43.9693C39.5553 40.367 41.1865 36.8876 43.4488 33.3388C40.4752 34.8299 37.9936 36.4868 35.4639 38.0581C32.485 39.902 29.5702 41.6604 27.7197 44.91C25.8318 48.2236 23.9706 51.4839 23.2861 55.2786C23.1791 55.8772 22.8101 56.6041 24.0402 56.5827C27.7251 56.5239 31.41 56.5613 35.0949 56.5399C35.8811 56.5399 36.6298 56.5025 36.4533 55.3C36.2715 54.0547 35.3837 54.5196 34.8275 54.6212C33.9878 54.7762 33.1963 54.9098 32.3406 54.5891ZM28.0674 38.0047C29.6825 36.8609 31.4795 36.0004 32.9075 34.5787C30.8591 35.0918 29.2226 36.6151 26.7731 37.064C28.2439 35.7118 29.9553 35.4072 31.2228 34.2474C30.8645 34.1672 30.6292 34.1298 30.3992 34.0656C27.8374 33.3762 25.3398 32.4729 22.7245 31.9705C21.2912 31.698 20.2483 31.869 19.2642 33.1571C17.756 35.1346 16.3708 37.1923 14.9536 39.2286C13.6647 41.0832 12.5201 43.0393 11.2312 45.081C13.8465 45.0382 16.2746 45.2039 18.708 45.3001C20.7617 45.3803 22.9064 45.4658 24.7729 44.1991C28.4364 41.7192 32.1213 39.2713 35.7902 36.7968C36.5443 36.289 37.3946 35.8882 38.0525 35.1399C35.6565 34.7124 33.5653 34.9422 31.656 36.4494C30.6452 37.2457 29.49 37.9405 28.0674 37.9993V38.0047ZM18.601 53.5148C19.323 52.3657 20.2322 52.4406 20.9596 52.2856C21.9865 52.0664 22.6817 51.7458 23.0721 50.6341C23.5214 49.3567 24.2327 48.1542 24.9333 46.9783C25.6018 45.8506 26.4094 44.8084 27.1528 43.7234C20.6762 47.9564 14.039 51.8313 8.10252 56.7377C11.4505 51.9863 17.0287 50.0301 21.4089 46.198C18.7027 46.198 16.2532 46.3423 13.8251 46.1553C11.5361 45.9789 10.092 46.5508 8.7443 48.6566C6.33761 52.4245 5.28936 56.7377 2.98428 60.7141C8.74429 58.6831 14.2797 56.9942 20.1627 56.8178C20.489 56.8072 20.8152 56.6789 21.1307 56.5773C21.8795 56.3422 21.7939 55.6527 21.719 55.1557C21.6281 54.541 21.0184 54.8403 20.6494 54.8884C19.8097 55.006 18.9754 55.2144 18.1197 55.3855C18.1037 54.9526 18.2802 54.8938 18.462 54.8189C19.3444 54.4395 20.2857 54.3326 21.2163 54.1562C21.7565 54.0547 22.2913 53.8088 22.056 53.1193C21.8634 52.5475 21.3393 52.8307 20.9649 52.9056C20.2857 53.0392 19.6225 53.2423 18.601 53.5095V53.5148ZM77.3297 4.018C77.5383 4.37075 77.5864 4.50437 77.6773 4.60057C81.3462 8.64647 86.1328 10.8111 91.1548 12.5695C91.4543 12.6763 91.8287 12.6496 92.1496 12.5962C95.658 12.035 99.1557 11.4257 102.664 10.8859C104.589 10.5919 106.531 10.3995 108.462 10.1644C105.429 8.99922 102.242 9.66196 99.1557 9.02595C101.177 8.29373 103.349 8.8656 105.413 8.33648C100.263 6.44448 95.1232 8.21356 89.9675 8.38993C93.6417 7.20342 97.4603 6.9736 101.279 6.69568C98.6476 5.66416 95.9521 5.20452 93.155 5.47709C92.9037 5.50382 92.31 5.89932 92.5774 5.30072C92.9946 4.36541 92.3368 4.63798 91.9784 4.57385C87.1918 3.7187 82.3677 4.03404 77.3297 4.01266V4.018ZM105.825 24.3918C108.002 24.3544 109.916 24.3651 111.703 25.0278C113.098 25.5463 113.89 25.3432 114.05 23.7398C114.088 23.3763 114.313 23.0343 114.457 22.6762C115.639 19.6939 116.821 16.7169 118.34 13.8308C116.949 13.6063 115.692 13.3498 114.425 13.2162C113.238 13.0932 111.922 12.81 111.628 14.6325C111.553 15.1082 111.114 15.5357 110.82 15.9686C109.034 18.6089 107.879 21.6019 105.825 24.3865V24.3918ZM154.579 194.619C154.756 194.689 154.959 194.726 155.114 194.833C158.36 197.019 161.671 199.082 165.211 200.787C172.036 204.068 179.197 204.977 186.551 203.427C191.059 202.476 194.685 199.841 197.375 196.03C197.814 195.405 198.269 194.785 198.729 194.175C204.938 185.977 206.922 176.88 205.007 166.763C203.574 159.216 200.445 152.375 197.006 145.619C196.493 144.609 195.808 143.647 195.06 142.792C190.931 138.078 185.909 134.529 180.16 132.119C175.041 129.975 169.656 128.757 164.136 127.998C159.82 127.405 155.676 127.453 151.729 129.468C148.621 131.05 146.038 133.188 144.487 136.421C143.46 138.559 143.225 140.948 142.209 143.097C141.77 144.021 141.508 145.058 141.358 146.074C140.717 150.531 140.075 154.988 139.545 159.467C138.641 167.099 140.086 174.261 143.385 181.124C145.107 184.705 147.899 187.511 150.194 190.68C151.868 192.994 153.868 193.518 156.505 192.722C156.344 192.572 156.232 192.428 156.082 192.337C152.595 190.236 150.258 186.998 147.744 183.935C147.423 183.545 147.156 183.165 147.37 182.535C147.969 180.75 148.45 178.922 148.99 177.115C149.097 176.757 149.151 176.437 148.824 175.806C147.696 178.029 147.397 180.199 146.894 182.487C145.653 180.782 144.615 179.328 145.862 177.179C146.835 175.496 146.658 175.394 146.557 174.598C145.46 175.64 145.428 177.185 144.626 178.371C143.797 177.073 143.626 175.779 144.193 174.395C144.391 173.914 144.508 173.406 144.674 172.914C144.755 172.674 144.824 172.412 144.551 172.294C144.225 172.155 144.022 172.353 143.931 172.679C143.776 173.224 143.61 173.759 143.444 174.304C142.621 172.241 144.07 170.52 144.198 168.233C143.086 169.472 143.064 170.734 142.61 171.856C142.134 171.279 142.075 170.6 141.904 169.97C141.198 167.313 141.246 164.571 141.048 161.867C140.679 156.795 141.706 151.83 142.567 146.881C143.262 142.888 144.428 139.056 147.033 135.705C150.295 131.509 154.408 129.382 159.676 129.478C162.885 129.537 166.046 130.173 169.164 130.82C175.368 132.103 181.186 134.46 186.604 137.789C190.717 140.317 193.958 143.674 196.343 147.843C199.44 153.262 201.488 159.066 202.558 165.229C203.162 168.708 203.724 172.172 203.307 176.036C202.996 175.17 203.226 174.4 202.51 174.042C202.087 174.47 202.365 174.855 202.414 175.261C202.633 177.067 203.558 178.82 202.873 180.702C200.75 186.522 198.948 192.46 194.247 196.976C192.118 199.023 189.835 200.723 187.299 202.16C186.957 202.353 186.604 202.422 186.214 202.433C182.534 202.54 178.903 202.011 175.293 201.466C169.672 200.61 164.607 198.302 160.056 194.956C158.307 193.668 156.59 194.208 154.825 194.224C154.745 194.357 154.67 194.485 154.59 194.619H154.579ZM104.274 130.921C106.108 137.56 106.761 144.422 107.921 151.178C109.141 158.259 110.89 165.149 113.746 171.739C116.527 178.158 120.238 184.079 123.838 190.055C123.929 190.204 124.046 190.381 124.421 190.124C124.196 189.659 123.966 189.157 123.709 188.67C121.292 184.154 118.425 179.895 116.222 175.25C113.944 170.445 111.874 165.56 110.59 160.403C108.52 152.092 107.467 143.583 105.948 135.165C105.654 133.535 105.44 131.846 104.333 130.376C104.311 130.558 104.231 130.761 104.274 130.927V130.921ZM209.511 211.289C213.072 205.656 217.228 200.381 219.02 193.743C220.282 189.077 221.619 184.432 222.015 179.617C222.432 174.518 221.688 169.44 221.138 164.379C221.073 163.77 221.159 162.952 220.325 162.407C220.351 163.011 220.357 163.481 220.4 163.946C220.758 167.928 221.33 171.904 221.432 175.891C221.56 180.899 220.33 185.752 219.196 190.611C217.169 199.285 212.484 206.431 206.858 213.08C208.008 213.063 208.912 212.246 209.516 211.294L209.511 211.289ZM175.79 221.952C172.191 221.032 168.49 220.792 164.832 220.263C157.253 219.172 150.317 216.634 144.385 211.669C144.107 211.433 143.856 211.129 143.417 211.514C143.658 211.775 143.867 212.037 144.113 212.256C147.503 215.18 151.338 217.329 155.563 218.788C160.211 220.386 165.046 221.107 169.902 221.636C172.292 221.898 174.651 222.352 177.106 222.807C176.812 222.123 176.266 222.08 175.79 221.957V221.952ZM174.742 105.743C172.768 103.22 170.073 102.226 167.709 100.756C165.356 99.2972 163.217 97.5601 161.083 95.8018C158.943 94.0327 156.868 92.1567 154.424 90.7671C160.296 96.8226 167.18 101.499 174.742 105.743ZM130.753 75.6952C130.892 75.8127 131.01 75.9731 131.17 76.0479C136.738 78.5813 141.797 81.9163 146.552 85.7431C146.91 86.0317 147.279 86.3257 147.937 85.866C142.572 81.7453 137.262 77.7475 130.951 75.3798C130.887 75.4867 130.817 75.5936 130.753 75.6952ZM147.134 190.092C144.375 187.195 142.658 183.604 140.524 180.295C140.198 179.788 140.043 179.071 139.203 178.916C139.096 179.633 139.508 180.076 139.775 180.536C140.759 182.219 141.754 183.892 142.797 185.539C144.428 188.125 146.236 190.573 148.562 192.599C149.049 193.021 149.477 193.465 149.883 193.294C149.001 192.257 148.119 191.129 147.129 190.092H147.134ZM190.68 239.172C190.61 239.236 190.524 239.311 190.503 239.391C190.46 239.562 190.455 239.744 190.434 239.92C190.61 239.942 190.829 240.038 190.958 239.963C191.289 239.781 191.621 239.562 191.883 239.295C194.118 237.002 196.151 234.538 197.798 231.786C198.049 231.369 198.434 230.915 198.001 230.247C195.98 233.608 193.45 236.489 190.685 239.172H190.68ZM155.44 236.607C151.932 237.339 148.418 238.076 144.915 238.846C144.583 238.921 143.861 238.643 143.984 239.327C144.097 239.931 144.755 239.781 145.204 239.691C146.455 239.445 147.707 239.193 148.942 238.867C151.338 238.242 153.804 237.836 156.13 236.628C155.9 236.617 155.654 236.559 155.435 236.607H155.44ZM176.491 143.759C179.17 148.35 182.155 152.503 183.229 157.591C183.845 155.197 178.994 145.181 176.491 143.759ZM137.101 81.5529C140.556 83.9527 143.797 86.3417 146.985 88.7949C145.872 86.6624 138.625 81.4086 137.101 81.5529ZM179.523 237.628C177.015 240.674 173.694 242.619 170.287 245.057C172.635 245.158 179.545 239.418 179.523 237.628ZM165.024 127.095C161.072 125.272 156.911 124.599 152.595 124.866C156.777 125.406 160.938 126.031 165.024 127.095ZM182.978 238.365C181.106 241.395 178.01 243.181 175.384 245.703C177.801 245.591 183.39 240.027 182.978 238.365ZM160.259 200.76C160.2 200.642 160.168 200.482 160.072 200.407C157.494 198.478 154.911 196.554 152.317 194.64C151.991 194.4 151.969 194.432 150.964 194.71C154.05 196.869 157.045 198.959 160.04 201.054C160.115 200.958 160.184 200.856 160.259 200.76ZM209.035 223.16C208.291 224.758 207.532 226.35 206.772 227.948C209.452 225.41 210.19 221.845 211.628 218.659C210.366 219.947 209.762 221.588 209.035 223.16ZM100.487 89.6608C99.375 93.6372 99.9793 97.4853 101.45 101.28C100.771 97.4479 100.065 93.6051 100.487 89.6608ZM185.187 132.813C184.026 130.959 176.587 127.116 174.715 127.431C178.454 128.784 181.775 130.889 185.187 132.813ZM188.877 236.131C190.615 236.158 195.151 230.797 195.332 228.472C193.407 231.417 191.161 233.705 188.877 236.131ZM188.284 133.872C191.214 136.138 193.771 138.826 196.707 141.092C194.172 138.372 191.797 135.448 188.284 133.872ZM104.097 79.6288C102.06 82.1301 101.857 82.8463 102.258 83.7389C103.771 80.9329 105.67 78.3996 108.135 76.2243C105.953 76.2938 105.215 78.2553 104.097 79.6288ZM133.486 221.962C130.994 222 128.571 221.476 126.132 221.091C125.843 221.043 125.389 220.503 125.26 221.23C125.175 221.722 125.635 221.839 126.004 221.93C128.662 222.572 131.347 222.657 134.144 222.47C133.967 221.92 133.705 221.962 133.486 221.968V221.962ZM216.95 164.668C217.993 167.848 217.421 171.183 218.191 174.737C219.041 172.321 218.084 165.223 216.95 164.668ZM173.763 236.313C176.175 235.794 180.229 231.422 180.181 229.514C178.528 232.224 176.084 233.966 173.763 236.313ZM169.356 236.804C171.886 235.121 173.843 232.86 175.801 230.599C173.458 232.47 171.073 234.308 169.356 236.804ZM197.509 182.054C197.552 180.91 197.579 179.756 197.472 178.617C197.44 178.259 197.659 177.452 196.948 177.527C196.456 177.58 196.664 178.243 196.67 178.649C196.691 180.082 196.718 181.519 196.771 182.952C196.809 183.919 196.627 184.908 197.247 185.859C197.338 184.592 197.456 183.32 197.504 182.048L197.509 182.054ZM199.921 177.297C199.932 177.206 199.911 177.105 199.889 177.014C199.825 176.752 199.654 176.613 199.376 176.634C199.124 176.656 199.092 176.864 199.087 177.046C199.06 179.542 198.515 182.027 199.066 184.544C199.707 182.166 199.643 179.707 199.921 177.292V177.297ZM217.041 180.413C216.469 183.695 215.896 186.971 215.319 190.252C215.447 190.274 215.57 190.301 215.698 190.322C216.747 187.137 217.041 183.807 217.495 180.504C217.346 180.472 217.191 180.445 217.041 180.413ZM156.307 180.488C156.365 180.247 156.526 180.034 156.141 179.98C155.857 179.943 155.724 180.119 155.654 180.381C155.424 181.193 155.125 181.995 154.959 182.823C154.552 184.833 153.83 186.8 154.199 188.916C154.793 186.068 155.606 183.288 156.312 180.488H156.307ZM151.809 187.393C152.686 184.405 153.766 181.477 153.991 178.345C152.937 181.295 152.012 184.256 151.809 187.393ZM200.194 232.817C198.648 234.832 197.108 236.842 195.568 238.857C195.461 238.996 195.295 239.193 195.493 239.343C195.846 239.605 196.145 239.386 196.354 239.113C197.846 237.168 199.429 235.287 200.499 233.063C200.397 232.978 200.296 232.897 200.194 232.812V232.817ZM213.383 183.732C214.014 180.835 214.49 177.917 214.704 174.956C214.565 174.935 214.426 174.908 214.287 174.887C213.811 177.81 213.335 180.734 212.864 183.657C213.04 183.684 213.212 183.705 213.388 183.732H213.383ZM176.737 124.241C179.058 125.988 181.839 126.902 184.321 128.367C182.197 126.266 179.443 125.299 176.737 124.241ZM185.989 239.942C184.577 242.186 182.411 243.56 180.844 245.682C182.534 245.452 185.995 241.588 185.989 239.942ZM162.949 218.034C162.708 217.997 162.414 217.965 162.377 218.264C162.318 218.723 162.687 218.745 163.029 218.793C164.34 218.969 165.645 219.285 166.955 219.317C168.062 219.343 169.142 219.969 170.298 219.162C167.848 218.788 165.399 218.408 162.949 218.034ZM175.405 238.584C173.4 240.123 171.463 241.615 169.522 243.1C170.987 243.282 175.106 239.942 175.405 238.584ZM157.382 239.562C155.274 239.242 153.178 239.61 151.081 239.792C150.798 239.819 150.493 239.984 150.552 240.332C150.616 240.727 151.001 240.626 151.253 240.604C153.306 240.407 155.36 240.182 157.414 239.963C157.403 239.83 157.392 239.696 157.382 239.562ZM185.786 174.48C185.743 174.261 185.625 173.983 185.31 174.117C184.994 174.256 185 174.534 185.091 174.844C185.401 175.934 185.652 177.046 186.005 178.12C186.422 179.387 186.711 180.734 187.727 181.717C187.086 179.28 186.235 176.939 185.786 174.48ZM184.743 163.171C184.882 164.903 185.326 166.602 185.871 168.259C185.962 168.532 186.123 168.826 186.46 168.767C186.786 168.708 186.711 168.414 186.626 168.195C185.711 165.924 185.519 163.46 184.748 160.761C184.208 161.84 184.69 162.503 184.743 163.166V163.171ZM156.232 190.028C156.745 187.618 157.259 185.202 157.772 182.791C157.622 182.759 157.478 182.727 157.328 182.7C156.349 185.015 156.098 187.484 155.809 189.953L156.232 190.033V190.028ZM140.513 188.334C138.642 186.207 137.369 183.866 135.673 181.557C135.663 183.294 138.802 187.623 140.513 188.334ZM201.67 181.541C201.67 179.691 201.67 177.837 201.665 175.988C201.665 175.768 201.665 175.469 201.322 175.485C201.039 175.496 200.916 175.715 200.895 175.972C200.729 177.858 200.825 179.718 201.242 181.557C201.387 181.557 201.531 181.546 201.675 181.546L201.67 181.541ZM111.28 74.8935C113.168 73.5733 115.093 72.328 117.308 71.5851C114.724 71.6118 112.735 72.7716 111.28 74.8935ZM158.927 242.144C156.927 241.561 155.05 242.117 153.221 242.881C155.2 243.149 157.055 242.609 158.927 242.144ZM150.777 91.6169C151.996 92.595 153.226 93.5623 154.456 94.5244C154.777 94.7756 155.216 95.3101 155.52 94.8985C155.9 94.3854 155.183 94.1289 154.852 93.8777C153.381 92.7606 151.878 91.6864 150.338 90.564C150.113 91.184 150.493 91.3978 150.777 91.6222V91.6169ZM150.498 184.587C150.974 182.487 151.45 180.392 151.905 178.286C151.937 178.136 151.846 177.853 151.745 177.81C151.488 177.703 151.253 177.922 151.199 178.131C150.664 180.322 150.14 182.519 150.119 184.748C150.45 184.886 150.472 184.699 150.498 184.582V184.587ZM129.004 211.465C126.597 211.652 124.554 210.771 122.196 210.776C123.672 212.048 127.523 212.465 129.004 211.465ZM188.064 171.829C188.016 171.648 187.898 171.327 187.599 171.391C187.203 171.471 187.251 171.819 187.342 172.081C187.84 173.46 188.337 174.839 188.888 176.196C189.118 176.768 189.3 177.436 190.22 177.805C189.401 175.694 188.583 173.818 188.064 171.835V171.829ZM179.742 199.729C179.165 197.794 179.967 195.747 178.983 193.636C178.266 196.153 178.673 199.226 179.742 199.729ZM180.32 145.699C181.4 147.896 182.481 150.087 183.566 152.284C183.716 152.209 183.866 152.134 184.016 152.065C183.16 149.788 182.01 147.656 180.769 145.566C180.62 145.609 180.47 145.657 180.32 145.699ZM193.263 189.633C193.332 189.349 193.263 189.013 192.888 188.986C192.498 188.959 192.493 189.301 192.455 189.584C192.375 190.29 192.22 190.995 192.214 191.701C192.209 192.652 191.899 193.662 192.541 194.673C193.252 192.962 192.862 191.241 193.257 189.633H193.263ZM167.698 135.224C169.479 137.025 171.255 138.821 173.036 140.622C171.335 138.762 169.902 136.597 167.698 135.224ZM168.003 233.523C167.795 233.678 167.656 233.924 167.816 234.132C168.046 234.431 168.335 234.255 168.559 234.079C169.57 233.293 170.586 232.513 171.57 231.7C171.977 231.364 172.506 231.07 172.533 230.172C170.913 231.374 169.453 232.449 168.003 233.528V233.523ZM105.183 177.821C106.761 178.104 108.087 179.05 109.601 179.52C110.178 179.697 110.692 179.83 111.665 179.713C109.558 178.788 107.852 178.019 106.124 177.297C105.648 177.099 105.007 176.848 105.21 177.858C105.21 177.858 105.183 177.821 105.178 177.821H105.183ZM189.567 170.092C190.359 172.097 191.065 174.138 192.797 175.656C191.883 173.721 190.974 171.787 190.059 169.852C189.893 169.932 189.733 170.012 189.567 170.092ZM141.166 186.538C140.139 184.694 139.422 182.652 137.78 181.215C138.679 183.144 139.529 185.111 141.166 186.538ZM117.222 171.952C116.334 170.071 115.441 168.19 114.553 166.303C114.43 166.362 114.307 166.415 114.184 166.474C114.633 168.564 115.671 170.376 116.874 172.113C116.992 172.059 117.104 172.006 117.222 171.952ZM194.707 179.275C194.878 181.252 195.044 183.224 195.215 185.202C195.37 185.186 195.52 185.17 195.675 185.159C195.423 183.187 196.017 181.145 195.247 179.216C195.065 179.237 194.889 179.259 194.707 179.275ZM148.814 169.467C149.589 167.511 150.873 165.806 151.563 163.812C150.081 165.427 148.921 167.206 148.814 169.467ZM203.205 233.197C202.141 234.838 200.531 236.083 199.771 237.927C201.435 236.703 202.676 235.201 203.205 233.197ZM165.345 181.632C165.286 181.423 165.078 181.204 164.8 181.375C164.57 181.519 164.521 181.797 164.618 182.011C165.318 183.55 165.998 185.111 167.629 185.961C166.832 184.518 165.784 183.24 165.345 181.632ZM189.449 157.474C189.728 159.531 189.883 161.611 190.765 163.54C190.68 161.439 190.401 159.382 189.449 157.474ZM175.015 163.941C174.335 161.979 173.688 160.119 173.047 158.265C172.635 159.911 173.854 163.107 175.015 163.941ZM117.923 175.448C118.457 177.372 119.5 179.013 120.714 180.563C120.11 178.676 119.163 176.982 117.923 175.448ZM125.244 213.074C124.988 213.042 124.742 213.304 124.768 213.496C124.79 213.651 125.105 213.871 125.298 213.876C126.897 213.945 128.48 214.474 130.159 213.764C128.523 213.528 126.886 213.288 125.244 213.074ZM152.317 167.762C152.445 167.548 152.606 167.335 152.333 167.174C152.226 167.115 151.916 167.206 151.846 167.319C150.846 168.895 150.071 170.557 150.135 172.471C150.798 170.841 151.44 169.248 152.322 167.762H152.317ZM219.49 211.685C218.635 213.427 218.132 215.255 218.148 217.211C218.897 215.442 219.485 213.63 219.49 211.685ZM171.709 199.889C171.501 197.831 171.303 195.886 171.084 193.694C170.271 195.421 170.645 198.761 171.709 199.889ZM173.897 200.178C174.271 197.959 173.774 196.217 173.453 194.459C173.282 196.249 172.891 198.072 173.897 200.178ZM149.247 135.839C147.61 136.961 146.487 138.473 145.899 140.382C146.931 138.794 148.477 137.602 149.247 135.839ZM195.568 188.654C195.643 188.366 195.712 187.885 195.242 187.858C194.824 187.837 194.776 188.275 194.776 188.601C194.766 190.172 194.771 191.749 194.771 193.32C195.573 191.845 195.172 190.199 195.568 188.654ZM164.393 184.395C163.495 182.674 162.601 180.953 161.703 179.237C161.591 179.296 161.478 179.36 161.361 179.419C161.912 181.338 162.81 183.069 164.083 184.609C164.185 184.539 164.286 184.464 164.388 184.395H164.393ZM149.798 93.0172C148.578 91.665 147.188 90.564 145.439 89.9707C146.744 91.2 148.033 92.4453 149.798 93.0172ZM183.77 177.57C183.727 177.302 183.695 176.768 183.262 176.88C182.748 177.019 182.983 177.5 183.09 177.837C183.54 179.264 184.149 180.621 185.16 181.856C185.021 180.349 184.021 179.082 183.77 177.57ZM145.236 143.583C146.445 142.102 147.653 140.627 148.867 139.147C148.734 139.04 148.605 138.938 148.472 138.832C147.15 140.221 145.92 141.686 144.92 143.332C145.027 143.417 145.129 143.497 145.236 143.583ZM212.741 223.571C211.463 224.795 210.43 226.179 209.901 227.911C211.292 226.762 211.981 225.142 212.741 223.571ZM185.256 190.819C184.722 189.205 183.887 187.724 183.005 186.271C182.903 186.1 182.705 186.003 182.534 186.164C182.454 186.239 182.401 186.452 182.449 186.543C183.256 188.04 184.08 189.526 184.898 191.017C185.016 190.953 185.139 190.889 185.256 190.824V190.819ZM157.831 191.305C158.2 189.429 158.553 187.671 158.901 185.913C157.66 187.27 157.194 190.135 157.831 191.305ZM186.642 160.862C186.717 162.744 186.765 164.63 187.487 166.421C187.535 164.518 187.396 162.642 186.642 160.862ZM176.015 200.161C176.218 198.526 175.886 196.853 176.239 195.223C176.293 194.977 176.271 194.742 175.935 194.721C175.721 194.705 175.539 194.801 175.539 195.015C175.528 196.725 175.533 198.435 175.533 200.145C175.694 200.151 175.854 200.156 176.015 200.161ZM178.218 179.558C178.871 181.049 179.721 182.423 180.748 183.695C180.86 183.63 180.973 183.566 181.085 183.502C180.293 182.097 179.507 180.686 178.716 179.28C178.55 179.371 178.379 179.467 178.213 179.558H178.218ZM147.707 166.907C148.338 164.817 149.21 163.203 150.156 161.231C148.578 162.375 147.418 165.058 147.707 166.907ZM102.354 92.9691C102.76 91.2428 103.097 89.5111 103.081 87.5603C102.322 88.6559 101.899 91.7078 102.354 92.9691ZM193.193 170.37C193.134 170.183 192.942 169.916 192.664 170.13C192.439 170.301 192.509 170.525 192.616 170.761C193.193 172.038 193.798 173.299 195.017 174.133C194.605 172.759 193.632 171.701 193.193 170.37ZM154.857 169.692C153.477 170.034 152.194 172.193 152.189 174.085C153.034 172.658 153.745 171.145 154.857 169.692ZM170.699 158.201C170.576 158.249 170.453 158.297 170.33 158.345C170.453 159.991 171.137 161.413 172.405 162.61C171.838 161.14 171.266 159.67 170.699 158.201ZM172.822 168.714C173.437 170.135 173.859 171.648 175.245 172.711C174.63 171.311 174.009 169.911 173.394 168.51L172.822 168.714ZM169.929 218.178C168.442 217.494 166.923 216.928 165.254 216.976C166.725 217.735 168.292 218.103 169.929 218.178ZM127.715 215.196C127.453 215.1 127.266 215.169 127.105 215.383C126.934 215.618 127.143 215.784 127.271 215.827C128.394 216.195 129.507 216.88 130.694 215.939C129.683 215.672 128.672 215.543 127.72 215.196H127.715ZM177.758 172.973C177.036 171.573 176.314 170.173 175.592 168.778C175.459 168.847 175.325 168.917 175.191 168.991C175.656 170.525 176.325 171.958 177.416 173.171L177.758 172.979V172.973ZM182.031 195.544C182.026 195.367 181.78 195.084 181.609 195.052C181.304 194.993 181.277 195.309 181.267 195.544C181.213 196.703 181.347 197.826 182.053 198.863C182.053 197.756 182.074 196.65 182.031 195.544ZM167.003 193.363C165.816 194.293 165.57 196.132 166.441 197.532C166.538 196.116 166.548 194.715 167.003 193.363ZM189.278 194.256C189.337 193.983 189.278 193.668 188.915 193.593C188.701 193.55 188.492 193.71 188.503 193.882C188.588 194.988 187.941 196.062 188.412 197.553C189.107 196.308 189.059 195.25 189.273 194.256H189.278ZM170.287 183.149C170.287 183.08 170.084 182.941 169.993 182.957C169.704 183.01 169.656 183.256 169.688 183.502C169.848 184.956 170.431 186.18 171.699 187.03C171.314 185.699 170.265 184.619 170.287 183.149ZM107.895 79.1799C108.06 78.9875 108.43 78.8004 108.141 78.4958C107.895 78.2446 107.59 78.4423 107.387 78.6294C106.483 79.4685 105.852 80.484 105.611 81.8255C106.376 80.9436 107.141 80.0671 107.9 79.1799H107.895ZM112.852 76.2777C112.943 76.422 113.034 76.561 113.131 76.7053C114.382 75.9357 115.639 75.1607 116.89 74.3911C115.2 74.4766 113.986 75.3157 112.852 76.2777ZM180.523 172.198C179.994 170.787 178.994 169.713 177.924 168.665C178.261 170.221 179.416 171.188 180.523 172.198ZM182.598 182.455C182.085 181.161 181.566 179.862 181.053 178.569C180.924 178.623 180.796 178.676 180.668 178.729C180.737 180.205 181.432 181.439 182.245 182.626C182.363 182.572 182.486 182.513 182.604 182.46L182.598 182.455ZM131.186 208.537C129.726 208.98 128.186 208.595 126.726 209.066C128.245 209.215 129.812 209.691 131.186 208.537ZM110.162 181.006C108.879 180.659 107.734 179.766 106.301 179.975C107.494 180.664 108.702 181.295 110.162 181.006ZM191.006 195.191C191.006 193.999 191.006 192.813 191.006 191.621C191.006 191.364 190.824 191.108 190.61 191.118C190.294 191.134 190.075 191.434 190.204 191.733C190.674 192.85 190.241 194.063 190.578 195.191C190.722 195.191 190.867 195.191 191.011 195.191H191.006ZM167.992 183.155C167.928 182.898 167.762 182.583 167.404 182.711C167.233 182.77 167.158 182.984 167.26 183.198C167.8 184.309 167.998 185.64 169.538 186.581C168.939 185.18 168.276 184.256 167.992 183.155ZM143.728 149.649C144.637 148.543 145.546 147.431 146.455 146.325C146.343 146.229 146.236 146.138 146.124 146.041C145.017 146.998 144.113 148.131 143.401 149.43C143.508 149.505 143.621 149.58 143.728 149.649ZM212.377 227.526C212.334 227.617 212.361 227.815 212.436 227.884C212.596 228.039 212.816 227.98 212.928 227.825C213.607 226.853 214.121 225.81 213.885 224.496C213.383 225.506 212.869 226.511 212.383 227.526H212.377ZM169.319 198.024C168.693 196.468 169.025 195.137 168.805 193.78C168.003 194.865 168.153 196.901 169.319 198.024ZM184.764 186.175C185.059 187.484 185.807 188.521 186.765 189.451C186.38 188.189 185.888 186.987 184.764 186.175ZM156.628 244.062C157.826 243.817 159.018 243.565 160.216 243.32C158.863 242.774 157.638 242.94 156.628 244.062ZM196.108 170.739C196.028 170.552 195.91 170.237 195.611 170.37C195.29 170.515 195.306 170.798 195.466 171.081C195.969 171.952 196.407 172.872 197.493 173.812C197.183 172.449 196.509 171.648 196.108 170.739ZM193.723 185.122C193.963 183.855 193.814 182.684 192.963 181.69C192.803 182.936 193.134 184.058 193.723 185.122ZM154.916 232.368C154.691 232.411 154.478 232.63 154.601 232.897C154.659 233.02 154.921 233.159 155.05 233.122C155.996 232.86 157.109 232.972 157.991 231.85C156.799 232.048 155.852 232.187 154.916 232.368ZM187.492 184.764C187.439 184.619 187.326 184.389 187.102 184.48C186.861 184.576 186.743 184.822 186.829 185.063C187.166 186.02 187.524 186.966 188.508 187.591C188.171 186.65 187.845 185.704 187.492 184.769V184.764ZM172.153 184.448C172.469 185.71 172.961 186.859 174.491 187.826C173.694 186.394 173.095 185.325 172.501 184.25C172.383 184.315 172.271 184.379 172.153 184.443V184.448ZM116.5 166.88C116.5 168.174 117.051 169.232 117.955 170.151C117.735 168.949 117.329 167.816 116.5 166.88ZM181.224 169.553C181.042 169.355 180.812 169.072 180.534 169.408C180.283 169.713 180.577 169.959 180.764 170.125C181.39 170.686 182.053 171.204 182.7 171.739C182.614 170.67 181.812 170.199 181.224 169.558V169.553ZM175.223 219.092C174.924 219.092 174.64 219.146 174.672 219.541C174.699 219.841 174.94 219.878 175.18 219.894C175.918 219.942 176.657 219.985 177.395 220.028C176.833 219.301 176.063 219.098 175.223 219.087V219.092ZM160.783 187.099C159.778 188.227 159.981 189.355 160.173 190.488C160.574 189.478 161.045 188.473 160.783 187.099ZM162.837 188.109C161.601 189.151 161.671 190.247 161.89 191.375C162.371 190.44 162.676 189.461 162.837 188.109ZM144.086 151.824C144.824 150.825 145.519 149.874 146.348 148.751C144.829 149.334 143.984 150.547 144.086 151.824ZM197.894 170.237C197.814 171.391 198.098 172.412 199.189 173.15C198.873 172.145 198.563 171.14 198.247 170.135C198.13 170.173 198.012 170.205 197.894 170.242V170.237ZM188.535 163.406C188.647 162.295 189.038 161.151 188.102 160.205C188.46 161.247 187.781 162.45 188.535 163.406ZM146.819 163.78C147.423 162.749 148.22 161.803 148.311 160.531C147.413 161.423 146.937 162.519 146.819 163.78ZM153.905 174.732C154.574 173.786 155.146 172.984 155.713 172.182C154.36 172.669 153.986 173.246 153.905 174.732ZM184.438 198.269C184.24 197.58 184.048 196.896 183.85 196.206C183.796 196.025 183.732 195.827 183.486 195.886C183.251 195.939 183.272 196.158 183.272 196.329C183.262 197.142 183.609 197.799 184.091 198.392C184.208 198.35 184.326 198.312 184.444 198.269H184.438ZM10.8782 144.411C12.8624 135.79 15.4777 127.431 20.6815 120.093C23.2379 116.491 25.6928 112.819 28.185 109.169C28.3936 108.859 28.8589 108.565 28.3615 107.988C26.6234 110.441 24.9654 112.905 23.1845 115.272C17.018 123.455 12.7661 132.504 10.7071 142.557C10.4718 143.711 9.99578 144.876 10.5413 146.378C11.0066 145.55 10.7552 144.957 10.8782 144.406V144.411ZM88.577 127.335C90.0156 121.274 91.8929 115.304 92.294 109.035C92.3154 108.672 92.5721 108.18 92.0266 108.11C91.6736 108.062 91.6201 108.522 91.5987 108.869C91.342 113.525 90.1012 117.998 89.1492 122.53C88.716 124.593 87.9191 126.592 87.855 128.837C88.6679 128.436 88.47 127.79 88.577 127.335ZM53.712 84.1451C50.963 88.6185 47.3049 92.2796 43.4916 95.8124C43.2509 96.0316 42.6305 96.0797 42.9728 96.5393C43.2884 96.9669 43.6627 96.4966 43.9194 96.2828C48.9681 92.1246 52.8563 86.9991 56.1347 81.3551C55.0437 82.0339 54.3538 83.0975 53.712 84.1397V84.1451ZM14.8145 137.453C16.8843 132.049 18.6813 126.512 22.2325 121.803C18.0288 126.175 16.2692 131.739 14.8145 137.453ZM68.4784 142.829C70.4572 137.827 72.3666 132.803 72.8693 127.383C71.6552 132.605 69.8422 137.656 68.4784 142.829ZM74.7251 139.345C76.2493 134.417 77.9715 129.532 77.9233 124.267C77.1586 129.355 75.5701 134.267 74.7251 139.345ZM69.9278 178.81C67.5853 183.187 65.8899 187.874 63.6329 192.3C66.4996 188.168 68.2698 183.518 69.9278 178.81ZM93.9786 132.637C93.3796 137.415 92.1816 141.728 91.1655 146.063C93.1176 142.14 94.7755 134.385 93.9786 132.637ZM87.764 148.692C88.47 146.517 89.1599 144.337 89.8873 142.172C90.4274 140.563 90.9088 138.944 91.2136 137.271C91.2832 136.891 91.2083 136.555 90.8232 136.48C90.5665 136.432 90.4809 136.747 90.4595 136.993C90.1975 139.745 89.0155 142.252 88.3309 144.892C88.0101 146.127 87.3362 147.287 87.3843 148.607C87.5073 148.634 87.6357 148.666 87.7587 148.692H87.764ZM101.263 171.61C100.605 171.471 100.514 171.979 100.343 172.407C99.0969 175.517 97.6475 178.526 95.9575 181.423C95.7222 181.824 95.3104 182.219 95.4868 183C96.7918 181.487 97.6208 179.873 98.4016 178.259C99.4552 176.084 100.856 174.047 101.231 171.578C101.231 171.578 101.258 171.61 101.263 171.61ZM65.2107 179.21C63.4511 182.385 62.3173 185.848 60.793 189.157C62.8253 186.11 64.2694 182.775 65.2107 179.21ZM91.0692 156.693C89.8498 160.044 88.6893 163.299 87.0527 166.367C88.8551 164.972 91.7217 158.083 91.0692 156.693ZM87.6731 112.691C87.0741 116.037 86.4805 119.388 85.8815 122.733C86.0312 122.755 86.1756 122.782 86.3254 122.803C87.1436 119.5 87.978 116.202 88.1331 112.787C87.978 112.755 87.8229 112.723 87.6731 112.691ZM47.476 201.578C48.0322 200.931 48.6419 200.322 49.1126 199.616C50.1073 198.131 51.423 196.842 52.0113 195.089C52.0915 194.854 52.2306 194.635 51.9578 194.491C51.685 194.352 51.5299 194.571 51.423 194.795C50.1875 197.366 48.3103 199.499 46.6042 201.76C47.0107 202.064 47.2567 201.829 47.476 201.572V201.578ZM91.6682 166.159C92.5293 163.47 93.8503 160.921 94.2086 158.078C94.0696 158.035 93.9305 157.987 93.7861 157.944C92.909 160.627 92.0266 163.31 91.1495 165.988C91.3206 166.047 91.4917 166.1 91.6629 166.159H91.6682ZM87.1757 155.817C87.272 155.566 87.2934 155.304 87.0634 155.192C86.6677 154.999 86.5874 155.421 86.5072 155.63C85.967 157.03 85.4429 158.436 84.9509 159.857C84.6353 160.766 84.0631 161.621 84.4909 162.706C85.3841 160.408 86.2772 158.11 87.1757 155.817ZM16.9752 140.355C17.9325 137.816 18.8898 135.283 19.8472 132.744C19.6974 132.691 19.5423 132.637 19.3926 132.584C18.3069 135.096 17.1035 137.565 16.5901 140.28C16.7185 140.307 16.8468 140.328 16.9752 140.355ZM58.1243 195.624C56.2792 197.462 55.1774 199.771 54.0703 202.08C55.7925 200.167 57.0653 197.965 58.1243 195.624ZM54.3538 194.913C53.113 197.056 51.8776 199.205 50.6368 201.348C50.7438 201.412 50.8507 201.476 50.9523 201.546C52.6852 199.702 53.696 197.414 54.8244 195.196C54.6693 195.1 54.5089 195.009 54.3538 194.913ZM88.9513 156.923C87.9298 159.425 86.9671 161.776 85.8975 164.39C87.2773 163.337 89.3792 158.19 88.9513 156.923ZM72.2917 182.674C71.222 184.961 70.1524 187.249 69.0828 189.536C69.2165 189.6 69.3555 189.665 69.4892 189.729C70.7995 187.543 71.9387 185.271 72.7516 182.845C72.5965 182.786 72.4468 182.727 72.2917 182.674ZM59.8945 180.739C58.8784 182.85 57.8569 184.961 56.8407 187.078C56.9691 187.142 57.0921 187.206 57.2204 187.27C58.627 185.357 59.5523 183.198 60.3331 180.963C60.1887 180.889 60.0389 180.814 59.8945 180.739ZM85.3894 113.167C85.3894 113.086 85.229 112.926 85.1274 112.91C84.8172 112.873 84.7476 113.108 84.7209 113.359C84.6621 113.968 84.646 114.588 84.5498 115.187C84.2717 116.865 83.9561 118.538 83.6566 120.211C84.8921 118.003 85.2397 115.604 85.3948 113.167H85.3894ZM84.3572 192.829C82.8223 194.534 81.2874 196.244 79.7524 197.949C79.8754 198.056 79.9931 198.163 80.1161 198.269C81.651 196.57 83.5229 195.186 84.769 193.224C84.63 193.096 84.4963 192.962 84.3572 192.834V192.829ZM75.3134 141.793C74.5165 143.952 73.7196 146.111 72.9228 148.27C73.0511 148.318 73.1795 148.366 73.3078 148.415C74.3882 146.378 75.0995 144.198 75.7734 142.001C75.6183 141.931 75.4685 141.862 75.3134 141.798V141.793ZM82.464 198.841C83.7529 197.323 85.0418 195.816 86.3147 194.288C86.4002 194.186 86.3147 193.946 86.3147 193.769C86.1435 193.796 85.8922 193.753 85.8119 193.855C84.5498 195.394 83.1699 196.853 82.1377 198.563C82.25 198.66 82.357 198.75 82.4693 198.847L82.464 198.841ZM124.244 42.8683C124.586 44.7122 124.923 46.5615 125.292 48.4C125.33 48.5871 125.447 48.8757 125.747 48.8436C125.956 48.8222 126.105 48.6459 126.057 48.4428C125.587 46.5508 125.453 44.5732 124.651 42.7721C124.517 42.8042 124.378 42.8362 124.244 42.863V42.8683ZM83.4962 168.147C82.3998 169.937 81.5387 171.712 80.7579 173.721C82.0575 172.861 83.8385 169.243 83.4962 168.147ZM88.6037 136.25C87.9833 138.351 87.4699 140.307 87.2934 142.354C88.3416 140.873 89.1064 137.319 88.6037 136.25ZM16.0018 166.592C15.574 168.671 15.8521 170.707 16.3655 172.733C16.6543 170.659 16.4885 168.612 16.0018 166.592ZM123.511 49.2979C123.576 47.0532 123.314 44.9153 122.805 42.724C122.281 43.5417 122.832 48.6619 123.511 49.2979ZM62.6596 147.992C61.7343 149.863 60.6914 151.696 60.4935 153.823C61.253 151.894 62.5312 150.146 62.6596 147.992ZM86.6035 170.007C85.7638 171.749 84.9295 173.492 84.0898 175.234C85.6141 173.802 86.4912 172.054 87.0795 170.162C86.919 170.108 86.7586 170.06 86.6035 170.007ZM62.7023 138.783C63.5099 136.79 64.0929 134.748 64.0929 132.6C63.3762 134.625 62.7237 136.635 62.7023 138.783ZM84.4428 134.983C83.6245 136.843 82.9025 138.73 82.8758 140.788C83.662 138.906 84.3091 137.014 84.4428 134.983ZM84.9776 169.227C84.2075 170.873 83.4373 172.524 82.6725 174.17C82.8116 174.24 82.9453 174.309 83.0844 174.379C84.0738 172.84 84.9562 171.247 85.3948 169.424C85.2557 169.36 85.1167 169.291 84.9776 169.227ZM85.6194 141.135C86.1007 139.334 86.5874 137.527 87.0688 135.726C86.9351 135.689 86.8014 135.657 86.6677 135.619C85.7692 137.324 85.3306 139.158 85.2611 141.092C85.3787 141.108 85.4964 141.119 85.6194 141.135ZM83.8545 155.224C83.9454 155.01 84.3037 154.711 83.8866 154.523C83.5764 154.385 83.3892 154.641 83.2715 154.946C82.71 156.469 81.9826 157.928 81.7473 159.574C82.7955 158.286 83.2234 156.709 83.8545 155.224ZM92.7646 191.252C94.1498 189.878 95.2248 188.291 96.1768 186.613C96.0431 186.517 95.9094 186.42 95.781 186.324C94.6686 187.885 93.5615 189.44 92.4491 191.001L92.7646 191.252ZM72.0189 144.903C71.0669 146.485 70.5856 148.238 70.2433 150.077C71.1579 148.489 71.8103 146.774 72.0189 144.903ZM22.286 185.929C21.3019 184.352 20.3125 182.775 19.3284 181.193C19.2054 181.273 19.0824 181.354 18.9594 181.434C19.7295 183.149 20.6868 184.747 21.9758 186.142L22.2806 185.929H22.286ZM54.0222 88.5811C55.0437 87.1915 56.0545 85.7966 56.7284 84.1878C56.6161 84.1183 56.5091 84.0435 56.3968 83.974C55.4502 85.4117 54.5035 86.8495 53.5569 88.2872C53.712 88.3834 53.8671 88.4796 54.0169 88.5811H54.0222ZM59.9213 147.971C58.9533 149.403 58.5414 151.007 58.4505 152.68C59.1244 151.146 59.9159 149.671 59.9213 147.971ZM14.269 167.238C14.285 167.035 14.1567 166.875 13.9267 166.87C13.6486 166.87 13.4775 167.041 13.4721 167.303C13.44 168.73 13.0817 170.173 13.8518 171.61C13.9909 170.151 14.1353 168.697 14.2636 167.238H14.269ZM93.2192 179.82C91.9945 181.129 91.1762 182.658 90.7216 184.379C91.8126 182.994 92.77 181.546 93.2192 179.82ZM60.0175 196.442C59.1511 197.43 58.1831 199.622 58.1831 200.6C59.2367 199.579 60.2154 197.356 60.0175 196.442ZM120.934 58.5014C121.554 56.8125 121.661 55.487 121.26 53.4721C120.859 54.7014 120.693 57.9242 120.934 58.5014ZM66.7349 132.589C66.2749 134.235 65.8578 135.732 65.3551 137.543C66.5851 136.245 67.2751 133.685 66.7349 132.589ZM19.3765 172.979C19.4781 171.274 19.2589 169.627 18.4673 168.088C18.4246 169.782 18.7134 171.418 19.3765 172.979ZM95.3371 191.07C96.1286 189.996 96.995 188.97 97.3694 187.655L96.995 187.436C96.3158 188.574 95.6366 189.713 94.9627 190.851C95.0857 190.926 95.2141 190.995 95.3371 191.07ZM33.5707 112.782C32.6187 113.605 31.6614 114.423 30.7201 115.262C30.6078 115.363 30.5168 115.598 30.5596 115.732C30.6131 115.903 30.8056 115.983 30.9982 115.807C31.9769 114.92 32.961 114.043 33.945 113.161C33.822 113.038 33.699 112.915 33.576 112.787L33.5707 112.782ZM74.2117 185.154C73.1688 186.025 72.773 187.243 72.4896 188.526C73.2437 187.5 73.9817 186.452 74.2117 185.154ZM86.2398 197.607C87.0955 196.586 87.9726 195.715 88.4005 194.507C87.0634 195.17 86.2612 196.372 86.2398 197.607ZM61.2637 200.161C61.5418 198.756 62.5259 197.965 62.5098 196.65C61.3867 197.5 60.8679 198.777 61.2637 200.161ZM22.5052 181.567C22.4731 181.444 22.3555 181.183 22.0988 181.29C21.9062 181.37 21.826 181.546 21.8902 181.749C22.2699 182.888 22.6229 184.037 23.6658 184.817C23.3556 183.689 22.7994 182.679 22.5052 181.567ZM27.586 114.855C27.6716 114.941 27.7518 115.026 27.8374 115.107C28.5808 114.203 29.3242 113.3 30.2494 112.178C29.1156 113.065 28.2278 113.84 27.586 114.855ZM19.8579 139.601C20.4355 138.484 20.7671 137.372 20.7724 136.175C19.8418 137.394 19.5102 138.762 19.8579 139.601ZM46.7647 197.013C45.6202 197.617 45.0212 198.729 44.2724 199.702C45.4972 199.178 46.1924 198.152 46.7647 197.013ZM97.1662 158.746C96.257 159.991 95.8452 160.996 96.1126 162.214C96.4067 161.167 97.1608 160.285 97.1662 158.746ZM91.5185 195.688C90.251 195.838 89.6787 196.634 89.545 197.847C90.2028 197.126 90.8607 196.41 91.5185 195.688ZM122.827 56.6789C123.148 55.7703 122.966 54.8938 122.586 54.0279C122.303 54.9365 122.249 55.8237 122.827 56.6789ZM62.9484 48.2664C61.3172 48.1381 60.2154 48.4535 59.1993 49.1803C60.3705 49.1429 61.5739 49.1803 62.9484 48.2664ZM61.8466 47.0371C61.8466 47.0371 61.7931 46.7432 61.7236 46.7218C60.9428 46.4652 60.3331 47.0692 59.6218 47.1868C59.5683 47.1975 59.5362 47.3364 59.3918 47.6143C60.3705 47.7266 61.1407 47.5075 61.852 47.0371H61.8466ZM89.7054 30.3832C87.9352 31.3132 86.1596 32.2431 84.3893 33.1731L84.5498 33.4884C86.5179 32.9486 88.2454 31.9331 89.9194 30.8214C89.8498 30.6771 89.775 30.5328 89.7054 30.3832ZM88.9674 28.8974C87.4699 29.218 86.4858 30.3404 85.2985 31.1475C86.8762 30.9497 87.9405 29.9556 88.9674 28.8974ZM126.309 6.52999C124.565 8.5663 123.105 10.7897 121.96 13.2108C122.083 13.291 122.201 13.3658 122.324 13.446C123.768 11.2279 125.212 9.00991 126.651 6.78654L126.303 6.52465L126.309 6.52999ZM45.2458 44.477C46.5454 44.4663 47.8129 44.322 48.9682 43.6272C47.6204 43.3974 46.4171 43.8677 45.2458 44.477ZM45.7111 42.9859C46.8717 42.7614 47.7274 42.7454 48.3852 42.0506C47.4707 41.8849 46.6363 41.9864 45.7111 42.9859ZM77.0035 13.0237C77.1532 12.9756 77.3564 12.8206 77.3671 12.6977C77.3885 12.5 77.1425 12.3129 76.9821 12.3877C76.137 12.7725 75.0032 12.5053 74.3026 13.5689C75.3348 13.5689 76.1691 13.2963 77.0035 13.0291V13.0237ZM24.821 39.5279C25.0028 39.4531 25.2382 39.2607 25.0403 38.972C24.9066 38.7743 24.714 38.7743 24.5482 38.8972C23.8316 39.4263 22.8101 39.4263 22.0774 40.4204C23.1845 40.4204 23.976 39.8646 24.8264 39.5279H24.821ZM14.7717 49.4689C15.8949 48.71 17.2426 48.2397 17.9646 46.9676C15.8146 47.9243 15.4028 48.2557 14.7717 49.4689ZM94.1819 10.6026C94.4172 10.5973 94.706 10.6026 94.722 10.2926C94.7381 10.0147 94.4386 9.81161 94.2461 9.87575C93.3903 10.1697 92.3367 9.76351 91.6629 10.7309C92.5025 10.5438 93.3422 10.624 94.1765 10.6026H94.1819Z" fill="#332C0D"/>
</svg>
