<svg width="409" height="255" viewBox="0 0 409 255" fill="none" xmlns="http://www.w3.org/2000/svg">
<path d="M96.1148 196.972C96.966 197.349 97.4023 198.195 98.1525 198.695C98.9771 199.243 99.3282 200.249 99.0409 201.249C98.7589 202.249 97.9662 202.552 96.9288 202.563C94.0985 202.584 91.465 202.015 89.0602 200.44C87.4695 199.398 86.5704 197.839 86.2405 196.147C85.6926 193.36 84.1763 191.971 81.4949 191.094C76.9249 189.593 72.7272 187.237 68.8861 184.311C68.0401 183.667 67.5666 183.641 66.6888 184.487C65.0076 186.109 62.7838 186.976 60.528 187.482C59.2991 187.758 58.2616 188.253 57.2508 188.907C56.3623 189.487 55.5164 190.131 54.612 190.679C49.8025 193.578 48.5842 198.073 49.0417 203.27C49.2066 205.148 49.1694 206.973 48.5097 208.744C48.0256 210.042 47.1211 210.92 45.7698 211.361C42.0297 212.585 38.1885 213.431 34.2729 213.558C32.2778 213.622 30.171 213.521 28.2132 212.776C27.2875 212.425 26.4149 211.989 26.2341 210.914C26.0638 209.92 26.8299 209.388 27.4843 208.829C28.7452 207.765 30.3519 207.398 31.7777 206.669C39.3271 202.818 38.662 202.962 40.0985 195.977C40.9231 191.982 42.2266 188.163 44.3546 184.652C45.0729 183.471 46.0411 182.513 47.0307 181.582C49.1269 179.609 49.6216 177.05 49.8025 174.348C49.8451 173.736 49.5631 173.294 49.2173 172.853C46.3337 169.129 45.2431 164.751 44.7803 160.203C44.6153 158.58 44.9877 156.878 46.1901 155.591C46.6583 155.085 46.5998 154.676 46.4029 154.112C39.9921 135.711 34.5921 117.029 30.3998 97.9954C29.107 92.1332 28.277 86.1806 26.7714 80.3662C26.5958 79.6853 26.4522 79.0576 25.7393 78.6427C21.5842 76.2382 18.3176 72.8284 15.0084 69.4026C7.05476 61.1678 3.64451 50.8744 1.40471 40.065C0.569439 36.0327 0.734365 31.926 2.46875 27.9735C3.84668 24.8403 6.03328 22.3667 8.44333 20.1059C15.9501 13.0627 24.7923 8.29104 34.5123 5.00353C39.359 3.36509 44.3121 2.15223 49.3397 1.4128C54.862 0.604225 60.4323 0.806369 66.0078 1.48728C71.8015 2.18946 77.542 3.0672 83.1069 4.85458C91.7523 7.63673 99.9454 11.5094 108.144 15.3821C122.774 22.2975 137.102 29.846 151.881 36.453C160.026 40.0969 168.4 43.1557 176.78 46.2198C187.649 50.1935 198.544 54.0821 209.626 57.4335C216.362 59.4709 223.294 60.7316 230.083 62.5509C238.733 64.8649 247.49 66.6257 256.29 68.2163C259.998 68.8866 263.77 69.1047 267.51 69.5302C270.537 69.876 272.942 68.6844 275.389 67.3066C282.87 63.1041 290.408 59.0187 298.005 55.029C309.859 48.8104 322.021 43.278 334.38 38.1818C337.769 36.7828 341.386 35.9583 344.813 34.639C348.968 33.0378 353.277 32.059 357.613 31.2025C361.135 30.5057 364.71 30.1599 368.275 29.7396C372.616 29.2236 376.904 29.2449 381.219 29.7982C388.071 30.6759 394.429 33.0325 400.403 36.3785C404.149 38.4797 406.878 41.6396 408.224 45.8048C408.884 47.8529 408.57 49.7998 407.469 51.7202C403.484 58.6782 397.004 61.2848 389.523 62.1892C387.193 62.4711 384.863 63.0722 382.501 62.2583C381.517 61.9179 381.49 62.8914 381.298 63.4286C379.676 67.9822 378.122 72.5624 376.484 77.116C366.663 104.4 357.017 131.743 347.441 159.107C345.116 165.751 342.754 172.379 340.392 179.013C340.094 179.853 340.067 180.47 340.711 181.295C342.248 183.274 342.482 185.742 342.748 188.152C343.046 190.854 343.312 193.562 343.929 196.216C345.286 202.041 347.526 203.228 352.857 204.27C353.554 204.409 354.235 204.531 354.831 204.898C356.038 205.643 356.219 206.957 355.261 207.978C351.952 211.521 343.871 213.058 340.328 206.43C337.907 201.903 335.678 197.27 333.348 192.695C332.342 190.716 332.347 190.737 330.773 192.317C325.447 197.679 318.962 201.329 312.397 204.914C305.081 208.914 297.229 211.085 289.089 212.436C285.53 213.026 282.093 214.303 278.427 214.335C277.523 214.346 276.874 214.792 276.416 215.644C274.591 219.027 273.841 222.697 273.373 226.458C272.894 230.304 273.187 234.087 273.852 237.895C274.825 243.513 272.234 247.407 266.739 248.891C264.105 249.604 261.589 250.556 259.221 251.971C256.114 253.828 252.56 254.232 249.038 254.466C247.23 254.588 246.389 252.918 247.336 251.322C248.352 249.604 249.794 248.226 251.422 247.125C257.263 243.167 259.498 237.47 259.445 230.687C259.408 226.336 259.753 222.027 260.323 217.723C260.583 215.723 260.514 215.691 258.54 215.713C254.3 215.75 250.049 216.011 245.83 215.729C241.138 215.415 236.451 215.755 231.78 215.452C227.662 215.186 223.555 214.782 219.426 214.904C218.022 214.947 216.617 215.202 215.218 215.165C209.025 215.005 202.827 214.888 196.645 214.537C190.171 214.17 183.701 213.611 177.242 213.026C166.304 212.037 155.467 210.414 144.688 208.265C131.494 205.632 118.353 202.759 105.244 199.738C102.153 199.025 99.1846 197.897 96.1148 196.972ZM272.884 182.997C274.134 182.274 275.028 181.167 276.187 180.204C274.49 179.391 272.708 180.157 271.282 179.178C271.452 178.811 271.713 178.874 271.953 178.922C274.916 179.513 277.746 179.641 280.178 177.311C280.843 176.672 281.816 176.332 282.673 175.901C286.854 173.8 289.036 174.438 291.456 178.465C291.637 178.768 291.834 179.071 291.941 179.406C292.164 180.125 292.632 180.444 293.366 180.513C294.813 180.651 296.282 180.704 297.692 181.024C298.788 181.274 300.075 180.965 301.261 182.13C298.681 181.822 296.431 181.518 294.164 181.306C293.744 181.268 292.797 180.901 292.909 181.731C292.999 182.396 292.675 183.503 293.989 183.747C294.856 183.907 295.856 183.763 296.761 184.476C295.856 184.662 295.117 184.715 294.404 184.439C293.537 184.098 293.382 184.481 293.372 185.269C293.356 186.817 293.324 186.822 295.085 188.577C293.318 187.833 293.021 188.71 292.957 189.961C292.925 190.556 292.723 191.141 292.59 191.732C291.206 197.871 288.818 203.685 286.716 209.808C288.36 209.478 289.919 209.212 291.462 208.856C295.021 208.037 298.697 207.696 302.113 206.318C306.624 204.499 310.96 202.313 315.2 199.94C323.234 195.445 330.214 189.758 335.22 181.891C335.864 180.875 336.62 179.944 337.034 178.784C340.748 168.395 344.504 158.027 348.202 147.633C355.565 126.939 362.901 106.235 370.232 85.5316C372.68 78.6214 375.095 71.7006 377.553 64.6947C373.382 64.1096 369.227 63.9925 364.95 64.051C365.396 63.301 365.992 63.4606 366.519 63.4499C369.594 63.3808 372.664 63.5297 375.734 63.7319C377.989 63.8808 377.947 63.7851 378.745 61.5987C379.144 60.5029 378.761 60.3912 377.798 60.4018C374.366 60.439 370.929 60.4124 367.498 60.4018C367.141 60.4018 366.711 60.5614 366.391 60.072C366.865 59.6677 367.376 59.8273 367.838 59.822C370.919 59.806 373.999 59.8113 377.08 59.8166C378.704 59.8166 379.749 59.0293 380.213 57.4547C380.24 57.3643 380.203 57.2579 380.192 57.1249C377.441 57.0611 374.691 57.0079 371.935 57.2047C373.366 56.3695 374.93 56.3323 376.431 56.5185C379.335 56.8802 381.511 56.3483 381.953 52.9703C381.985 52.7363 382.155 52.5182 382.277 52.3C382.692 51.5606 382.416 51.3106 381.639 51.3319C379.937 51.3691 378.271 51.7521 376.585 51.917C371.658 52.4011 366.785 53.231 361.938 54.1779C348.904 56.7313 336.22 60.5827 323.686 64.9234C322.388 65.3756 321.085 65.8171 319.781 66.264C323.936 66.0618 327.948 64.8596 332.108 65.0352C327.575 65.9342 323.032 66.6896 318.472 67.3864C314.158 68.0461 310.215 69.8122 306.183 71.3229C294.377 75.7435 282.439 79.8183 270.835 84.7443C262.658 88.218 254.274 91.0107 245.809 93.6386C237.536 96.2027 229.077 97.9209 220.586 99.4849C214.606 100.586 208.594 101.496 202.519 102.006C196.103 102.544 189.729 103.645 183.254 103.459C179.722 103.358 176.173 103.629 172.656 103.384C167.491 103.022 162.335 102.554 157.148 102.485C154.179 102.443 151.211 102.395 148.242 102.357C143.422 102.299 138.623 101.661 133.814 101.389C127.116 101.017 120.412 100.756 113.714 100.357C108.936 100.075 104.148 99.8147 99.3974 99.2721C93.2579 98.5699 87.1928 97.3198 81.1225 96.1601C75.8874 95.16 70.5885 94.5057 65.3322 93.6067C59.3257 92.58 53.5586 90.6331 47.7755 88.7872C43.0565 87.287 38.412 85.5901 34.0813 83.1324C32.8151 82.4143 31.5596 81.6749 30.2082 80.8929C30.1604 81.2972 30.1018 81.4514 30.1338 81.5897C30.7562 84.5208 31.3787 87.4573 32.0331 90.383C32.1501 90.9203 32.6076 91.1437 33.1131 91.3246C38.1939 93.1279 43.2693 94.9473 48.3395 96.7825C48.8023 96.9527 49.4354 96.8942 49.7546 97.7613C43.8067 96.2186 38.3801 93.6918 32.6875 91.8938C32.464 93.9631 32.879 95.1387 34.0069 95.5643C39.6037 97.6868 45.2484 99.6711 51.09 101.028C52.968 101.464 54.8461 101.927 56.7241 102.379C56.6868 102.506 56.6549 102.639 56.6177 102.767C48.6746 101.591 41.1412 98.9157 33.6291 96.1495C33.278 98.7348 34.2303 100.453 36.4701 101.288C38.3907 102.001 40.3166 102.687 42.2425 103.389C42.2 103.506 42.1627 103.629 42.1202 103.746C39.5399 103.384 37.2309 102.086 34.7304 101.357C34.6825 104.092 34.8847 104.395 37.2681 105.241C37.8746 105.459 38.4918 105.661 39.1089 105.847C42.3649 106.842 45.6262 107.826 49.1162 108.89C48.4352 109.273 48.0202 109.145 47.5361 109.002C43.9077 107.9 40.2687 106.847 36.6404 105.757C36.1775 105.618 35.6721 105.161 35.5816 106.092C35.4114 107.821 36.5765 109.592 38.2258 110.113C40.173 110.73 42.1361 111.316 44.062 111.997C44.3972 112.114 45.0303 111.991 45.1048 112.8C42.2266 112.3 39.6037 111.103 36.8638 110.422C36.4063 113.098 38.1885 114.263 40.1996 115.284C39.2153 115.444 38.6408 114.741 37.8746 114.672C37.4118 117.465 39.8325 117.428 41.4179 118.247C40.8007 118.327 40.2262 118.391 39.7633 118.189C38.3003 117.545 38.6461 118.343 38.8802 119.178C39.7207 122.173 40.5507 125.173 41.3594 128.179C41.5296 128.822 41.902 129.147 42.5245 129.381C46.3018 130.817 50.1536 132.035 54.048 133.11C54.3619 133.195 54.7343 133.19 54.7503 133.823C50.3611 132.961 46.2593 131.328 41.8701 129.929C42.1308 130.833 42.434 131.482 42.4979 132.158C42.6469 133.743 43.5726 134.467 45.009 134.876C48.1692 135.791 51.3081 136.786 54.4577 137.738C55.7931 138.142 57.1337 138.515 58.4744 138.903C58.4319 139.041 58.3893 139.185 58.3467 139.323C53.2819 138.403 48.4831 136.477 43.5406 135.089C43.1416 138.254 46.0518 138.355 48.0681 139.712C46.4508 139.786 45.573 138.887 44.3121 138.664C45.8975 143.616 47.2329 148.548 49.1269 153.298C49.2918 153.708 49.462 153.952 49.9568 154.016C51.34 154.197 52.3243 155.101 53.2074 156.069C55.66 158.772 57.7668 161.719 59.3789 165.006C60.4908 167.272 61.7304 169.438 63.2732 171.47C65.8323 174.837 68.6679 177.789 72.7379 179.305C73.2752 179.508 73.8817 179.688 74.4616 180.577C71.8654 179.811 69.9235 178.433 67.7794 177.417C67.8061 178.678 68.3062 179.508 69.3276 180.295C74.3818 184.189 80.0638 186.843 85.9692 189.141C93.1621 191.934 100.275 194.956 107.803 196.759C119.864 199.648 131.984 202.243 144.161 204.6C151.924 206.1 159.665 207.717 167.538 208.611C172.438 209.17 177.338 209.712 182.249 210.116C188.159 210.606 194.076 211.09 199.986 211.563C204.152 211.893 208.339 212.063 212.499 212.09C220.214 212.138 227.907 212.516 235.605 212.76C238.52 212.851 241.457 212.931 244.346 213.181C248.687 213.553 252.938 213.244 257.242 212.798C259.913 212.521 262.142 212.244 262.562 208.957C262.663 208.154 263.041 207.372 262.504 206.685C261.998 206.042 261.184 206.409 260.53 206.473C256.04 206.925 251.56 207.542 247.059 207.898C240.516 208.409 233.95 208.377 227.407 207.898C225.922 207.792 224.369 207.834 222.959 207.207C224.379 207.031 225.773 207.052 227.183 207.153C230.248 207.377 233.323 207.59 236.392 207.547C242.633 207.462 248.863 207.132 255.066 206.419C257.109 206.185 259.163 206.031 261.195 205.738C262.956 205.488 262.291 203.94 262.371 202.972C262.456 202.004 261.403 202.462 260.982 202.52C258.28 202.914 255.556 202.797 252.842 203.015C245.947 203.568 239.036 202.94 232.136 202.765C231.822 202.759 231.524 202.717 231.45 202.307C231.907 202.047 232.413 202.169 232.886 202.18C235.61 202.259 238.329 202.387 241.048 202.472C247.607 202.669 254.146 202.339 260.69 201.892C262.924 201.738 263.169 201.594 263.057 199.403C260.961 199.179 258.875 200.179 256.79 199.36C258.29 199.094 259.796 199.02 261.286 198.828C262.493 198.669 264.052 198.86 263.962 196.663C261.195 197.009 258.418 197.195 255.646 196.77C257.923 196.333 260.221 196.424 262.504 196.163C264.637 195.918 264.967 195.759 265.254 193.466C264.068 193.557 262.86 194.051 261.456 193.269C263.467 192.775 265.834 193.658 266.808 190.902H261.11C262.078 190.094 263.217 190.264 264.217 190.407C267.026 190.812 268.431 189.312 269.532 186.668H263.302C263.313 186.487 263.318 186.311 263.329 186.13C265.377 186.13 267.42 186.13 269.468 186.13C269.915 186.13 270.335 186.226 270.676 185.763C271.378 184.79 272.367 184.05 272.953 182.976L272.921 183.003L272.884 182.997ZM268.063 71.3655C268.026 71.2431 267.989 71.1208 267.957 70.9984C263.259 71.057 258.604 70.4771 254.002 69.7004C245.99 68.3493 238.02 66.78 230.088 64.982C221.224 62.9712 212.345 61.0933 203.663 58.3697C192.655 54.9173 181.823 50.9702 170.949 47.1241C158.068 42.5652 145.598 37.0807 133.351 31.0802C125.136 27.0533 117.039 22.7657 108.309 19.909C99.142 16.9088 89.8476 14.5416 80.1063 14.6799C74.1424 14.765 68.237 15.4725 62.4061 16.7013C58.0701 17.6163 53.7182 18.4993 49.994 21.1698C48.0894 22.5316 46.355 24.0424 44.6526 26.2394C54.3406 20.9251 69.9075 16.3768 75.2171 17.2333C74.999 17.4939 74.7862 17.6322 74.4616 17.6854C71.3599 18.1748 68.2689 18.7281 65.1619 19.1856C58.2403 20.2123 51.9732 22.9572 45.9667 26.3989C44.1525 27.4416 42.6841 28.8247 42.2106 31.2185C46.7966 28.6438 51.6114 27.1064 56.5326 25.8723C61.3952 24.6488 66.2526 23.3881 71.4876 22.5582C71.0088 23.271 70.514 23.3349 70.131 23.3987C65.662 24.1807 61.2888 25.3563 56.905 26.4787C52.1168 27.7022 47.3765 29.096 43.0672 31.6068C41.1572 32.7186 40.556 34.123 40.8061 36.4477C48.797 32.6282 57.9637 29.5428 59.3203 30.2716C54.2023 31.7664 49.2492 33.591 44.3334 35.5274C43.115 36.0061 41.9765 36.6232 40.9018 37.3626C40.1623 37.8733 40.2847 38.7138 40.5081 39.2883C40.7635 39.948 41.3753 39.3256 41.7637 39.1872C43.9343 38.4212 46.1688 37.8893 48.4139 37.4477C50.2175 37.0913 52.037 36.6445 53.9203 36.8253C52.4041 37.5914 50.7176 37.6286 49.1056 37.9797C46.5253 38.5489 43.9875 39.2511 41.4658 40.0543C40.1251 40.4799 40.572 41.2832 40.7316 42.0598C40.971 43.2089 41.636 42.3843 42.0882 42.262C43.3917 41.9109 44.6632 41.4587 45.9667 41.1183C48.4831 40.4586 51.0368 39.9905 53.6597 39.799C53.2713 40.1129 52.8457 40.315 52.3988 40.4001C48.8768 41.0757 45.3868 41.879 42.0031 43.1078C41.4179 43.3206 41.0082 43.4376 41.2157 44.2302C42.067 47.5177 43.2427 50.6669 44.9452 53.614C45.2059 54.0662 45.4559 54.2098 46.0145 54.0874C49.8823 53.2523 53.8033 52.7309 57.7402 52.3745C59.6821 52.199 61.6506 52.3426 63.6935 52.3426C62.954 52.8214 62.1986 52.8054 61.4644 52.8267C56.4953 52.9597 51.622 53.88 46.7328 54.6566C46.387 54.7098 46.0039 54.7471 46.0252 55.2311C46.0624 56.061 47.717 57.4813 48.5629 57.3696C51.09 57.0238 53.6011 56.5504 56.1389 56.311C58.1127 56.1248 60.0971 55.7099 62.1134 56.0663C57.6019 56.9547 52.9946 57.226 48.4937 58.1356C48.531 58.3112 48.5204 58.375 48.5523 58.4069C51.8561 62.1041 55.825 65.0298 59.7247 68.0301C60.0279 68.2642 60.3152 68.328 60.693 68.1365C64.449 66.2055 68.6094 65.8065 72.6687 65.0139C75.0788 64.5458 76.196 64.5617 77.2866 64.9394C77.1483 65.3277 76.8025 65.2267 76.5258 65.2479C72.2857 65.6203 68.1199 66.4129 64.0181 67.5407C63.0711 67.8014 61.5548 67.9503 61.4537 68.7536C61.3473 69.5834 62.853 69.9079 63.6776 70.408C64.2894 70.7803 64.8427 71.2272 65.7365 70.7378C69.2691 68.8121 73.2167 68.2907 77.1111 67.7003C82.2078 66.9289 87.3578 67.0406 92.4971 67.0566C93.593 67.0566 94.6571 67.1683 95.7158 67.6258C85.6127 67.5726 75.4991 67.3652 65.5396 71.4559C66.8165 72.1581 67.7848 72.589 68.636 73.1848C69.8277 74.0093 70.9077 74.0998 72.2271 73.3923C73.2646 72.8337 74.4669 72.4666 75.6374 72.323C76.3609 72.2379 77.159 71.573 78.1858 72.3017C75.7544 72.9933 73.4242 73.2167 71.2801 74.5732C73.6529 75.6584 75.9034 76.6585 78.1219 77.7118C78.9678 78.1107 79.6116 78.0895 80.4575 77.5469C81.8194 76.6691 83.2612 75.7967 85.0222 75.9722C83.4527 76.7755 81.7237 77.2436 80.2128 78.5895C81.9365 79.1853 83.5166 79.6853 85.0541 80.2811C86.0118 80.6535 86.8151 80.595 87.7355 80.0949C89.2837 79.2438 90.8904 78.4725 92.7365 78.4246C91.1457 79.414 89.2624 79.7917 87.6983 80.8822C88.1664 81.4036 88.7995 81.4461 89.3635 81.6217C99.8123 84.8719 110.309 87.8296 121.263 89.0372C130.132 90.016 138.916 91.697 147.864 92.0215C150.987 92.1332 154.11 92.3938 157.223 92.6917C163.245 93.2716 169.241 94.2078 175.311 94.261C181.265 94.3142 187.234 94.1014 193.171 94.3887C199.412 94.6972 205.546 93.9631 211.542 92.6013C227.933 88.8776 243.798 83.542 258.886 76.0414C261.961 74.5094 265.015 72.9241 268.074 71.3655H268.063ZM192.011 96.5059C189.431 96.9049 186.851 96.6655 184.286 96.9368C179.003 97.49 173.72 97.639 168.422 97.1389C162.043 96.5378 155.696 95.4739 149.29 95.3303C137.235 95.059 125.434 92.713 113.544 91.1331C106.628 90.2128 99.9986 88.0531 93.3111 86.1486C77.808 81.7227 63.252 75.4616 50.7336 64.9926C45.1261 60.3007 41.104 54.6939 38.7046 47.7465C33.7568 33.4421 42.2212 18.3185 57.2667 15.1799C62.4061 14.1107 67.5613 13.2649 72.7804 12.7223C79.2392 12.052 85.6713 12.0999 92.0661 13.3074C93.3536 13.5521 94.6305 13.8234 95.9126 14.1C97.1203 14.3607 98.328 14.648 99.5357 14.9246C99.2378 14.5469 98.9079 14.3288 98.5461 14.1692C89.688 10.2593 80.6969 6.82283 71.1365 4.86522C63.7361 3.34914 56.3357 2.9874 48.9832 4.14708C39.0132 5.72168 29.5485 8.97195 20.8128 14.2064C15.4926 17.3982 10.5501 20.9623 6.7249 25.9361C5.62894 27.3671 4.81495 28.8832 4.32018 30.5908C3.31466 34.0272 3.71367 37.5116 4.38402 40.8948C5.70343 47.555 7.6985 54.0502 11.4226 59.7794C17.4611 69.0621 25.2977 76.451 35.3529 81.3184C39.8218 83.4835 44.5196 85.0422 49.2492 86.521C54.8567 88.2765 60.4163 90.2128 66.2047 91.2554C74.9085 92.8247 83.6336 94.2717 92.3588 95.7186C98.9824 96.8144 105.649 97.4475 112.363 97.7081C117.805 97.9209 123.253 98.1816 128.669 98.7348C136.894 99.5806 145.119 100.235 153.381 100.352C160.489 100.458 167.56 99.6604 174.646 99.1976C180.52 98.8199 186.345 98.123 192.017 96.4899L192.011 96.5059ZM403.297 54.0023C404.229 53.2257 404.521 51.9862 405.223 51.018C406.623 49.103 406.415 47.0868 405.335 45.209C403.994 42.879 402.35 40.7246 399.935 39.4C393.141 35.687 385.943 33.1495 378.181 32.5271C371.477 31.9898 364.886 32.825 358.331 34.3145C350.755 36.0327 343.376 38.3946 336.13 41.1076C327.639 44.2887 319.414 48.172 311.226 52.0766C303.017 55.9865 294.915 60.1092 286.956 64.5192C280.944 67.8492 274.99 71.2804 268.941 74.5413C263.93 77.2436 258.732 79.5736 253.561 81.9462C244.133 86.271 234.28 89.367 224.337 92.2343C216.532 94.4844 208.637 96.3942 200.646 97.7507C193.98 98.8838 187.425 100.655 180.653 101.155C181.562 101.4 182.462 101.267 183.361 101.198C188.84 100.788 194.288 100.027 199.758 99.5913C206.605 99.0433 213.383 98.0379 220.113 96.8251C228.183 95.3728 236.196 93.5961 244.059 91.1703C249.656 89.4468 255.433 88.3137 260.908 86.1433C265.398 84.3613 270.074 83.0686 274.533 81.1854C280.055 78.8502 285.466 76.2808 290.956 73.8816C295.606 71.8496 300.453 70.275 305.177 68.4078C318.802 63.0084 332.667 58.3165 346.829 54.5662C356.842 51.917 366.987 49.869 377.33 48.853C382.006 48.3955 386.565 48.5125 391.013 50.0658C394.62 51.3266 397.365 53.4704 398.132 57.5399C398.525 57.3537 398.961 57.1196 399.419 56.9387C400.451 56.5344 400.765 56.0184 400.02 54.9971C399.19 53.8534 398.515 52.5979 397.642 51.1776C399.339 52.0075 399.813 53.5448 400.637 54.7949C400.914 55.2152 401.052 55.9972 401.813 55.4173C402.319 55.0343 402.914 54.7524 402.265 53.8161C400.441 51.1776 398.488 48.6561 396.408 46.2091C399.345 48.2093 401.159 51.2149 403.292 54.0076L403.297 54.0023ZM250.496 251.54C252.832 251.742 255.034 251.327 256.955 250.226C260.083 248.434 263.329 247.045 266.792 246.034C270.154 245.056 271.527 242.742 271.165 239.241C271.096 238.592 271.011 237.938 270.883 237.294C269.851 232.065 270.197 226.852 271.144 221.665C272.091 216.495 274.927 212.329 278.417 208.537C280.651 206.106 281.023 203.063 281.273 199.871C280.119 200.121 279.571 200.919 278.933 201.509C275.437 204.744 272.538 208.446 270.958 213C269.729 216.537 268.936 220.181 268.814 223.958C268.782 224.979 268.51 225.995 268.345 227.017C268.218 226.996 268.085 226.969 267.957 226.948C267.888 224.447 268.239 221.963 268.606 219.511C269.782 211.558 273.421 204.898 279.81 199.945C281.215 198.855 281.109 197.919 280.608 196.642C280.444 196.222 280.241 195.807 280.007 195.424C279.108 193.94 278.667 193.854 277.102 194.69C274.187 196.248 271.937 198.477 270.16 201.249C267.739 205.015 264.893 208.579 263.759 213.005C262.812 216.702 262.525 220.532 262.163 224.336C261.865 227.501 262.307 230.687 261.865 233.847C261.115 239.247 259.434 244.183 254.992 247.769C253.47 248.997 251.991 250.279 250.496 251.54ZM28.4473 210.718C29.0272 210.936 29.4155 211.122 29.8252 211.228C30.1125 211.303 30.4264 211.239 30.7296 211.266C35.3263 211.654 39.6995 210.563 44.062 209.319C45.6794 208.856 46.2699 207.68 46.4348 206.201C46.5093 205.563 46.3923 204.893 46.3231 204.244C45.6262 197.711 46.9669 192.094 52.9148 188.21C55.4738 186.54 57.969 185.024 61.0866 184.715C62.3316 184.593 63.4595 183.96 64.4969 183.221C65.0981 182.79 65.4066 182.274 65.5396 181.502C65.9387 179.14 64.8693 177.178 63.5073 175.614C60.5014 172.156 58.1073 168.352 55.9899 164.32C54.7237 161.916 53.1117 159.692 51.223 157.724C49.8398 156.282 47.983 156.399 47.2861 157.937C46.9083 158.766 46.754 159.798 46.8445 160.708C47.169 164.091 48.2756 167.23 49.9196 170.22C50.7282 171.688 51.8029 173.188 51.8561 174.874C51.9466 177.954 51.074 180.8 48.7704 183.056C47.7276 184.077 46.6849 185.088 45.9135 186.365C43.5247 190.322 42.1521 194.615 41.6094 199.185C41.2689 202.052 40.2474 204.478 37.598 206.026C35.7678 207.095 33.8898 208.047 31.9479 208.882C30.8147 209.372 29.5379 209.616 28.4473 210.718ZM265.175 203.52C265.85 203.068 266.122 202.467 266.425 201.919C268.713 197.759 272.027 194.626 276.012 192.126C278.582 190.514 280.497 190.907 282.135 193.418C284.008 196.286 284.338 199.435 283.87 202.717C283.439 205.754 282.471 208.584 280.167 210.771C279.832 211.085 279.582 211.388 279.858 211.782C280.119 212.149 280.507 211.909 280.811 211.76C281.258 211.542 281.683 211.308 282.056 210.941C283.343 209.68 284.418 208.393 284.992 206.547C286.828 200.664 289.094 194.908 290.169 188.817C290.749 185.535 290.621 182.268 288.642 179.364C287.253 177.327 286.764 177.215 284.508 178.162C279.427 180.3 275.661 184.066 272.181 188.163C268.425 192.583 266.244 197.732 265.169 203.52H265.175ZM334.635 188.024C333.661 188.721 333.486 189.269 334.268 190.083C335.21 191.067 335.784 192.328 336.407 193.541C338.412 197.429 340.397 201.334 342.482 205.185C344.552 208.994 348.356 209.127 351.447 207.792C351.761 207.654 352.346 207.574 352.245 207.058C352.165 206.637 351.681 206.765 351.346 206.712C346.579 205.967 343.195 203.536 341.711 198.791C340.791 195.844 340.418 192.801 340.04 189.758C339.79 187.758 339.588 185.747 338.795 183.87C338.625 183.465 338.503 182.752 337.763 183.173C337.003 183.604 336.534 185.678 336.875 186.572C337.253 187.567 337.838 188.535 337.63 190.131C336.87 188.588 336.63 187.279 335.885 186.21C335.034 186.859 334.928 187.471 335.465 188.391C336.268 189.764 336.891 191.248 337.551 192.705C337.657 192.94 338.157 193.333 337.572 193.551C337.215 193.684 337.136 193.248 337.018 192.993C336.242 191.386 335.47 189.774 334.635 188.024ZM397.504 57.859C397.211 56.9068 396.658 56.077 395.961 55.4705C394.945 54.5822 394.274 56.0823 393.343 56.0982C393.296 56.0982 393.248 56.1248 393.2 56.1355C390.13 56.976 387.05 57.8218 383.895 58.2314C382.692 58.3857 382.65 59.2634 382.613 59.9018C382.575 60.6093 383.443 60.338 383.916 60.3699C386.145 60.5082 388.316 59.9124 390.529 59.8273C393.03 59.7315 395.36 59.0932 397.498 57.859H397.504ZM394.844 54.4013C394.423 54.1991 394.269 53.5661 393.588 53.8747C392.955 54.1619 392.311 54.4438 391.646 54.6407C389.172 55.3695 386.688 56.0716 384.198 56.7526C383.778 56.8696 383.304 56.9653 383.453 57.4547C383.57 57.8484 384.028 57.6462 384.363 57.5558C385.081 57.3749 385.815 57.2526 386.539 57.0664C388.89 56.4706 391.242 55.8695 393.588 55.2418C394.046 55.1194 394.53 54.9545 394.849 54.4013H394.844ZM95.9286 200.286C94.7741 198.999 93.1355 198.126 92.5024 196.419C92.0661 195.243 91.2415 194.94 89.8104 194.716C91.6352 197.179 93.0451 199.536 95.9233 200.286H95.9286ZM390.651 52.5128C390.577 52.3426 390.572 52.2894 390.545 52.2788C389.704 51.917 385.028 52.9756 384.634 53.6991C384.475 53.9917 384.102 54.4172 384.379 54.7896C384.661 55.1726 385.007 54.8056 385.31 54.6832C387.092 53.9651 388.869 53.2363 390.651 52.5128ZM92.9067 199.461C91.4224 197.764 89.7465 196.637 89.305 194.573C89.2198 194.163 88.6559 193.828 88.076 194.131C88.8474 196.498 89.9647 198.541 92.9067 199.461ZM384.789 55.7471C387.534 55.0024 390.38 54.5981 392.886 53.0767C389.88 52.9703 387.512 54.9386 384.789 55.7471ZM387.741 51.7255C386.071 51.5234 385.166 51.8692 385.028 52.7629C385.826 52.4596 386.603 52.1617 387.741 51.7255Z" fill="#153438"/>
<path d="M218.564 110.007C238.712 104.47 258.785 98.7616 279.358 95.1336C279.539 95.1017 280.002 95.1336 280.002 95.4741C259.322 99.5968 238.972 105.012 218.564 110.007Z" fill="#153438"/>
<path d="M106.819 105.836C106.542 106.597 105.893 106.448 105.334 106.443C101.163 106.395 97.0508 105.788 92.9436 105.161C88.2618 104.443 83.6173 103.496 78.9249 102.847C73.2269 102.059 67.7418 100.506 62.2886 98.756C60.6553 98.2293 59.0273 97.7133 57.394 97.1867C57.4472 97.0058 57.5004 96.8303 57.5536 96.6494C61.5172 97.841 65.4595 99.0858 69.439 100.208C73.4663 101.347 77.6001 101.996 81.7392 102.607C85.9316 103.23 90.1132 103.948 94.3002 104.623C98.434 105.294 102.578 105.815 106.808 105.826L106.819 105.836Z" fill="#153438"/>
<path d="M127.972 192.801C141.602 197.551 155.86 199.365 170.278 201.732C167.065 203.068 131.43 195.578 127.972 192.801Z" fill="#153438"/>
<path d="M111.484 192.775C107.638 192.913 104.079 192.179 100.605 190.987C93.9544 188.705 87.2722 186.508 80.8135 183.705C79.8612 183.29 78.9408 182.795 77.9619 182.316C78.4195 181.476 78.8663 182.072 79.2015 182.226C86.9105 185.806 94.9918 188.386 103.052 191.009C105.281 191.732 107.617 192.142 109.989 192.184C110.463 192.195 111.011 192.062 111.484 192.769V192.775Z" fill="#153438"/>
<path d="M93.7204 110.634C83.9365 109.282 73.9824 108.798 64.6189 105.213C69.3645 106.601 74.2431 107.442 79.1164 108.192C84.0004 108.942 88.8949 109.58 93.715 110.639L93.7204 110.634Z" fill="#153438"/>
<path d="M276.022 89.4219C266.366 92.0232 256.726 94.6085 247.096 97.2364C256.545 93.8903 266.228 91.4061 276.022 89.4219Z" fill="#153438"/>
<path d="M207.807 206.062C205.822 207.392 181.679 204.69 179.583 202.982C188.84 204.578 198.145 205.722 207.807 206.062Z" fill="#153438"/>
<path d="M64.8052 171.135C73.2696 176.305 82.564 179.487 91.8424 182.7C89.9218 183.785 67.2631 174.279 64.8052 171.135Z" fill="#153438"/>
<path d="M96.6305 143.835C87.9692 143.569 79.7176 141.292 71.583 138.414C79.8559 140.568 88.0969 142.877 96.6305 143.835Z" fill="#153438"/>
<path d="M307.119 72.6098C313.636 70.9075 320.249 69.9872 326.958 69.6787C320.345 70.7001 313.721 71.6044 307.119 72.6098Z" fill="#153438"/>
<path d="M83.3354 175.836C76.7969 173.639 70.2584 171.463 64.4487 167.633C70.5404 170.841 77.0682 173.043 83.3354 175.836Z" fill="#153438"/>
<path d="M325.117 99.3573C318.866 99.6552 312.614 99.8627 306.368 100.192C312.582 99.0807 318.844 98.8945 325.117 99.3573Z" fill="#153438"/>
<path d="M297.792 97.326C291.312 98.2622 284.928 99.6985 278.501 101.598C279.592 100.023 293.919 96.81 297.792 97.326Z" fill="#153438"/>
<path d="M324.516 94.9317C318.589 94.5062 312.7 95.2083 306.794 95.5382C312.673 94.3306 318.573 93.921 324.516 94.9317Z" fill="#153438"/>
<path d="M83.9205 135.637C78.0151 135.227 72.3544 133.706 66.8374 131.567C72.5034 133.041 78.1481 134.573 83.9205 135.637Z" fill="#153438"/>
<path d="M287.269 171.844H272.314C277.283 170.493 282.279 171.354 287.264 171.37C287.264 171.53 287.264 171.684 287.269 171.844Z" fill="#153438"/>
<path d="M324.111 90.5208C321.323 90.1963 318.541 90.1111 315.753 90.0526C312.976 89.9941 310.21 90.4676 307.081 90.3612C309.523 89.0419 321.77 89.2068 324.111 90.5154V90.5208Z" fill="#153438"/>
<path d="M298.138 101.565C292.658 101.868 287.28 102.831 281.901 103.825C287.173 102.033 292.589 101.299 298.138 101.565Z" fill="#153438"/>
<path d="M74.6104 111.838C79.8188 112.306 85.0539 112.529 90.1879 113.652C84.9634 113.327 79.7337 113.061 74.6104 111.838Z" fill="#153438"/>
<path d="M283.752 81.4889C288.487 80.2015 293.206 78.8397 298.064 78.0684C298.096 78.2013 298.128 78.3343 298.165 78.4727C293.403 79.6642 288.642 80.8558 283.88 82.0421L283.747 81.4889H283.752Z" fill="#153438"/>
<path d="M301.123 81.9292C296.202 82.2963 291.366 83.2112 286.439 84.2592C287.439 82.924 298.059 81.2057 301.123 81.9292Z" fill="#153438"/>
<path d="M64.7146 126.858C69.6571 128.087 74.1899 129.215 78.8344 130.369C77.2596 130.885 66.5767 128.321 64.7146 126.858Z" fill="#153438"/>
<path d="M52.4836 149.25C56.8249 150.926 61.113 152.724 65.4011 154.516C60.8523 153.351 56.543 151.607 52.4836 149.25Z" fill="#153438"/>
<path d="M303.65 78.0692C307.949 76.718 312.295 75.6913 316.828 75.6807C312.418 76.436 308.055 77.4095 303.65 78.0692Z" fill="#153438"/>
<path d="M138.628 192.987C134.165 192.609 129.845 191.551 125.674 189.864C130.026 190.726 134.292 191.95 138.628 192.987Z" fill="#153438"/>
<path d="M299.213 105.779C294.84 106.072 290.472 106.369 286.109 106.758C290.387 105.449 294.792 105.492 299.213 105.779Z" fill="#153438"/>
<path d="M287.487 88.7392C291.563 87.3189 295.707 86.3348 300.07 86.7072C295.813 87.037 291.68 88.0583 287.487 88.7392Z" fill="#153438"/>
<path d="M93.9492 148.315C89.7729 148.464 85.7189 147.724 81.7288 146.564C85.8413 146.862 89.858 147.815 93.9492 148.315Z" fill="#153438"/>
<path d="M282.044 175.3C277.868 175.608 273.718 174.917 269.547 174.975C273.724 174.619 277.895 174.379 282.044 175.3Z" fill="#153438"/>
<path d="M279.869 155.788C283.454 155.166 287.008 155.815 290.557 156.326H279.853C279.858 156.145 279.863 155.964 279.869 155.788Z" fill="#153438"/>
<path d="M272.894 168.034C276.921 166.981 281.007 166.928 285.125 167.38C281.044 167.507 276.979 167.954 272.894 168.034Z" fill="#153438"/>
<path d="M327.537 112.294C323.797 111.847 320.329 111.799 316.604 111.858C318.158 110.634 325.638 110.953 327.537 112.294Z" fill="#153438"/>
<path d="M360.23 65.615C356.304 66.397 352.271 65.8703 348.34 66.5885C352.223 65.2745 356.235 65.5246 360.23 65.615Z" fill="#153438"/>
<path d="M301.586 91.3873C297.462 91.3235 293.547 92.1055 289.296 92.5842C291.27 91.2171 300.069 90.4138 301.586 91.3873Z" fill="#153438"/>
<path d="M359.666 63.5135C355.703 63.7263 351.729 63.6571 347.621 64.4391C348.904 63.2156 356.362 62.6145 359.666 63.5135Z" fill="#153438"/>
<path d="M342.833 92.7126C339.322 92.037 335.885 91.0688 332.485 89.9837C332.528 89.8241 332.57 89.6645 332.613 89.5049C336.098 90.3986 339.582 91.2923 343.067 92.186C342.987 92.3615 342.913 92.5371 342.833 92.7126Z" fill="#153438"/>
<path d="M316.817 115.309C318.099 114.48 325.681 115.001 327.553 115.985C323.978 115.74 320.403 115.464 316.817 115.309Z" fill="#153438"/>
<path d="M292.61 152.755C289.019 152.723 285.481 152.175 281.927 151.909C285.551 151.324 289.094 152.01 292.61 152.755Z" fill="#153438"/>
<path d="M251.097 195.85C247.442 196.345 243.856 195.632 240.233 195.531C243.893 194.957 247.49 195.478 251.097 195.85Z" fill="#153438"/>
<path d="M93.1086 152.649C91.6083 153.351 85.1017 152.377 82.8992 151.122C86.336 151.388 89.6345 152.659 93.1086 152.649Z" fill="#153438"/>
<path d="M289.094 160.212C288.099 160.787 287.126 160.648 286.147 160.537C283.896 160.281 281.646 160.281 279.395 160.5C279.119 160.526 278.741 160.803 278.635 160.398C278.528 159.994 278.911 159.776 279.284 159.781C281.789 159.803 284.301 159.627 286.801 159.882C287.567 159.962 288.328 160.101 289.089 160.212H289.094Z" fill="#153438"/>
<path d="M61.8843 150.478C58.2666 149.84 55.1064 148.106 52.0366 146.175C55.4256 147.35 58.506 149.239 61.8843 150.478Z" fill="#153438"/>
<path d="M349.159 69.0353C352.527 68.0884 355.979 68.0459 359.427 67.8916C356.075 68.881 352.585 68.764 349.159 69.0353Z" fill="#153438"/>
<path d="M327.835 146.405C324.17 146.804 320.509 146.911 316.897 145.975C320.547 146.028 324.191 146.246 327.835 146.405Z" fill="#153438"/>
<path d="M74.4079 169.58C71.0987 168.272 67.7682 167.011 64.5974 165.372C64.6613 165.218 64.7304 165.059 64.7943 164.904C68.0502 166.293 71.3062 167.681 74.5621 169.064C74.5089 169.234 74.4557 169.405 74.4079 169.575V169.58Z" fill="#153438"/>
<path d="M340.599 95.5604C337.428 94.922 334.358 93.9538 331.352 92.7782C331.389 92.6399 331.432 92.5016 331.469 92.3633C334.55 93.257 337.625 94.1507 340.705 95.0444C340.668 95.2199 340.63 95.3901 340.593 95.5657L340.599 95.5604Z" fill="#153438"/>
<path d="M43.5723 126.312C46.6367 127.375 49.5043 128.87 52.4623 130.158C49.2383 129.482 46.3281 128.062 43.5723 126.312Z" fill="#153438"/>
<path d="M306.204 104.32C309.082 103.906 311.965 103.288 314.833 104.352C311.955 104.081 309.082 104.922 306.204 104.32Z" fill="#153438"/>
<path d="M288.908 174.645C292.174 174.092 295.329 174.538 298.415 175.634C295.233 175.411 292.1 174.746 288.908 174.645Z" fill="#153438"/>
<path d="M79.01 114.905C82.2553 115.097 85.1016 116.118 88.2459 115.81C86.9743 116.921 81.2498 116.358 79.01 114.905Z" fill="#153438"/>
<path d="M290.913 177.442C292.68 176.862 298.628 177.863 300.208 179.006C297.244 178.506 294.281 178.006 290.913 177.442Z" fill="#153438"/>
<path d="M329.192 117.646C332.081 117.444 334.954 116.821 337.875 117.3C334.996 117.768 332.118 118.146 329.192 117.646Z" fill="#153438"/>
<path d="M327.915 144.148C324.941 143.972 321.967 143.791 318.988 143.616C322.01 142.749 324.973 143.653 327.974 143.472C327.952 143.701 327.931 143.924 327.915 144.153V144.148Z" fill="#153438"/>
<path d="M289.211 109.468C292.057 109.293 294.893 108.601 297.755 109.218C294.914 109.575 292.079 109.989 289.211 109.468Z" fill="#153438"/>
<path d="M296.021 136.699C293.584 135.923 291.089 135.625 288.573 135.492C288.328 135.481 288.019 135.444 288.041 135.125C288.046 134.997 288.317 134.763 288.44 134.779C290.839 135.104 293.324 134.992 295.59 136.04C295.808 136.141 296.016 136.306 296.021 136.699Z" fill="#153438"/>
<path d="M287.125 138.248C289.732 138.551 292.339 138.87 294.872 139.594C294.845 139.743 294.824 139.897 294.797 140.046C292.212 139.642 289.626 139.232 287.04 138.828L287.12 138.248H287.125Z" fill="#153438"/>
<path d="M294.159 163.964C295.415 162.878 300.49 163.309 302.299 164.549C299.676 164.097 297.027 163.921 294.159 163.964Z" fill="#153438"/>
<path d="M325.388 108.235C322.803 108.788 320.233 108.246 317.653 108.123C320.244 107.123 322.803 108.187 325.388 108.235Z" fill="#153438"/>
<path d="M293.148 167.038C295.941 166.697 298.724 166.559 301.41 167.671C298.654 167.479 295.904 167.25 293.148 167.038Z" fill="#153438"/>
<path d="M312.237 82.5301C309.428 82.2961 306.954 83.2004 304.076 83.3813C305.932 82.0673 310.816 81.562 312.237 82.5301Z" fill="#153438"/>
<path d="M303.767 135.306C306.336 134.354 308.911 134.487 311.481 135.269C308.906 134.955 306.342 135.327 303.767 135.306Z" fill="#153438"/>
<path d="M339.966 114.326C337.178 114.592 334.385 114.853 331.629 113.943C334.406 114.172 337.194 113.954 339.966 114.326Z" fill="#153438"/>
<path d="M249.586 198.497H242.271C242.271 198.311 242.281 198.12 242.281 197.934C244.713 197.987 247.149 197.769 249.586 198.497Z" fill="#153438"/>
<path d="M122.146 105.783C119.811 106.575 117.433 106.751 115.033 106.506C115.017 106.283 115.007 106.065 114.991 105.841C116.198 105.841 117.406 105.809 118.608 105.852C119.795 105.894 120.965 105.761 122.146 105.783Z" fill="#153438"/>
<path d="M286.508 142.988C287.987 142.393 292.43 142.93 293.882 143.877C291.424 143.579 288.966 143.286 286.508 142.988Z" fill="#153438"/>
<path d="M297.095 155.346C299.154 154.527 303.086 155.027 304.576 156.25C302.107 155.75 299.623 155.415 297.095 155.346Z" fill="#153438"/>
<path d="M346.456 62.0134C348.85 60.4122 351.495 60.6995 354.133 60.9868C351.58 61.3804 348.946 61.1517 346.456 62.0134Z" fill="#153438"/>
<path d="M272.915 182.972C270.361 183.424 267.866 182.397 265.323 182.562C267.866 182.147 270.404 181.865 272.878 182.998L272.91 182.966L272.915 182.972Z" fill="#153438"/>
<path d="M55.6599 153.851C58.3413 154.228 60.6077 155.659 63.0284 156.707C60.4055 156.186 58.0327 155.021 55.6599 153.851Z" fill="#153438"/>
<path d="M355.963 71.1153C353.527 71.4345 351.095 71.7537 348.643 72.0782C349.372 71.1153 353.569 70.4185 355.963 71.1153Z" fill="#153438"/>
<path d="M311.79 131.949C309.311 131.795 306.837 131.534 304.357 131.284C306.89 130.726 309.358 131.077 311.79 131.949Z" fill="#153438"/>
<path d="M302.394 159.858C299.729 159.305 297.33 159.528 294.957 159.305C296.75 158.491 301.054 158.768 302.394 159.858Z" fill="#153438"/>
<path d="M275.346 164.671C276.448 163.889 280.496 163.815 282.092 164.427C279.869 164.948 277.602 164.358 275.346 164.671Z" fill="#153438"/>
<path d="M336.609 87.4297C338.747 87.9723 340.886 88.5096 343.025 89.0522L342.929 89.4511C340.673 89.366 338.545 88.7277 336.486 87.8021L336.609 87.4297Z" fill="#153438"/>
<path d="M319.302 104.64C321.584 104.47 323.776 104.938 325.947 105.539L325.899 105.922C323.696 105.629 321.488 105.337 319.286 105.044C319.286 104.911 319.297 104.773 319.302 104.64Z" fill="#153438"/>
<path d="M369.317 67.2473C371.562 66.4175 373.754 66.9015 375.941 67.4495C373.712 67.8857 371.536 67.0505 369.317 67.2473Z" fill="#153438"/>
<path d="M295.723 133.069C294.558 133.579 291.844 133.143 289.929 132.132C290.77 131.909 293.43 132.34 295.723 133.069Z" fill="#153438"/>
<path d="M365.428 57.811C363.55 57.8589 361.714 58.0185 359.618 58.992C361.092 57.327 363.858 56.8429 365.428 57.811Z" fill="#153438"/>
<path d="M308.895 138.003C307.07 138.439 305.288 137.663 303.458 137.764C305.288 137.061 307.086 137.45 308.895 138.003Z" fill="#153438"/>
<path d="M309.369 108.571H303.799C304.666 107.864 307.73 107.704 309.369 108.571Z" fill="#153438"/>
<path d="M328.155 141.296C326.325 141.62 324.59 141.078 322.84 140.647C324.665 140.322 326.399 140.892 328.155 141.296Z" fill="#153438"/>
<path d="M70.1678 164.911C68.4813 164.304 66.7362 163.847 65.2466 162.783C65.2998 162.65 65.3583 162.517 65.4115 162.384C67.0501 163.07 68.6834 163.756 70.3221 164.442C70.2742 164.597 70.221 164.751 70.1731 164.911H70.1678Z" fill="#153438"/>
<path d="M310.593 129.072C309.045 129.413 307.55 128.737 306.018 128.779C305.885 128.779 305.651 128.567 305.629 128.428C305.597 128.216 305.821 128.061 306.028 128.088C307.561 128.274 309.093 128.482 310.625 128.684C310.614 128.811 310.604 128.944 310.598 129.072H310.593Z" fill="#153438"/>
<path d="M56.4897 156.963C58.3518 157.043 59.884 158.011 61.4961 158.772C59.6233 158.724 58.1071 157.702 56.4897 156.963Z" fill="#153438"/>
<path d="M287.551 147.302C285.939 147.717 284.343 147.659 282.742 147.302C284.343 146.589 285.95 147.302 287.551 147.302Z" fill="#153438"/>
<path d="M335.379 120.71H329.586C330.714 119.955 334.007 119.822 335.379 120.71Z" fill="#153438"/>
<path d="M339.742 72.2276C338.061 72.4085 336.545 71.8286 335.05 71.169C336.72 70.9828 338.231 71.6371 339.742 72.2276Z" fill="#153438"/>
<path d="M86.8362 155.446C88.8898 155.712 90.6401 155.936 92.4649 156.17C91.4062 156.867 88.1609 156.526 86.8362 155.446Z" fill="#153438"/>
<path d="M320.722 149.553C322.441 148.872 324.17 148.606 325.936 149.298C324.196 149.383 322.462 149.596 320.722 149.553Z" fill="#153438"/>
<path d="M335.241 73.6638C336.805 73.2648 338.061 74.1213 339.46 74.3873C339.747 74.4405 339.822 74.7224 339.721 74.9884C339.63 75.2171 339.455 75.1958 339.237 75.116C337.907 74.6266 336.571 74.1479 335.241 73.6691V73.6638Z" fill="#153438"/>
<path d="M332.975 76.562C331.416 76.4662 329.879 77.1152 328.293 76.8705C329.804 76.046 331.363 76.0088 332.975 76.562Z" fill="#153438"/>
<path d="M320.856 120.109H315.711C316.865 119.151 319.994 119.284 320.856 120.109Z" fill="#153438"/>
<path d="M309.055 139.972C307.651 140.27 306.22 139.828 304.847 140.275C304.682 140.328 304.421 140.222 304.421 139.967C304.421 139.86 304.554 139.727 304.661 139.647C305.246 139.232 308.374 139.461 309.055 139.972Z" fill="#153438"/>
<path d="M45.7747 124.013C47.4133 124.646 48.8338 125.194 50.5256 125.848C48.9242 126.119 46.5833 125.21 45.7747 124.013Z" fill="#153438"/>
<path d="M315.78 123.321C317.594 122.545 318.887 123.151 320.19 123.63C318.865 123.593 317.519 123.853 315.78 123.321Z" fill="#153438"/>
<path d="M333.544 122.593C332.001 122.678 330.442 123.018 328.953 122.423C330.501 122.231 332.049 122.056 333.544 122.593Z" fill="#153438"/>
<path d="M256.194 192.158C255.039 192.982 252.863 193.419 251.203 193.094C253.018 192.557 254.438 192.126 256.194 192.158Z" fill="#153438"/>
<path d="M49.8875 106.08C51.4143 105.703 52.8402 106.07 54.2713 106.421C52.7444 106.963 51.3292 106.261 49.8875 106.08Z" fill="#153438"/>
<path d="M89.0227 135.785C90.8156 135.801 92.0925 136.221 93.481 136.61C92.5766 137.057 90.6879 136.743 89.0227 135.785Z" fill="#153438"/>
<path d="M327.282 80.9249C328.224 79.7812 330.011 79.494 331.538 80.2121C330.081 80.4568 328.74 80.6802 327.282 80.9249Z" fill="#153438"/>
<path d="M86.9742 118.981C85.6601 119.614 84.5482 118.944 83.3725 118.736C83.1596 118.699 83.0798 118.438 83.1809 118.247C83.2873 118.045 83.4895 118.103 83.697 118.156C84.7823 118.444 85.8783 118.704 86.9689 118.976L86.9742 118.981Z" fill="#153438"/>
<path d="M53.4412 143.889C54.9415 143.942 56.3087 144.453 57.5962 145.197C56.0321 145.352 54.7712 144.532 53.4412 143.889Z" fill="#153438"/>
<path d="M295.925 113.113H291.44C292.18 112.326 294.441 112.225 295.925 113.113Z" fill="#153438"/>
<path d="M292.307 115.879C293.584 115.868 294.914 115.565 295.941 116.863C294.723 116.661 293.51 116.464 292.291 116.262C292.291 116.134 292.302 116.007 292.302 115.879H292.307Z" fill="#153438"/>
<path d="M302.559 172.183C301.112 171.911 299.846 171.672 298.505 171.416C299.707 170.693 301.261 170.964 302.559 172.183Z" fill="#153438"/>
<path d="M119.704 195.785C118.257 196.253 117.071 195.588 115.879 194.929C117.262 194.695 118.374 195.732 119.704 195.785Z" fill="#153438"/>
<path d="M267.254 179.46C266.015 179.774 264.855 180.498 263.504 180.189C264.701 179.689 265.834 178.912 267.254 179.46Z" fill="#153438"/>
<path d="M48.4402 117.315C47.2165 117.145 45.9822 117.007 45.0938 115.783C46.2536 116.161 47.408 116.533 48.5678 116.911C48.5253 117.044 48.4827 117.182 48.4402 117.315Z" fill="#153438"/>
<path d="M303.559 152.844C302.341 153.291 301.218 152.94 300.112 152.461C301.335 151.956 302.431 152.562 303.559 152.844Z" fill="#153438"/>
<path d="M332.086 125.195C330.905 125.068 329.719 124.935 328.416 124.791C329.565 124.094 330.661 124.153 332.086 125.195Z" fill="#153438"/>
<path d="M342.402 85.5276C341.179 86.0011 340.093 85.7989 338.785 84.751C340.312 84.7935 341.296 85.4212 342.402 85.5276Z" fill="#153438"/>
<path d="M292.025 148.69C293.228 147.972 294.297 148.376 295.59 149.009C294.185 149.445 293.148 148.562 292.025 148.69Z" fill="#153438"/>
<path d="M303.863 142.308C304.959 141.649 306.103 141.872 307.252 142.138C306.161 142.681 305.012 142.436 303.863 142.308Z" fill="#153438"/>
<path d="M339.673 69.1515C338.566 69.7686 337.582 69.2526 336.263 68.8802C337.662 68.2631 338.646 69.0345 339.673 69.1515Z" fill="#153438"/>
<path d="M53.4092 114.63C52.3186 114.582 51.1641 114.848 49.866 113.656C51.3609 113.896 52.4303 114.066 53.4997 114.236L53.4092 114.63Z" fill="#153438"/>
<path d="M320.829 154.562C321.93 153.871 322.957 153.807 323.904 154.828C322.877 154.738 321.85 154.653 320.829 154.562Z" fill="#153438"/>
<path d="M337.135 98.1343C335.863 98.3311 335.012 97.6183 334.076 97.3151C335.134 97.0544 336.097 97.23 337.135 98.1343Z" fill="#153438"/>
<path d="M308.098 160.702C307.066 161.016 306.023 161.027 304.996 160.649C306.028 160.34 307.055 160.293 308.098 160.702Z" fill="#153438"/>
<path d="M103.542 144.206C104.967 143.839 105.771 144.573 106.707 144.573C105.707 145.196 104.834 144.861 103.542 144.206Z" fill="#153438"/>
<path d="M259.7 187.093C258.886 187.55 258.035 187.774 256.731 187.433C257.934 186.976 258.742 186.571 259.7 187.093Z" fill="#153438"/>
<path d="M320.749 152.153C322.095 151.413 322.707 151.381 324.106 152.153H320.749Z" fill="#153438"/>
<path d="M207.307 63.5442C206.285 64.2836 205.365 63.7836 204.551 63.6453C196.661 62.3047 189.207 59.4907 181.679 56.8947C168.634 52.3996 156.265 46.3353 143.672 40.771C142.395 40.2071 140.879 40.0369 140.086 38.5527C142.618 39.6326 145.188 40.6433 147.683 41.8083C163.186 49.0483 178.934 55.6818 195.304 60.7354C199.204 61.9377 203.226 62.6133 207.301 63.5336L207.307 63.5442Z" fill="#153438"/>
<path d="M62.0334 44.1601C63.4433 42.8409 83.7186 40.1013 87.315 40.7503C78.9144 42.0217 70.3968 42.4898 62.0334 44.1601Z" fill="#153438"/>
<path d="M85.4315 37.6869C78.329 39.0168 71.1361 39.554 63.7996 41.1978C64.9966 39.8785 82.6064 37.0911 85.4315 37.6869Z" fill="#153438"/>
<path d="M89.0704 46.9424C83.2395 48.1021 77.2809 48.1393 71.3755 48.6393C77.1905 47.3094 83.1544 47.336 89.0704 46.9424Z" fill="#153438"/>
<path d="M83.8196 31.5436C88.7035 31.0649 93.6034 31.4372 98.498 31.6128C93.6247 31.9532 88.7354 31.8096 83.8675 32.2831C83.8515 32.0384 83.8355 31.7883 83.8196 31.5436Z" fill="#153438"/>
<path d="M54.8351 43.3574C50.6535 44.3841 46.392 44.9427 42.2742 46.1768C46.1898 44.0383 50.5364 43.7404 54.8351 43.3574Z" fill="#153438"/>
<path d="M186.531 62.2588C190.862 62.9131 194.974 64.6154 199.369 64.9771C194.841 65.3335 190.724 63.594 186.531 62.2588Z" fill="#153438"/>
<path d="M83.4578 24.1445C88.1289 23.836 92.401 24.2509 96.8593 24.4584C95.6463 25.1659 85.373 24.9637 83.4578 24.1445Z" fill="#153438"/>
<path d="M64.4592 36.6498C68.4121 35.0327 72.514 34.123 76.8127 34.1922C72.6736 34.9263 68.5558 35.7455 64.4592 36.6498Z" fill="#153438"/>
<path d="M81.9999 62.535C77.632 62.7211 73.2588 62.9127 68.8909 63.0988C68.8856 62.9393 68.8749 62.7743 68.8696 62.6148C73.2162 62.12 77.5735 61.8062 81.9626 62.152C81.9733 62.2796 81.9892 62.4073 81.9999 62.535Z" fill="#153438"/>
<path d="M95.7313 28.3521C91.507 28.1978 87.2881 28.3149 83.0798 27.9957C87.3147 27.3733 91.5336 27.7191 95.7313 28.3521Z" fill="#153438"/>
<path d="M44.0137 50.5822C47.4505 49.0661 51.1321 48.4331 54.7977 47.7256C54.8349 47.8639 54.8775 47.9969 54.9147 48.1352C51.3236 49.0927 47.7325 50.0556 44.1414 51.0131C44.0988 50.8695 44.0562 50.7258 44.019 50.5822H44.0137Z" fill="#153438"/>
<path d="M84.1814 20.6963C87.6874 20.8825 91.1881 21.0687 94.6941 21.2548C94.6888 21.4198 94.6834 21.5793 94.6728 21.7442C91.1508 21.5208 87.6182 21.7868 84.1016 21.4251C84.1282 21.1857 84.1548 20.941 84.1814 20.7016V20.6963Z" fill="#153438"/>
<path d="M97.3327 70.8005H85.8145C85.8145 70.7207 85.8251 70.6462 85.8251 70.5664H97.338C97.338 70.6462 97.338 70.7207 97.338 70.8005H97.3327Z" fill="#153438"/>
<path d="M112.735 56.4225C109.074 56.912 105.398 56.5289 101.732 56.8056C105.371 55.8161 109.064 56.3002 112.735 56.4225Z" fill="#153438"/>
<path d="M96.8965 47.7842C100.339 46.6405 103.898 46.7575 107.462 46.9703C103.962 47.4916 100.408 47.3853 96.8965 47.7842Z" fill="#153438"/>
<path d="M190.686 66.4389C193.937 66.9017 197.188 67.3698 200.438 67.8326C200.417 67.9816 200.396 68.1305 200.375 68.2742C197.076 68.1465 193.831 67.6411 190.601 67.0028C190.628 66.8113 190.655 66.6251 190.681 66.4336L190.686 66.4389Z" fill="#153438"/>
<path d="M75.3337 29.8729C74.1047 30.8411 72.8332 30.3464 71.7106 30.5645C69.8219 30.9369 67.8854 31.139 65.9861 31.522C65.7307 31.5752 65.454 31.6071 65.3583 31.3092C65.2519 30.9688 65.5977 30.8624 65.7892 30.8358C68.8696 30.3783 71.9234 29.591 75.3283 29.8729H75.3337Z" fill="#153438"/>
<path d="M104.451 23.1387C107.361 23.5642 110.165 24.3835 112.905 25.4421C112.868 25.5804 112.836 25.7187 112.799 25.8623C109.984 25.1229 107.17 24.3781 104.355 23.6387C104.387 23.4738 104.419 23.3089 104.451 23.1387Z" fill="#153438"/>
<path d="M122.184 32.0625C124.913 32.7328 127.573 33.6158 130.036 35.0096C127.28 34.3978 124.668 33.4084 122.184 32.0625Z" fill="#153438"/>
<path d="M104.148 26.4365C106.931 26.7185 109.548 27.6175 112.171 28.5112C112.134 28.6601 112.096 28.8091 112.054 28.958C109.378 28.2665 106.707 27.5696 104.031 26.8781C104.068 26.7344 104.105 26.5855 104.143 26.4418L104.148 26.4365Z" fill="#153438"/>
<path d="M103.632 29.6914C106.441 30.3617 108.878 30.9468 111.378 31.5426C110.117 32.1597 104.855 30.9841 103.632 29.6914Z" fill="#153438"/>
<path d="M70.1626 60.1573C72.9025 59.487 75.6743 59.2104 78.4834 59.3008C75.7541 59.9817 72.9823 60.3009 70.1626 60.1573Z" fill="#153438"/>
<path d="M118.762 34.8408C121.353 35.6654 123.848 36.7186 126.264 37.9687C126.211 38.1017 126.157 38.24 126.104 38.373C123.614 37.3729 121.13 36.3729 118.64 35.3675C118.682 35.1919 118.725 35.0164 118.762 34.8408Z" fill="#153438"/>
<path d="M107.276 45.2562C104.818 45.1711 102.35 45.4371 99.908 44.7402H107.282V45.2562H107.276Z" fill="#153438"/>
<path d="M84.4048 52.0119C86.6818 50.7777 89.1078 51.0065 91.5179 51.049C91.5339 51.182 91.5445 51.3203 91.5605 51.4533C89.177 51.6395 86.7882 51.8257 84.4048 52.0065V52.0119Z" fill="#153438"/>
<path d="M71.4072 53.2998C73.1363 52.1561 75.0409 52.1242 77.0254 52.6508C75.1526 52.8689 73.2799 53.0817 71.4072 53.2998Z" fill="#153438"/>
<path d="M92.252 74.5847C94.1193 74.5847 95.9495 73.8613 97.8488 74.2124C96.0346 74.9039 94.1725 75.0901 92.252 74.5847Z" fill="#153438"/>
<path d="M125.131 94.8767C124.455 95.3661 123.939 95.3076 123.497 95.1693C119.795 93.983 115.948 93.7383 112.112 93.3978C105.973 92.8552 99.9769 91.5732 94.0183 90.0305C89.9537 88.9773 85.9954 87.674 82.0904 86.1526C81.718 86.0089 81.3349 85.8813 80.9998 85.6791C80.7338 85.5195 80.2124 85.3972 80.4997 84.9344C80.8295 84.4077 81.0423 84.9929 81.3137 85.1046C85.6975 86.9292 90.1771 88.4347 94.8163 89.4667C98.9075 90.3763 102.914 91.6637 107.095 92.1371C110.091 92.4722 113.086 92.8552 116.092 93.0574C119.108 93.2595 121.992 93.999 125.131 94.882V94.8767Z" fill="#153438"/>
<path d="M31.8891 73.828C28.3405 71.6257 16.9659 60.9227 16.1094 56.4648C20.2272 63.3112 26.4146 68.2371 31.8891 73.828Z" fill="#153438"/>
<path d="M20.9719 52.5342C24.9355 59.8593 31.0856 65.3597 36.6718 71.3283C33.3095 70.142 21.4933 56.1089 20.9719 52.5342Z" fill="#153438"/>
<path d="M7.28857 35.1866C7.95892 30.8724 9.48049 26.8987 12.3321 23.4941C10.1881 27.1913 8.70907 31.165 7.28857 35.1866Z" fill="#153438"/>
<path d="M60.8096 77.4502C64.4273 79.4078 67.5981 81.3761 71.2691 82.8389C69.5507 83.1422 62.0119 79.3067 60.8096 77.4502Z" fill="#153438"/>
<path d="M39.9013 56.7053C37.486 54.0243 34.4428 51.8166 33.1606 48.2578C35.1238 51.3006 37.9595 53.6466 39.9013 56.7053Z" fill="#153438"/>
<path d="M33.0754 35.7413C33.2191 32.2889 35.0279 29.3685 36.2729 26.2725C35.677 29.5812 33.9852 32.5389 33.0754 35.7413Z" fill="#153438"/>
<path d="M33.9854 59.3848C31.5381 57.7836 28.4949 53.0864 28.8514 51.3682C30.1655 54.4854 32.2084 56.8367 33.9854 59.3848Z" fill="#153438"/>
<path d="M69.3324 84.9618C66.1297 84.249 63.1397 82.9244 60.1604 81.5786L60.32 81.1211C63.3578 82.2595 66.3903 83.3979 69.4282 84.5363C69.3963 84.6799 69.3643 84.8182 69.3324 84.9618Z" fill="#153438"/>
<path d="M35.56 9.59549C32.6073 10.4307 30.1707 12.2553 27.468 13.8778C28.016 12.1649 33.7512 9.15928 35.56 9.59549Z" fill="#153438"/>
<path d="M11.7947 31.5861C12.6087 28.6816 14.1888 26.2452 16.3807 24.1865C14.8431 26.6495 13.2684 29.0859 11.7947 31.5861Z" fill="#153438"/>
<path d="M43.3008 16.4304C44.0669 14.6057 48.2592 12.0257 50.4511 12.047C47.8442 13.1482 45.5512 14.744 43.3008 16.4304Z" fill="#153438"/>
<path d="M61.2832 6.65247C62.3792 5.35981 66.1352 4.6789 67.7632 5.50876C65.433 5.65239 63.3581 6.08327 61.2832 6.65247Z" fill="#153438"/>
<path d="M62.592 9.3224C64.6456 8.18401 66.8056 8.17869 69.0135 8.63085C66.8588 8.79576 64.7201 9.08834 62.592 9.3224Z" fill="#153438"/>
<path d="M44.4979 11.0156C42.5401 11.6433 40.8696 12.8349 39.05 13.7286C40.4173 11.888 42.3273 11.1646 44.4979 11.0156Z" fill="#153438"/>
<path d="M33.916 13.1689C35.0599 11.6315 36.7304 11.1794 38.5073 10.9453C37.0922 11.9135 35.4163 12.3656 33.916 13.1689Z" fill="#153438"/>
<path d="M28.7077 28.6494C28.2076 30.7985 27.1064 32.2774 26.5371 34.2456C26.154 33.0062 27.2181 30.3517 28.7077 28.6494Z" fill="#153438"/>
<path d="M40.4761 66.6514C42.1413 67.061 43.3171 68.2313 44.5513 69.3165C42.9127 68.875 41.737 67.694 40.4761 66.6514Z" fill="#153438"/>
<path d="M19.4346 24.4951C18.9079 26.0006 17.7161 27.0219 16.684 28.1603C16.6414 28.2029 16.3967 28.1444 16.3222 28.0592C16.152 27.8677 16.3276 27.7135 16.4446 27.5645C17.3171 26.4314 18.2375 25.3463 19.4346 24.5004V24.4951Z" fill="#153438"/>
<path d="M31.3679 29.3672C30.905 30.8194 30.4422 32.2717 29.9367 33.8463C29.4207 32.7664 30.0431 30.6492 31.3679 29.3672Z" fill="#153438"/>
<path d="M46.823 67.3223C45.9771 66.3169 45.1311 65.3115 44.115 64.0986C45.61 64.604 46.6793 65.8328 46.823 67.3223Z" fill="#153438"/>
<path d="M65.071 11.0745C66.1422 10.5886 67.5503 10.3617 69.2953 10.3936C68.5398 10.9947 66.5554 11.3511 65.071 11.0745Z" fill="#153438"/>
<path d="M293.808 63.1735C293.685 62.365 294.196 62.3384 294.515 62.1841C302.123 58.4231 309.593 54.3271 317.387 51.0076C328.979 46.0657 340.492 40.8046 352.835 37.8523C357.927 36.6341 363.061 35.634 368.258 34.9424C370.887 34.5914 373.509 34.2137 376.159 34.07C376.616 34.0434 377.164 33.8573 377.702 34.5648C375.398 34.6977 373.265 34.9744 371.131 35.235C366.035 35.8574 360.986 36.7245 355.969 37.831C345.398 40.1557 335.486 44.3369 325.484 48.3372C315.913 52.1673 306.768 56.8379 297.569 61.4287C296.356 62.0351 295.106 62.5777 293.808 63.1789V63.1735Z" fill="#153438"/>
<path d="M350.404 42.0449C355.713 39.7788 361.353 38.9808 367.019 38.3105C361.512 39.699 355.873 40.4863 350.404 42.0449Z" fill="#153438"/>
<path d="M357.942 42.0596C360.31 41.4106 362.395 41.4585 364.481 41.1553C363.933 41.9319 359.719 42.6182 357.942 42.0596Z" fill="#153438"/>
<path d="M394.849 49.1975C393.274 49.1815 392.566 47.7505 391.13 47.4154C392.306 47.0749 393.418 47.6441 394.849 49.1975Z" fill="#153438"/>
<path d="M390.811 42.6557C389.379 42.9483 388.156 42.2993 386.884 41.8471C388.299 41.5971 389.566 42.0546 390.811 42.6557Z" fill="#153438"/>
<path d="M361.278 44.922C362.342 43.7411 363.39 43.7039 364.47 43.7677C363.63 44.4114 362.656 44.6507 361.278 44.922Z" fill="#153438"/>
<path d="M260.626 245.295C260.599 244.396 261.067 243.699 261.519 243.05C264.211 239.172 264.823 234.767 264.914 230.203C264.983 226.538 264.669 222.862 265.196 219.202C265.515 216.979 265.861 214.766 266.457 212.601C266.547 212.271 266.659 211.914 267.239 211.909C266.909 214.005 266.297 216.021 266.036 218.117C265.728 220.559 265.467 222.99 265.515 225.453C265.584 228.927 265.589 232.406 265.19 235.853C264.919 238.209 263.828 240.316 262.642 242.337C262.046 243.359 261.594 244.502 260.642 245.295H260.626Z" fill="#153438"/>
<path d="M272.356 205.781C274.346 202.456 276.863 199.599 279.89 197.189C277.384 200.062 274.894 202.94 272.356 205.781Z" fill="#153438"/>
<path d="M32.6873 210.495C34.5227 209.905 36.0496 208.809 37.6138 207.782C41.3113 205.362 42.6679 201.558 43.3915 197.526C44.381 192.026 46.9454 187.408 50.6269 183.318C50.7493 183.179 50.9302 183.094 51.2867 182.828C50.9994 183.956 50.2758 184.509 49.7598 185.179C46.557 189.329 44.6364 193.983 43.6841 199.159C42.7052 204.495 39.4333 208.197 34.4802 210.416C33.9003 210.676 33.3416 210.708 32.6873 210.485V210.495Z" fill="#153438"/>
<path d="M55.4201 170.57C53.8454 168.9 52.6111 167.006 51.6588 164.932C51.3502 164.251 51.031 163.575 50.7596 162.878C50.1265 161.261 48.8976 160.479 47.1738 160.325C47.8974 159.745 48.9508 159.809 49.7435 160.479C50.3606 161 50.9405 161.596 51.2385 162.352C52.377 165.214 53.8773 167.889 55.4148 170.576L55.4201 170.57Z" fill="#153438"/>
<path d="M53.489 181.337C53.6912 179.896 53.9146 178.954 54.9893 178.193C54.7552 179.342 54.4307 180.231 53.489 181.337Z" fill="#153438"/>
<path d="M286.418 184.731C285.029 184.151 283.907 183.39 282.534 183.385C279.757 183.369 277.778 185.023 275.799 186.614C274.261 187.853 273.213 189.529 272.154 191.183C271.793 191.747 271.628 192.481 270.808 192.864C270.638 191.923 271.298 191.417 271.622 190.838C273.559 187.433 276.23 184.795 279.858 183.188C282.172 182.161 285.008 182.746 286.413 184.731H286.418Z" fill="#153438"/>
<path d="M276.038 189.646C277.31 186.842 280.183 186.321 282.242 188.14C284.13 189.805 284.694 192.082 285.152 194.375C285.274 194.992 285.833 195.662 285.226 196.497C284.471 195.183 284.45 193.731 284.008 192.417C283.689 191.47 283.401 190.534 282.79 189.72C281.252 187.677 279.135 186.715 276.815 189.178C276.693 189.311 276.496 189.369 276.033 189.646H276.038Z" fill="#153438"/>
<path d="M287.689 188.167C287.04 187.209 286.567 186.204 286.891 184.688C287.588 185.964 287.593 187.076 287.689 188.167Z" fill="#153438"/>
</svg>
